  <svg
    xmlns="http://www.w3.org/2000/svg"
    width="23"
    height="24"
    viewBox="0 0 23 24"
    fill="current"
  >
    <path d="M21.9219 2.53906H17.1641V0.726562C17.1641 0.601953 17.0621 0.5 16.9375 0.5H15.3516C15.227 0.5 15.125 0.601953 15.125 0.726562V2.53906H7.875V0.726562C7.875 0.601953 7.77305 0.5 7.64844 0.5H6.0625C5.93789 0.5 5.83594 0.601953 5.83594 0.726562V2.53906H1.07812C0.576855 2.53906 0.171875 2.94404 0.171875 3.44531V22.25C0.171875 22.7513 0.576855 23.1562 1.07812 23.1562H21.9219C22.4231 23.1562 22.8281 22.7513 22.8281 22.25V3.44531C22.8281 2.94404 22.4231 2.53906 21.9219 2.53906ZM20.7891 21.1172H2.21094V4.57812H5.83594V5.9375C5.83594 6.06211 5.93789 6.16406 6.0625 6.16406H7.64844C7.77305 6.16406 7.875 6.06211 7.875 5.9375V4.57812H15.125V5.9375C15.125 6.06211 15.227 6.16406 15.3516 6.16406H16.9375C17.0621 6.16406 17.1641 6.06211 17.1641 5.9375V4.57812H20.7891V21.1172ZM16.4844 9.22266H14.9211C14.7767 9.22266 14.6379 9.29346 14.5529 9.40957L10.2794 15.2945L8.44707 12.774C8.36211 12.6579 8.22617 12.5871 8.07891 12.5871H6.51562C6.33154 12.5871 6.22393 12.7967 6.33154 12.9468L9.91123 17.8745C9.95356 17.9324 10.009 17.9796 10.0729 18.0121C10.1369 18.0446 10.2076 18.0615 10.2794 18.0615C10.3511 18.0615 10.4219 18.0446 10.4859 18.0121C10.5498 17.9796 10.6052 17.9324 10.6476 17.8745L16.6685 9.58516C16.7761 9.43223 16.6685 9.22266 16.4844 9.22266Z" />
  </svg>