<svg xmlns="http://www.w3.org/2000/svg" width="108" height="95" viewBox="0 0 108 95" fill="none">
  <path d="M66.2995 41.8277C66.2995 41.8277 -1.89899 51.2656 0.0406014 63.0077C1.98508 74.7455 22.5878 69.5687 15.2007 75.4397C7.81363 81.3108 37.4254 101.814 69.822 92.3586C97.0349 84.4177 117.252 68.7052 103.645 57.3146C86.8728 43.2684 73.1296 55.7611 77.2091 46.0932C81.2886 36.4253 66.2995 41.8321 66.2995 41.8321V41.8277Z" fill="#FBA7A6"/>
  <path d="M24.9219 40.9122V72.3329L50.3858 85.277L87.1208 66.1148V40.5651L56.6051 24.8569L24.9219 40.9122Z" fill="#43ABC4"/>
  <path d="M87.5116 40.5651L56.2192 56.794L55.9847 56.6725L24.9219 40.9122L56.6051 24.8569L87.5116 40.5651Z" fill="#43ABC4"/>
  <path d="M56.6051 24.8569L55.9847 56.6725L24.9219 40.9122L56.6051 24.8569Z" fill="#1C5360"/>
  <path d="M56.6074 24.8568L63.6036 13.9783L95.4823 28.1373L87.5139 40.565L56.6074 24.8568Z" fill="#65CEE0"/>
  <path d="M56.6068 24.8568L49.9965 13.9783L16.9551 29.1701L24.9235 40.9121L56.6068 24.8568Z" fill="#65CEE0"/>
  <path d="M24.9239 40.9122L14.625 52.4764L45.9174 68.3625L56.0258 56.6204L24.9239 40.9122Z" fill="#65CEE0"/>
  <path d="M56.0254 56.6203L67.8828 68.0152L97.817 52.8234L87.5132 40.5649L56.0254 56.6203Z" fill="#65CEE0"/>
  <path d="M61.099 0.92568C57.8158 -0.280638 54.9626 -0.26762 52.8765 0.730413C40.7552 4.33635 40.1445 10.3462 40.1445 10.3462L49.8913 15.9179L52.0801 16.4125L59.9704 32.7499L55.0066 47.5208L63.8447 41.3373L75.1891 26.1282C76.645 24.5487 77.2948 22.1534 76.8405 19.142C75.7461 11.904 68.6619 3.70282 61.099 0.921341V0.92568Z" fill="#1C5360"/>
  <path d="M67.4753 24.8047C66.3809 17.5668 59.2967 9.3656 51.7338 6.58412C44.1708 3.80265 38.8895 7.49971 39.9936 14.794C40.2916 16.7641 41.0294 18.7992 42.0896 20.7735L55.0071 47.5252L65.8288 31.791C67.2847 30.2115 67.9345 27.8162 67.4802 24.8047H67.4753Z" fill="#FC624E"/>
  <path d="M61.0328 23.5246C61.1109 24.0367 61.1305 24.514 61.106 24.9609C60.9057 28.198 58.0672 29.6907 54.2075 28.2978C49.8154 26.714 45.6968 21.9451 45.0519 17.7013C44.5926 14.6725 46.029 12.7112 48.4865 12.4248C49.4734 12.3076 50.6215 12.4638 51.882 12.9281C56.279 14.5467 60.3976 19.3112 61.0376 23.5246H61.0328Z" fill="#1C5360"/>
  <path d="M61.0296 23.5246C61.1077 24.0366 61.1273 24.5139 61.1029 24.9609C60.2234 26.7573 58.0151 27.4082 55.2157 26.4015C51.2143 24.9609 47.4573 20.6129 46.871 16.7466C46.5584 14.6898 47.2033 13.1754 48.4784 12.429C49.4653 12.3119 50.6134 12.4681 51.8739 12.9324C56.271 14.551 60.3896 19.3155 61.0296 23.5289V23.5246Z" fill="#FBA7A6"/>
</svg>