<svg width="200" height="110" viewBox="0 0 200 110" fill="none" xmlns="http://www.w3.org/2000/svg">
<path d="M171.546 20.0792H137.959V0H22.0273V16.6312H30.1401V8.1128H129.846V40.9696H137.959V28.1514H154.672V56.3434H191.463V68.1475H184.77V76.2603H191.463V88.1456H181.768C179.943 80.4384 172.966 74.6378 164.691 74.6378C156.416 74.6378 149.479 80.4384 147.654 88.1456H137.959V49.123H129.846V88.1456H81.2102C79.3848 80.4384 72.4078 74.6378 64.1328 74.6378C55.8577 74.6378 48.9213 80.4384 47.0959 88.1456H30.1401V73.4614H22.0273V96.2584H47.0553C48.8807 103.966 55.8577 109.766 64.1328 109.766C72.4078 109.766 79.3848 104.006 81.2102 96.2584H147.654C149.479 103.966 156.456 109.766 164.732 109.766C173.007 109.766 179.984 104.006 181.809 96.2584H199.576V50.7456L171.546 20.0792ZM162.784 48.2712V28.192H167.936L186.312 48.2712H162.784ZM64.1328 101.653C58.9406 101.653 54.6814 97.4347 54.6814 92.202C54.6814 87.0098 58.9 82.7506 64.1328 82.7506C69.3655 82.7506 73.5842 86.9692 73.5842 92.202C73.5842 97.3942 69.3655 101.653 64.1328 101.653ZM164.732 101.653C159.539 101.653 155.28 97.4347 155.28 92.202C155.28 87.0098 159.499 82.7506 164.732 82.7506C169.924 82.7506 174.183 86.9692 174.183 92.202C174.142 97.3942 169.924 101.653 164.732 101.653Z" fill="white"/>
<path d="M68.187 88.1455H60.0742V96.2583H68.187V88.1455Z" fill="white"/>
<path d="M168.787 88.1455H160.674V96.2583H168.787V88.1455Z" fill="white"/>
<path d="M43.0799 41.0103H16.2266V49.1231H43.0799V41.0103Z" fill="white"/>
<path d="M8.1128 41.0103H0V49.1231H8.1128V41.0103Z" fill="white"/>
<path d="M65.1053 24.7847H38.252V32.8975H65.1053V24.7847Z" fill="white"/>
<path d="M30.1401 24.7847H22.0273V32.8975H30.1401V24.7847Z" fill="white"/>
<path d="M65.1053 57.2358H38.252V65.3486H65.1053V57.2358Z" fill="white"/>
<path d="M30.1401 57.2358H22.0273V65.3486H30.1401V57.2358Z" fill="white"/>
</svg>
