<svg
  xmlns="http://www.w3.org/2000/svg"
  width="19"
  height="17"
  viewBox="0 0 19 17"
  fill="current">
  <path d="M18.5625 0H0.1875C0.084375 0 0 0.084375 0 0.1875V1.6875C0 1.79062 0.084375 1.875 0.1875 1.875H18.5625C18.6656 1.875 18.75 1.79062 18.75 1.6875V0.1875C18.75 0.084375 18.6656 0 18.5625 0ZM18.5625 14.625H0.1875C0.084375 14.625 0 14.7094 0 14.8125V16.3125C0 16.4156 0.084375 16.5 0.1875 16.5H18.5625C18.6656 16.5 18.75 16.4156 18.75 16.3125V14.8125C18.75 14.7094 18.6656 14.625 18.5625 14.625ZM18.5625 7.3125H0.1875C0.084375 7.3125 0 7.39687 0 7.5V9C0 9.10312 0.084375 9.1875 0.1875 9.1875H18.5625C18.6656 9.1875 18.75 9.10312 18.75 9V7.5C18.75 7.39687 18.6656 7.3125 18.5625 7.3125Z" />
</svg>