<svg width="26" height="83" viewBox="0 0 26 83" fill="none" xmlns="http://www.w3.org/2000/svg">
<path d="M13.3087 58.3364C8.72737 58.3364 5 61.9253 5 66.3364C5 67.6607 5.34385 68.9736 5.99753 70.1382L12.8543 82.0786C12.9456 82.2378 13.1196 82.3364 13.3087 82.3364C13.4978 82.3364 13.6718 82.2378 13.7631 82.0786L20.6224 70.1343C21.2735 68.9736 21.6174 67.6606 21.6174 66.3364C21.6174 61.9253 17.89 58.3364 13.3087 58.3364ZM13.3087 70.3364C11.018 70.3364 9.15437 68.542 9.15437 66.3364C9.15437 64.1309 11.018 62.3365 13.3087 62.3365C15.5994 62.3365 17.463 64.1309 17.463 66.3364C17.463 68.542 15.5994 70.3364 13.3087 70.3364Z" fill="#2368F7"/>
<ellipse cx="12.7715" cy="30.1616" rx="2.07717" ry="2" fill="#2368F7"/>
<ellipse opacity="0.7" cx="12.7715" cy="38.1616" rx="2.07717" ry="2" fill="#2368F7"/>
<ellipse opacity="0.4" cx="12.7715" cy="46.1616" rx="2.07717" ry="2" fill="#2368F7"/>
<ellipse opacity="0.2" cx="12.7715" cy="54.1616" rx="2.07717" ry="2" fill="#2368F7"/>
<ellipse cx="12.7726" cy="12.1616" rx="12.463" ry="12" fill="#2368F7" fill-opacity="0.2"/>
<path d="M20.2998 12.1612C20.2998 16.1081 16.9657 19.3717 12.7724 19.3717C8.5792 19.3717 5.24512 16.1081 5.24512 12.1612C5.24512 8.21429 8.5792 4.95068 12.7724 4.95068C16.9657 4.95068 20.2998 8.21429 20.2998 12.1612Z" fill="#2368F7" stroke="white" stroke-width="2"/>
</svg>
