<svg width="113" height="99" viewBox="0 0 113 99" fill="none" xmlns="http://www.w3.org/2000/svg">
<path d="M56.2434 50.3756C56.2434 50.3756 -4.49901 54.1927 0.266419 69.2333C5.03185 84.2738 27.8522 84.6752 24.2175 91.2925C20.5828 97.9098 49.1908 103.022 66.3319 94.6034C83.473 86.1847 123.997 72.1429 109.582 60.3129C95.1672 48.483 84.041 55.1003 76.5495 53.6956C69.058 52.291 71.6963 43.3524 56.2434 50.3801V50.3756Z" fill="#FFCCCC"/>
<path d="M71.1341 20.4088C72.2544 19.8114 82.0486 22.2832 84.2738 26.9623C86.4991 31.6414 87.7692 34.9204 88.936 36.0422C90.1028 37.1641 90.2526 42.6869 88.2183 41.6608C86.1841 40.6347 84.0621 37.2599 82.4719 37.2599C80.8817 37.2599 78.8682 38.8515 80.2467 41.4738C81.6252 44.0961 86.8192 58.3249 84.3771 59.2598C81.5736 60.3361 79.3948 58.3249 77.0663 50.6496C74.7378 42.9742 71.0256 35.2031 71.0256 35.2031C71.0256 35.2031 63.9265 24.2533 71.1341 20.4134V20.4088Z" fill="#34ADC1"/>
<path d="M68.6963 43.4343C68.6963 43.4343 74.3137 61.7813 76.1155 62.9989C77.9174 64.2166 80.2459 64.2166 80.4627 62.438C80.6796 60.6594 78.6454 50.9683 77.272 47.8124C75.9039 44.652 73.6786 40.4837 73.0435 39.9C72.4085 39.3162 67.8495 35.6678 68.6963 43.4343Z" fill="#34ADC1"/>
<path d="M63.7178 44.0906C63.7178 44.0906 69.3351 62.4375 71.137 63.6552C72.9388 64.8728 75.2673 64.8728 75.4842 63.0942C75.6958 61.3156 73.6668 51.6246 72.2935 48.4687C70.9253 45.3082 68.7 41.1399 68.065 40.5562C67.4299 39.9725 62.871 36.324 63.7178 44.0906Z" fill="#34ADC1"/>
<path d="M57.7822 41.7478C57.7822 41.7478 63.3995 60.0948 65.2014 61.3124C67.0033 62.5301 69.3318 62.5301 69.5486 60.7515C69.7655 58.9729 67.7313 49.2818 66.3579 46.1259C64.9846 42.97 62.7645 38.7972 62.1294 38.2134C61.4944 37.6297 56.9355 33.9813 57.7822 41.7478Z" fill="#34ADC1"/>
<path d="M57.4667 40.9081C57.4667 40.9081 51.8598 7.38377 79.5127 22.9762C79.5127 22.9762 81.3094 37.4421 73.5753 41.843C65.8411 46.2439 60.6471 51.0142 57.4667 40.9081Z" fill="#34ADC1"/>
<path d="M79.6061 57.1942C79.6061 57.1942 78.0521 53.596 76.4877 49.4733C75.3415 46.4588 74.1695 42.213 74.0508 41.8892" stroke="#206982" stroke-width="9" stroke-miterlimit="10" stroke-linecap="round"/>
<path d="M75.0056 61.9234C75.0056 61.9234 69.2849 49.382 68.9648 46.3857" stroke="#206982" stroke-width="9" stroke-miterlimit="10" stroke-linecap="round"/>
<path d="M69.2798 60.6095C69.2798 60.6095 65.5728 51.7165 65.041 49.564" stroke="#206982" stroke-width="9" stroke-miterlimit="10" stroke-linecap="round"/>
<path d="M78.3607 22.3978C68.6904 18.6764 63.4448 20.9475 60.6104 24.824C56.8672 29.9363 57.337 37.8442 57.3732 38.4097C57.3732 38.4325 57.3732 38.4416 57.3732 38.4416H57.368L48.2967 28.3173C48.2967 28.3173 45.963 24.1034 48.1882 18.1154C49.2156 15.3472 51.1105 13.2995 53.3719 11.8174C57.0273 9.41855 61.643 8.49734 65.1435 8.38333C67.6785 8.30124 72.3768 10.7821 73.5127 12.7842L78.3504 22.4023L78.3607 22.3978Z" fill="#65D5E0"/>
<path d="M60.6936 25.0334C60.6936 25.0334 57.6165 35.8053 57.3739 38.4048C57.3739 38.414 57.3739 38.4231 57.3739 38.4322L48.3025 28.3124C48.3025 28.3124 45.9688 24.0985 48.1941 18.1106C49.2215 15.3423 51.1163 13.2947 53.3777 11.8125C54.0283 13.9012 56.682 22.06 58.5252 23.118C59.9605 23.9435 60.4459 24.5272 60.6111 24.8191C60.6885 24.9605 60.6936 25.0334 60.6936 25.0334Z" fill="#31A6BA"/>
<path d="M76.2242 23.3094C76.2242 23.3094 83.0136 24.2625 85.6622 29.8719C88.3056 35.4814 89.8958 36.9772 90.8509 37.7251C91.8061 38.4731 93.2362 41.068 91.3001 42.2492C89.364 43.4303 86.5502 42.5867 84.7225 40.1103C82.8948 37.6339 82.4766 36.7902 80.7779 37.6294C79.0845 38.4731 75.4807 40.0647 74.2055 36.0377C72.9354 32.0108 67.3181 23.2136 76.2191 23.3094H76.2242Z" fill="#34ADC1"/>
<path d="M88.3162 47.1511L86.8447 68.4532C86.7415 69.9445 85.8018 71.2899 84.3355 72.0332L50.5025 89.2902C49.79 89.655 49.0001 89.8511 48.205 89.8831C47.2602 89.9195 46.305 89.7234 45.4531 89.2856L21.7189 77.1091C20.3971 76.4295 19.4936 75.2575 19.2664 73.9213L16.0293 54.8492L33.0671 44.848L50.4767 34.6279L88.3059 47.1465L88.3162 47.1511Z" fill="#F23E30"/>
<path d="M48.205 89.8832C47.2602 89.9197 46.305 89.7236 45.4531 89.2858L21.7189 77.1092C20.3971 76.4297 19.4936 75.2576 19.2664 73.9214L16.0293 54.8493L33.0671 44.8481L45.6803 50.9045L48.1998 89.8832H48.205Z" fill="#F77A74"/>
<path d="M89.8451 43.5853C89.9019 44.1326 89.6696 44.9808 89.3701 45.8245C88.8228 44.7802 87.9141 43.8589 86.6389 43.2205L57.9224 28.8594C55.883 27.8424 53.3893 27.8515 51.3654 28.8913L16.1591 46.9327C15.0748 47.4891 14.2642 48.2462 13.7169 49.1081C13.4381 48.3921 13.1955 47.6259 13.0767 46.8826C13.0767 46.8826 10.4023 51.8946 14.9096 56.2635L15.1987 56.4186C15.4878 56.6329 15.808 56.8336 16.1539 57.0115L44.6587 71.6416C46.7136 72.695 49.2538 72.6951 51.3035 71.6325L86.7215 53.322C87.0519 53.1533 87.3566 52.9617 87.6354 52.7565L87.7489 52.6972C91.8638 49.669 89.8503 43.5899 89.8503 43.5899L89.8451 43.5853Z" fill="#B52E24"/>
<path d="M16.1554 53.2496L44.6603 67.8797C46.7151 68.9331 49.2553 68.9332 51.305 67.8706L86.7231 49.5601C91.1116 47.2935 91.0651 41.675 86.6404 39.4631L57.9239 25.1021C55.8846 24.0851 53.3909 24.0942 51.367 25.134L16.1606 43.1754C11.7824 45.4192 11.7824 51.0012 16.1606 53.2496H16.1554Z" fill="#FC624E"/>
<path d="M80.1647 48.8607L63.6535 57.398L51.6547 63.6002C50.0026 64.4531 47.9632 64.4576 46.3058 63.6048L23.3616 51.8296C19.8404 50.0236 19.8404 45.527 23.3616 43.721L51.696 29.2003C52.4808 28.799 53.3534 28.5846 54.2362 28.571C55.1811 28.5527 56.1259 28.7534 56.9777 29.1775L80.0924 40.7384C83.6549 42.517 83.691 47.041 80.1596 48.8652L80.1647 48.8607Z" fill="#661A1A"/>
<path d="M80.1636 48.8613L63.6524 57.3986L61.6078 58.1283L54.2402 54.0831V28.5671C55.1851 28.5488 56.1299 28.7495 56.9818 29.1736L80.0965 40.7345C83.659 42.5131 83.6951 47.0371 80.1636 48.8613Z" fill="#B54343"/>
<path d="M78.1213 60.5671L81.09 59.1077C81.7251 58.7976 82.4996 59.2035 82.4996 59.842V70.3722C82.4996 70.6641 82.324 70.9377 82.0401 71.0928L79.0714 72.6753C78.4363 73.0127 77.6309 72.6114 77.6309 71.9547V61.3014C77.6309 60.9958 77.8167 60.7176 78.1213 60.5671Z" fill="#661A1A"/>
<path d="M69.6174 64.8034L72.5861 63.3441C73.2212 63.034 73.9956 63.4399 73.9956 64.0783V74.6085C73.9956 74.9004 73.8201 75.174 73.5362 75.3291L70.5674 76.9116C69.9324 77.2491 69.127 76.8478 69.127 76.191V65.5377C69.127 65.2321 69.3128 64.9539 69.6174 64.8034Z" fill="#661A1A"/>
<path d="M60.4631 69.7156L63.4318 68.2562C64.0669 67.9461 64.8413 68.3519 64.8413 68.9904V79.5206C64.8413 79.8125 64.6658 80.0862 64.3818 80.2412L61.4131 81.8237C60.778 82.1612 59.9727 81.7598 59.9727 81.1031V70.4498C59.9727 70.1442 60.1585 69.8661 60.4631 69.7156Z" fill="#661A1A"/>
<path d="M76.5959 61.2424L79.5646 59.783C80.1997 59.4729 80.9741 59.8788 80.9741 60.5173V71.0475C80.9741 71.3394 80.7986 71.613 80.5146 71.7681L77.5459 73.3506C76.9109 73.688 76.1055 73.2867 76.1055 72.63V61.9766C76.1055 61.6711 76.2913 61.3929 76.5959 61.2424Z" fill="#AD211A"/>
<path d="M68.094 65.4787L71.0628 64.0194C71.6978 63.7093 72.4722 64.1151 72.4722 64.7536V75.2838C72.4722 75.5757 72.2967 75.8493 72.0127 76.0044L69.044 77.5869C68.409 77.9244 67.6035 77.523 67.6035 76.8663V66.213C67.6035 65.9074 67.7894 65.6292 68.094 65.4787Z" fill="#AD211A"/>
<path d="M58.9339 70.3899L61.9026 68.9305C62.5376 68.6204 63.3121 69.0263 63.3121 69.6648V80.195C63.3121 80.4868 63.1365 80.7605 62.8526 80.9155L59.8839 82.498C59.2488 82.8355 58.4434 82.4342 58.4434 81.7775V71.1241C58.4434 70.8185 58.6293 70.5404 58.9339 70.3899Z" fill="#AD211A"/>
<path d="M29.019 41.3267C28.864 41.7736 28.6109 42.0609 28.4559 42.1521C28.3164 42.2342 28.5747 41.7508 29.019 41.3267Z" fill="#FFC38D"/>
<path d="M39.1606 19.5555C38.2726 20.691 36.8735 20.9054 35.9751 20.0525C35.0767 19.1997 34.8496 19.4323 34.0958 19.7789C33.342 20.1255 31.9427 20.3399 31.2044 19.6512C30.4661 18.9626 28.4887 17.3983 28.0447 17.339C27.6007 17.2798 22.9643 18.5978 22.763 18.5248C22.5616 18.4518 13.8052 21.4891 14.8637 18.7482C15.2715 17.6948 15.2457 17.298 14.9927 17.111C14.6003 16.81 13.6349 17.0472 12.9843 15.9709C12.8656 15.7748 12.7933 15.5833 12.7623 15.3963C12.5145 13.9141 14.7191 12.6691 15.7001 12.6098C14.5074 12.6326 3.92325 12.7147 5.52377 9.99206C7.29467 6.99125 12.4319 4.6061 17.5432 9.30342C18.4054 10.097 19.1437 10.7674 19.7788 11.342C22.6804 13.9552 23.3774 14.4477 23.46 14.5024C23.3102 14.3793 21.1934 12.6052 20.9508 10.3615C20.8836 9.75492 20.9508 9.12102 21.2348 8.46887C22.4377 5.69608 27.6369 1.24501 28.8657 0.218896C28.907 0.182411 28.9431 0.150478 28.9792 0.123115C29.0773 0.0455862 29.129 0 29.129 0C29.129 0 29.1444 0.0684043 29.1651 0.196099C29.258 0.798086 29.4078 2.69524 28.0241 4.59697C26.3461 6.90003 25.8505 7.44732 26.4545 7.67078C27.0586 7.89425 27.9621 9.47674 27.2031 10.3432C26.439 11.2097 25.6026 11.7342 25.8763 12.1492C25.9899 12.3179 26.1809 12.5323 26.3306 12.7512C26.3977 12.8515 26.4597 12.9518 26.501 13.0476C26.976 12.1264 28.1841 10.3022 29.2219 9.31255C30.7243 7.88055 37.7666 6.71762 37.7666 6.71762C37.7666 6.71762 38.5824 7.7483 36.7082 9.45849C34.8392 11.1687 33.1044 10.8449 33.0115 11.5426C32.9186 12.2404 33.8066 13.6086 32.5933 13.6815C31.38 13.7545 29.5575 13.6086 29.0619 14.1558C28.6178 14.6483 28.8243 15.3826 28.6901 15.5331C29.0412 15.4419 30.523 15.1819 32.3248 15.2503C34.5294 15.3324 40.0487 18.4062 39.1606 19.5372V19.5555Z" fill="#1C5360"/>
<path d="M36.3775 55.2729C36.3052 55.4416 36.1761 55.5784 36.0058 55.6651C35.8664 55.738 35.7063 55.7791 35.5359 55.7745L30.7653 50.3657C30.5382 48.09 18.0644 30.4637 17.6049 23.9284C17.2022 18.2506 19.7992 16.431 25.7728 16.3534C26.4285 16.3443 27.1306 16.3535 27.8689 16.3854C28.1425 16.3991 28.4213 16.4127 28.7001 16.4264C36.7492 16.887 37.2294 34.901 37.343 44.4325C37.3585 45.8143 37.3482 47.0275 37.3224 48.0901C37.2346 51.2505 36.9764 53.0792 36.7234 54.1692C36.7028 54.2558 36.6821 54.3379 36.6615 54.4109C36.5634 54.7849 36.4653 55.0585 36.3827 55.2637L36.3775 55.2729Z" fill="#FFA64A"/>
<path d="M36.0097 55.67C35.8703 55.743 35.7102 55.784 35.5398 55.7794L30.7692 50.3707C30.5421 48.095 18.0683 30.4686 17.6088 23.9334C17.2061 18.2556 19.8031 16.4359 25.7767 16.3584C24.7647 17.1656 23.3294 18.8439 24.0677 21.5072C25.1571 25.4566 27.6973 27.331 28.0793 31.5358C28.4562 35.7451 28.9002 42.0614 30.1084 43.7579C31.3165 45.4545 33.6399 47.0369 34.5795 49.0527C35.2404 50.471 35.7619 53.8139 36.0148 55.6609L36.0097 55.67Z" fill="#FF7E2B"/>
<path d="M31.7467 26.665C31.3282 26.6787 31.1991 26.8201 31.7467 26.665Z" fill="#FFC38D"/>
<path d="M36.6676 54.421C36.6676 54.421 36.6676 54.421 36.6624 54.421C36.4404 54.4529 35.9137 44.2283 35.9137 44.2283C35.9137 44.2283 34.4062 43.6719 35.9654 43.6217C37.5246 43.5716 36.1048 38.5641 35.8828 36.2885C35.7537 34.9887 34.7314 35.0981 33.9467 35.4174C34.3236 35.0161 34.6747 34.3821 34.7315 33.47C34.8399 31.737 34.4113 28.1388 33.2135 27.172C32.6714 26.7387 32.1138 26.6566 31.7576 26.6658C31.7731 26.6658 31.7885 26.6567 31.804 26.6521C32.9037 26.3283 31.6027 24.0754 31.6285 21.2661C31.6492 18.8901 28.763 16.9382 27.875 16.3955C28.1486 16.4092 28.4274 16.4229 28.7062 16.4365C36.7553 16.8971 37.2355 34.9112 37.3491 44.4426C37.3646 45.8245 37.3543 47.0376 37.3285 48.1002C37.0806 51.0873 36.8431 53.4405 36.7295 54.1793C36.7089 54.3207 36.6882 54.4028 36.6779 54.4165L36.6676 54.421Z" fill="#FFC38D"/>
<path d="M21.8281 32.2705C21.8281 32.2705 23.3977 27.9425 24.9827 27.5868C26.5677 27.2311 31.7669 27.4728 31.7669 27.4728C31.7669 27.4728 24.9466 27.1536 21.8281 32.2659V32.2705Z" fill="#FF7E2B"/>
<path d="M26.2324 41.7153C26.2324 41.7153 27.802 37.3874 29.3871 37.0316C30.9721 36.6759 36.1712 36.9176 36.1712 36.9176C36.1712 36.9176 29.3509 36.5984 26.2324 41.7107V41.7153Z" fill="#FF7E2B"/>
<path d="M30.961 33.4376C30.961 33.4376 27.7651 31.9509 25.7877 32.8904C23.8102 33.8298 23.1133 34.3041 23.1133 34.3041C23.1133 34.3041 28.3692 33.4239 30.961 33.4376Z" fill="#FF7E2B"/>
<path d="M29.5001 19.7565C29.5001 19.7565 26.3042 18.2697 24.3268 19.2092C22.3494 20.1487 21.6523 20.623 21.6523 20.623C21.6523 20.623 26.9083 19.7428 29.5001 19.7565Z" fill="#FF7E2B"/>
<path d="M36.7286 44.7443C36.7286 44.7443 33.5327 43.2575 31.5553 44.197C29.5779 45.1365 28.8809 45.6108 28.8809 45.6108C28.8809 45.6108 34.1368 44.7306 36.7286 44.7443Z" fill="#FF7E2B"/>
<path d="M24.0274 16.5406C24.0274 16.5406 17.7751 16.0664 14.9767 17.7492C12.1784 19.432 9.09093 21.2152 8.79664 21.8399C8.50235 22.4647 6.84502 24.9822 9.42651 24.2616C12.008 23.541 12.6482 21.6895 14.9612 22.5423C17.2742 23.3951 17.997 23.8694 18.7663 22.483C19.5356 21.0966 19.3549 19.6828 20.8006 19.2724C22.2462 18.862 24.2081 19.3682 24.0274 16.5406Z" fill="#499FAD"/>
<path d="M14.9869 17.1147C14.5945 16.8137 13.629 17.0508 12.9785 15.9745C12.8597 15.7784 12.7874 15.5869 12.7564 15.3999C12.5086 13.9178 14.7132 12.6727 15.6942 12.6135C14.5015 12.6363 3.91739 12.7183 5.51791 9.99572C7.28881 6.99491 12.426 4.60976 17.5374 9.30708C18.3996 10.1006 19.1379 10.771 19.773 11.3456C19.6181 11.2499 14.1194 7.75652 12.4879 8.49532C10.8358 9.24325 11.2747 9.82243 13.123 10.397C14.9765 10.9762 18.8178 11.3456 17.6871 12.4949C16.5564 13.6441 17.6355 14.3556 17.6045 15.1765C17.5735 15.9928 18.9933 17.7623 14.9869 17.1192V17.1147Z" fill="#2E7A87"/>
<path d="M26.3298 12.7641C26.113 12.7094 24.7551 12.3491 24.0374 11.8019C23.2578 11.1999 24.182 10.4976 24.6725 8.69616C25.163 6.89476 23.6141 7.67915 24.1097 5.88231C24.595 4.10827 27.2437 2.62156 28.8649 0.222729C28.8907 0.186245 28.9113 0.149765 28.9371 0.113281L28.9784 0.126948L29.1643 0.199932C29.2572 0.801919 29.407 2.69907 28.0233 4.60081C26.3453 6.90387 25.8497 7.45112 26.4537 7.67459C27.0578 7.89805 27.9613 9.48057 27.2023 10.3471C26.4382 11.2136 25.6018 11.738 25.8755 12.153C25.9891 12.3217 26.1801 12.5361 26.3298 12.755V12.7641Z" fill="#2E7A87"/>
<path d="M64.1937 21.0974V56.5097L48.777 64.9011L48.6325 64.9786L30.1387 56.1267V21.0974V21.0928L30.3606 20.7462L36.8144 10.5033L36.897 10.3619L37.2171 6.95068L56.4337 14.2429V17.6679L64.1937 21.0974Z" fill="#FFCCCC"/>
<path d="M62.3813 21.2339L55.6075 24.0522L51.6113 25.7123L57.0738 19.2774L57.3113 18.9946L62.3813 21.2339Z" fill="#E88282"/>
<path d="M56.4332 17.6679V17.677L36.8965 10.3619L37.2166 6.95068L56.4332 14.2429V17.6679Z" fill="#D85B5B"/>
<path d="M55.6074 24.0522L60.3728 21.4163L57.0738 19.2774L57.3112 18.9946L62.3813 21.2339L55.6074 24.0522Z" fill="#D85B5B"/>
<path d="M56.4337 17.6774L48.4724 28.048L48.777 64.9015C48.6893 64.9516 48.5757 64.9516 48.4879 64.9106L30.1387 56.1316V20.7329L36.897 10.3623L56.4337 17.6774Z" fill="#E88282"/>
<path d="M30.1387 20.6599L48.4724 28.0434L56.4337 17.6774L36.897 10.3623L30.1387 20.6599Z" fill="#D83D3D"/>
<path d="M48.3124 47.5114C48.3124 47.5114 46.7067 41.8244 42.3646 44.6656C39.148 46.768 33.4172 49.1851 30.1387 47.671V37.647C31.3881 38.6412 33.0557 39.2477 35.2862 38.9102C42.3594 37.8431 48.1523 37.4919 48.3124 38.9102C48.4724 40.3286 48.3124 47.5114 48.3124 47.5114Z" fill="#D85B5B"/>
<path d="M28.524 54.5171L45.3966 63.0635C45.3966 63.0635 48.1588 65.3392 51.4682 63.8205L54.8759 64.6232C54.8759 64.6232 55.6296 67.3458 50.4718 66.8761C45.314 66.4109 40.6879 64.7737 38.1736 63.0225C35.6592 61.2712 26.1387 56.4827 26.1387 56.4827L28.5291 54.5171H28.524Z" fill="#FC624E"/>
<path d="M31.4778 65.7491C30.5175 65.2794 29.9806 64.3308 30.1303 63.3686L34.8028 33.3011C34.999 32.015 35.8715 30.8886 37.1571 30.2684L56.4925 20.8874C58.2944 20.0163 60.53 20.2945 61.9808 21.5806L77.7382 35.4993L66.8339 30.5876L60.3648 26.661C58.9759 25.8173 57.1792 25.7079 55.6716 26.3782L43.3166 31.8691C41.9949 32.4574 41.0758 33.5656 40.8332 34.8517L35.3965 64.0709C35.0971 65.6807 33.0835 66.5381 31.4727 65.7491H31.4778Z" fill="#661A1A"/>
<path d="M73.8198 50.5227C73.4997 51.1794 73.066 51.8224 72.5343 52.4563C72.3277 52.7026 72.1057 52.9489 71.8682 53.1906C66.0495 56.2097 58.9866 59.8033 54.882 61.892C51.1389 61.9148 44.5251 59.8033 43.2343 58.9551C41.9281 58.0886 39.7441 53.56 39.7441 53.56L40.6425 53.0811L41.9229 52.4016C41.9229 52.4016 46.3941 54.1346 47.5919 54.0389C48.5006 53.9659 53.5242 50.6504 56.0385 48.6301C56.8388 47.9916 57.3809 47.4808 57.4584 47.2482C57.7836 46.286 64.3251 36.4627 65.4145 35.4046C66.5039 34.3466 69.994 31.8429 69.994 31.8429L73.4842 25.2939L77.2997 28.6642L77.2481 29.1795L77.1861 29.7861L76.835 33.3433L76.7524 34.155C76.7834 34.2234 76.8092 34.2964 76.8402 34.3648C80.5059 43.1347 76.6904 44.5849 73.8095 50.5273L73.8198 50.5227Z" fill="#FEC166"/>
<path d="M80.2485 48.7475C78.9681 49.468 76.8357 50.6173 74.2543 51.9672C73.3043 52.4506 71.8535 53.2213 71.8535 53.2213C71.8535 53.2213 72.5143 52.5144 72.5298 52.4551C72.8654 51.2192 76.495 37.6198 75.5605 33.6704L75.8858 33.862C75.8858 33.862 76.273 34.0353 76.8461 34.3591C77.0061 34.4503 77.1765 34.5506 77.3624 34.6646C78.9526 35.6406 81.2656 37.4328 81.3379 39.6401C81.4412 42.9237 81.5496 46.9415 80.2434 48.7475H80.2485Z" fill="#C65414"/>
<path d="M73.8198 50.5225C73.4997 51.1792 73.066 51.8222 72.5343 52.4562C72.3277 52.7024 72.1057 52.9487 71.8682 53.1904C66.0495 56.2095 58.9866 59.8031 54.882 61.8919C51.1389 61.9147 44.5251 59.8031 43.2343 58.9549C41.9281 58.0884 39.7441 53.5598 39.7441 53.5598L40.6425 53.0809C46.4818 60.4097 53.0233 54.4673 56.1521 54.0888C59.3119 53.7057 65.6365 46.0943 66.4006 44.5574C67.1647 43.0205 70.655 41.3787 71.8528 39.0665C73.0506 36.7543 74.6305 28.5317 74.6305 28.5317L77.2532 29.1839L77.3616 29.2112C77.3616 29.2112 77.2894 29.4347 77.1913 29.7904C76.9486 30.6889 76.5562 32.4082 76.8402 33.3476L76.7576 34.1594C76.7886 34.2278 76.8144 34.3008 76.8453 34.3692C80.5111 43.139 76.6956 44.5893 73.8147 50.5316L73.8198 50.5225Z" fill="#FF7E2B"/>
<path d="M73.4906 25.2883V27.117C73.4906 27.117 72.1844 32.6079 71.5287 32.8952C70.873 33.1825 68.4773 34.4366 67.1659 36.5527C65.8597 38.6733 64.5483 42.0436 63.5674 43.4847C62.5864 44.9304 57.0259 48.5879 56.5922 48.6837C56.5096 48.7019 56.3134 48.6745 56.0449 48.6198C56.8452 47.9813 57.3873 47.4706 57.4647 47.238C57.79 46.2757 64.3315 36.4524 65.4209 35.3943C66.5102 34.3363 70.0004 31.8326 70.0004 31.8326L73.4906 25.2837V25.2883Z" fill="#FEC166"/>
<path d="M77.0887 29.1651C77.771 28.7262 77.5486 27.4296 76.5918 26.2691C75.6351 25.1085 74.3065 24.5234 73.6241 24.9622C72.9418 25.4011 73.1642 26.6977 74.121 27.8583C75.0777 29.0189 76.4064 29.6039 77.0887 29.1651Z" fill="#913636"/>
<path d="M27.7376 39.879C28.8579 39.2816 38.6521 41.7534 40.8774 46.4325C43.1026 51.1116 44.3727 54.3906 45.5395 55.5125C46.7063 56.6343 46.8561 62.1571 44.8218 61.131C42.7876 60.1003 40.6656 56.7301 39.0754 56.7301C37.4852 56.7301 35.4717 58.3217 36.8502 60.944C38.2287 63.5663 43.4227 77.7951 40.9806 78.73C38.1771 79.8063 35.9983 77.7951 33.6698 70.1198C31.3361 62.4444 27.6291 54.6733 27.6291 54.6733C27.6291 54.6733 20.53 43.7236 27.7376 39.8836V39.879Z" fill="#34ADC1"/>
<path d="M25.3017 62.9046C25.3017 62.9046 30.9191 81.2515 32.721 82.4691C34.5228 83.6868 36.8514 83.6868 37.0682 81.9082C37.2851 80.1296 35.2508 70.4385 33.8775 67.2826C32.5093 64.1222 30.284 59.9539 29.649 59.3702C29.014 58.7864 24.455 55.138 25.3017 62.9046Z" fill="#34ADC1"/>
<path d="M20.3174 63.5608C20.3174 63.5608 25.9347 81.9077 27.7366 83.1254C29.5385 84.343 31.867 84.3431 32.0838 82.5645C32.3007 80.7859 30.2664 71.0948 28.8931 67.9389C27.5197 64.783 25.2997 60.6102 24.6646 60.0264C24.0296 59.4427 19.4706 55.7943 20.3174 63.5608Z" fill="#34ADC1"/>
<path d="M14.3857 61.2219C14.3857 61.2219 20.0031 79.5689 21.8049 80.7865C23.6068 82.0042 25.9353 82.0042 26.1522 80.2256C26.369 78.447 24.3348 68.7559 22.9614 65.6C21.5932 62.4396 19.368 58.2713 18.733 57.6876C18.0979 57.1038 13.539 53.4554 14.3857 61.2219Z" fill="#34ADC1"/>
<path d="M14.0664 60.3783C14.0664 60.3783 8.45935 26.854 36.1123 42.4464C36.1123 42.4464 37.909 56.9123 30.1749 61.3132C22.4407 65.7141 17.2468 70.4844 14.0664 60.3783Z" fill="#34ADC1"/>
<path d="M36.2077 76.6674C36.2077 76.6674 34.6536 73.0691 33.0893 68.9464C31.9431 65.9319 30.7711 61.6861 30.6523 61.3623" stroke="#206982" stroke-width="9" stroke-miterlimit="10" stroke-linecap="round"/>
<path d="M31.6071 81.3926C31.6071 81.3926 25.8865 68.8512 25.5664 65.855" stroke="#206982" stroke-width="9" stroke-miterlimit="10" stroke-linecap="round"/>
<path d="M25.8853 80.0827C25.8853 80.0827 22.1783 71.1897 21.6465 69.0371" stroke="#206982" stroke-width="9" stroke-miterlimit="10" stroke-linecap="round"/>
<path d="M34.9622 41.8709C25.292 38.1496 20.0464 40.4207 17.2119 44.2971C13.4687 49.4095 13.9385 57.3174 13.9747 57.8829C13.9747 57.9057 13.9747 57.9148 13.9747 57.9148H13.9695L4.89818 47.7905C4.89818 47.7905 2.56453 43.5766 4.78978 37.5886C5.81721 34.8204 7.71199 32.7727 9.97337 31.2906C13.6288 28.8917 18.2445 27.9705 21.745 27.8565C24.28 27.7744 28.9783 30.2553 30.1142 32.2574L34.9519 41.8755L34.9622 41.8709Z" fill="#65D5E0"/>
<path d="M17.2991 44.5066C17.2991 44.5066 14.2219 55.2785 13.9793 57.878C13.9793 57.8871 13.9793 57.8962 13.9793 57.9053L4.90795 47.7856C4.90795 47.7856 2.5743 43.5717 4.79955 37.5837C5.82698 34.8155 7.72175 32.7678 9.98314 31.2856C10.6337 33.3744 13.2874 41.5331 15.1306 42.5911C16.5659 43.4166 17.0513 44.0004 17.2165 44.2922C17.2939 44.4336 17.2991 44.5066 17.2991 44.5066Z" fill="#31A6BA"/>
<path d="M32.8238 42.7835C32.8238 42.7835 39.6131 43.7366 42.2618 49.3461C44.9052 54.9555 46.4954 56.4513 47.4506 57.1993C48.4057 57.9472 49.8359 60.5421 47.8998 61.7233C45.9636 62.9044 43.1498 62.0608 41.3221 59.5844C39.4996 57.1035 39.0762 56.2643 37.3776 57.1035C35.679 57.9426 32.0804 59.5388 30.8051 55.5119C29.535 51.4849 23.9177 42.6877 32.8186 42.7835H32.8238Z" fill="#34ADC1"/>
</svg>
