<svg width="142" height="122" viewBox="0 0 142 122" fill="none" xmlns="http://www.w3.org/2000/svg">
<path fill-rule="evenodd" clip-rule="evenodd" d="M71.4358 0.601343C86.2785 1.90217 98.9652 8.69367 110.911 16.119C122.685 23.4373 134.811 31.286 139.443 42.8727C144.091 54.4961 141.796 67.3692 135.889 78.5918C130.353 89.1101 118.626 95.6151 107.88 102.841C96.438 110.535 86.1273 121.096 71.4358 121.932C56.4358 122.786 42.4813 115.427 31.1701 107.206C20.5831 99.5119 13.941 88.9681 10.4973 77.6439C7.23247 66.908 9.9835 56.174 12.3367 45.275C15.1122 32.4201 13.7657 17.4187 25.3993 8.62465C37.2825 -0.357988 55.4511 -0.799574 71.4358 0.601343Z" fill="white" fill-opacity="0.32"/>
<path d="M89.7336 46.0969C89.7391 43.9718 87.8141 43.1165 85.4461 44.19C83.0836 45.2678 81.1422 47.9035 81.1367 50.0461C81.1367 51.2069 81.6125 52.0403 82.5805 52.5553L85.1508 53.5851L85.4789 52.3065L85.2547 52.0272C85.3094 52.0011 85.3695 51.9792 85.4242 51.9531C87.7868 50.8578 89.7282 48.2221 89.7336 46.0969Z" fill="#1C5360"/>
<path d="M79.2493 51.4456C79.2547 49.3204 77.3297 48.4651 74.9618 49.5386C72.5992 50.6165 70.6578 53.2522 70.6523 55.3948C70.6523 56.5555 71.1281 57.389 72.0961 57.9039L74.6665 58.9337L74.9946 57.6552L74.7704 57.3759C74.825 57.3497 74.8852 57.3279 74.9399 57.3017C77.3024 56.2064 79.2438 53.5707 79.2493 51.4456Z" fill="#1C5360"/>
<path d="M93.4434 19.6732V44.6077C93.4434 45.3888 93.0442 46.1262 92.3497 46.6499C92.1528 46.8026 91.934 46.9379 91.6934 47.0514L90.0692 47.815L89.1832 48.2339L87.1653 49.1852L83.9551 50.6994L81.7676 51.7293L81.6582 51.7816L78.9292 53.0689L77.3324 53.8239L73.5917 55.5868L70.9831 56.8174L55.222 64.2401C54.7736 64.4496 54.2814 64.5761 53.7837 64.6198C53.0673 64.6808 52.3291 64.563 51.6783 64.275L33.7625 56.2763C32.6359 55.7745 31.9414 54.8275 31.9414 53.7977V29.2822C31.9414 28.6975 32.1656 28.1389 32.5703 27.672C32.8601 27.3316 33.2484 27.0436 33.7078 26.8298L71.1144 9.39228C72.2191 8.87736 73.5862 8.87301 74.6909 9.38793L91.677 17.2252C92.0763 17.4085 92.4153 17.6485 92.6887 17.9278C92.8419 18.0805 92.9731 18.242 93.077 18.4165C93.3231 18.8049 93.4544 19.2369 93.4544 19.6863L93.4434 19.6732Z" fill="#43ABC4"/>
<path d="M77.6961 50.9468C75.3336 52.0247 73.3922 54.6604 73.3867 56.803C73.3813 58.9456 75.3063 59.8052 77.6743 58.7099C80.0368 57.6146 81.9782 54.9789 81.9837 52.8538C81.9891 50.7286 80.0641 49.8733 77.6961 50.9468Z" fill="#65CEE0"/>
<path d="M78.1505 53.2768C77.0403 53.783 76.1324 55.0179 76.127 56.0259C76.1215 57.0339 77.0294 57.4354 78.1395 56.9205C79.2497 56.4056 80.1575 55.1663 80.163 54.1713C80.1684 53.1764 79.2606 52.7706 78.1505 53.2768Z" fill="#1C5360"/>
<path d="M88.1844 45.6031C85.8219 46.6809 83.8805 49.3166 83.875 51.4592C83.8695 53.6018 85.7945 54.4615 88.1625 53.3662C90.525 52.2709 92.4665 49.6352 92.4719 47.51C92.4774 45.3849 90.5524 44.5296 88.1844 45.6031Z" fill="#65CEE0"/>
<path d="M88.6387 47.9328C87.5285 48.439 86.6207 49.674 86.6152 50.682C86.6152 51.69 87.5175 52.0915 88.6277 51.5766C89.7379 51.0616 90.6457 49.8223 90.6512 48.8274C90.6512 47.8281 89.7488 47.4266 88.6387 47.9328Z" fill="#1C5360"/>
<path d="M93.4418 21.9824V23.7585L51.2063 43.308L50.2383 41.9771L93.4418 21.9824Z" fill="#7BDEEF"/>
<path d="M93.4421 25.1152V26.7909L51.5675 46.1703L50.6543 44.9135L93.4421 25.1152Z" fill="#7BDEEF"/>
<path d="M93.4406 28.2441V29.8282L51.9269 49.0374L51.0684 47.8548L93.4406 28.2441Z" fill="#7BDEEF"/>
<path d="M93.441 31.377V32.8606L52.2937 51.904L51.4844 50.7956L93.441 31.377Z" fill="#7BDEEF"/>
<path d="M93.4437 34.5098V35.8931L52.6575 54.7706L51.9082 53.732L93.4437 34.5098Z" fill="#7BDEEF"/>
<path d="M93.4422 37.6445V38.9275L53.0168 57.6348L52.3223 56.6748L93.4422 37.6445Z" fill="#7BDEEF"/>
<path d="M93.4445 40.7764V41.9633L53.3856 60.5005L52.7402 59.6146L93.4445 40.7764Z" fill="#7BDEEF"/>
<path d="M92.4915 18.6744L48.9544 39.1578C48.7576 39.2495 48.5114 39.2538 48.3146 39.1665L32.2691 32.0711C32.0613 31.9795 31.9355 31.8093 31.9355 31.6216V29.2783C31.9355 28.6936 32.1597 28.135 32.5644 27.6681C32.8543 27.3277 33.2426 27.0397 33.702 26.8259L71.1085 9.38838C72.2132 8.87346 73.5804 8.86909 74.6851 9.38401L91.6712 17.2213C92.0704 17.4046 92.4095 17.6446 92.6829 17.9239C92.6829 17.9239 92.6829 17.9238 92.6829 17.9282C92.9235 18.1682 92.8251 18.526 92.497 18.6831L92.4915 18.6744Z" fill="#7BDEEF"/>
<path d="M53.772 37.1591V64.6158C53.0556 64.6768 52.3173 64.559 51.6665 64.271L33.7508 56.2723C32.6242 55.7705 31.9297 54.8235 31.9297 53.7937V29.2782C31.9297 28.6934 32.1539 28.1349 32.5586 27.668L51.3876 34.2441C52.8369 34.7503 53.772 35.8936 53.772 37.1591Z" fill="#2E7C89"/>
<path d="M46.845 64.2883C46.8504 62.1632 44.9254 61.3079 42.5575 62.3814C40.1949 63.4592 38.2535 66.0949 38.248 68.2375C38.248 69.3983 38.7238 70.2317 39.6918 70.7467L42.2622 71.7765L42.5903 70.4979L42.3661 70.2187C42.4208 70.1925 42.4809 70.1706 42.5356 70.1445C44.8981 69.0492 46.8395 66.4135 46.845 64.2883Z" fill="#1C5360"/>
<path d="M51.494 51.2889V62.1546C51.494 62.7437 51.0948 63.2848 50.455 63.5728L33.6658 71.1352C33.3212 71.2923 32.9275 71.3621 32.5447 71.3403C32.233 71.3272 31.9212 71.253 31.6423 71.1265L19.775 65.6456C19.1461 65.3532 18.7578 64.8165 18.7578 64.2361V57.7996C18.7578 57.2323 19.1297 56.7087 19.7313 56.4119L22.8758 54.8759C23.1493 54.7406 23.3789 54.5617 23.543 54.3435L28.0001 48.5878C28.0602 48.5048 28.1313 48.4307 28.2134 48.3608C28.3501 48.2387 28.5032 48.1339 28.6837 48.051L36.4385 44.32C37.0783 44.0146 37.8767 44.0058 38.522 44.3069L50.2034 49.7529L50.4823 49.8838C50.4823 49.8838 50.5042 49.8925 50.5151 49.9012C51.1222 50.198 51.494 50.7216 51.494 51.2933V51.2889Z" fill="#8BE9F2"/>
<path d="M45.2918 63.7945C42.9293 64.8723 40.9879 67.508 40.9824 69.6506C40.977 71.7932 42.902 72.6529 45.27 71.5576C47.6325 70.4623 49.5739 67.8266 49.5794 65.7014C49.5848 63.5763 47.6598 62.721 45.2918 63.7945Z" fill="#65CEE0"/>
<path d="M45.7462 66.1252C44.636 66.6314 43.7281 67.8664 43.7227 68.8744C43.7227 69.8824 44.625 70.2839 45.7352 69.7689C46.8454 69.254 47.7532 68.0147 47.7586 67.0198C47.7586 66.0205 46.8563 65.619 45.7462 66.1252Z" fill="#1C5360"/>
<path d="M51.4944 51.2893L51.5218 55.5832L33.9451 63.2939C32.906 63.7521 32.2771 64.638 32.3154 65.5849L32.5505 71.3407C32.2388 71.3276 31.9271 71.2534 31.6482 71.1269L19.7809 65.646C19.1519 65.3536 18.7637 64.8169 18.7637 64.2365V57.8C18.7637 57.2327 19.1356 56.7091 19.7371 56.4123L22.8817 54.8763C23.1551 54.741 23.3848 54.5621 23.5489 54.3439L28.2357 48.2783L40.6006 53.5323L50.2038 49.7533L50.4827 49.8842C50.4827 49.8842 50.5046 49.8929 50.5155 49.9016C51.1226 50.1984 51.4944 50.722 51.4944 51.2937V51.2893Z" fill="#43ABC4"/>
<path d="M38.1723 55.5528L34.6997 60.0823C34.3333 60.5624 33.5512 60.7195 32.9442 60.4358L30.3903 59.2489L26.2996 57.3507L25.3645 56.9143C24.741 56.6263 24.5332 55.9892 24.8996 55.4961L28.2629 50.9665C28.6238 50.4821 29.4059 50.3163 30.0239 50.5956L30.7567 50.9316L34.7489 52.76L37.7075 54.1128C38.3419 54.4008 38.5497 55.051 38.1669 55.5484L38.1723 55.5528Z" fill="#1C5360"/>
<path opacity="0.4" d="M31.1225 59.0443C30.7998 59.1054 30.5592 59.1753 30.3951 59.2538L26.3045 57.3556C25.96 56.2777 29.8756 56.6007 32.4077 56.4785C35.1366 56.3519 31.1225 53.6595 30.6413 51.6085C30.5592 51.2682 30.6139 51.0543 30.7616 50.9365L34.7537 52.7649C34.4858 52.7955 34.1686 52.8697 33.8515 53.018C33.0475 53.402 34.8139 54.4275 35.4592 56.221C36.0991 58.0145 33.8514 58.5294 31.1225 59.04V59.0443Z" fill="#65CEE0"/>
<path d="M46.9618 52.9654L46.5517 56.5131C46.5407 56.6048 46.4751 56.6877 46.3711 56.7313L44.1125 57.7175L40.8532 59.1445L37.6594 60.5409C37.3477 60.6762 37.0141 60.3969 37.2 60.1569L37.818 59.3539L38.6383 58.2848L39.0813 57.7088L40.6782 55.6317L40.8969 55.348C40.979 55.2389 41.0719 55.1386 41.1758 55.0426C41.3016 54.9204 41.4493 54.8069 41.6079 54.7109C41.7664 54.6105 41.936 54.5233 42.1165 54.4491L43.0352 54.0782L44.7524 53.3843L46.4587 52.6992C46.6993 52.6032 46.9837 52.756 46.9563 52.9698L46.9618 52.9654Z" fill="#1C5360"/>
<path opacity="0.4" d="M44.1203 57.7165L40.8609 59.1434C40.8609 59.1434 40.8282 59.1347 40.8117 59.1259C38.7719 58.4408 44.1368 56.4815 44.7766 55.456C45.411 54.448 43.7047 54.6793 43.043 54.0727L44.7602 53.3789C44.5797 53.5578 44.454 53.7105 44.454 53.7847C44.454 54.0422 46.0618 54.1687 46.543 54.8102C46.9915 55.408 44.9352 56.5601 44.1149 57.7121L44.1203 57.7165Z" fill="#65CEE0"/>
<path opacity="0.4" d="M43.1711 55.5841C42.8813 56.1645 40.0156 57.0067 39.0859 57.7049L40.6828 55.6278C41.525 55.5754 41.6234 55.4794 41.1805 55.0387C41.3062 54.9165 41.4539 54.803 41.6125 54.707C41.6125 54.707 41.6235 54.7114 41.6289 54.7158C42.2086 55.0736 43.4938 54.9427 43.1711 55.5841Z" fill="#65CEE0"/>
<path d="M50.1595 50.0409L41.7485 53.3966C40.9337 53.7239 39.9657 53.7021 39.1673 53.3399L28.2188 48.3608C28.3555 48.2387 28.5086 48.1339 28.6891 48.051L36.4438 44.32C37.0837 44.0146 37.8821 44.0058 38.5274 44.3069L50.176 49.7398L50.165 50.0409H50.1595Z" fill="#B4F6F9"/>
<path d="M0.0109483 84.3745V99.2287C0.0109483 99.5952 0.257001 99.9356 0.650755 100.119L6.52971 102.859C6.76487 102.968 7.03833 103.016 7.30083 102.995C7.49224 102.982 7.67818 102.934 7.84771 102.851L13.5243 100.119C13.9126 99.9313 14.1478 99.5952 14.1478 99.2374V84.3658C14.1478 83.9992 13.9071 83.6632 13.5079 83.4756L12.4852 82.9956L7.82581 80.8137C7.42659 80.6261 6.9344 80.6261 6.52971 80.805L0.650755 83.4756C0.246064 83.6589 0 83.9992 0 84.3702L0.0109483 84.3745Z" fill="#1C5360"/>
<path d="M7.3004 87.3899V102.999C7.4918 102.986 7.67774 102.938 7.84728 102.855L13.5239 100.123C13.9122 99.9357 14.1473 99.5997 14.1473 99.2418V84.3702C14.1473 84.0037 13.9067 83.6676 13.5075 83.48L12.4848 83L7.29492 87.3899H7.3004Z" fill="#266E84"/>
<path d="M12.4855 82.9829L7.83698 80.8141C7.43775 80.6265 6.94557 80.6265 6.54635 80.8098L2.08379 82.8433C1.21426 83.2404 1.21426 84.2353 2.08379 84.6324L6.87446 86.8274C7.27915 87.015 7.77682 87.0106 8.18151 86.8186L12.5019 84.759C13.3441 84.3575 13.3386 83.38 12.4909 82.9829H12.4855Z" fill="#43ABC4"/>
<path d="M10.5078 39.5359V50.6023C10.5078 50.6503 10.5078 50.6939 10.5188 50.7376C10.5188 50.755 10.5188 50.7681 10.5242 50.7856C10.5899 51.1565 10.8414 51.4881 11.2133 51.6802L16.3813 54.3289L17.1415 54.7173C17.4422 54.8744 17.7977 54.9224 18.1313 54.8657C18.2899 54.8395 18.4485 54.7871 18.5962 54.713L22.1837 52.8453C22.6157 52.6184 22.8837 52.2125 22.8837 51.7674V40.6486C22.8837 40.1992 22.6048 39.7846 22.1618 39.5621L16.1735 36.5773C15.725 36.3547 15.1727 36.3591 14.7297 36.5947L11.2024 38.458C10.7758 38.6849 10.5133 39.0908 10.5133 39.5315L10.5078 39.5359Z" fill="#3A96A5"/>
<path d="M10.5254 50.7855C10.591 51.1564 10.8426 51.488 11.2145 51.68L16.3824 54.3288L17.1426 54.7172C17.4434 54.8743 17.7989 54.9223 18.1325 54.8656V42.6384C18.1325 42.4202 17.9903 42.2195 17.7551 42.1104L11.7723 39.3045C11.2637 39.0645 10.6238 39.3568 10.6183 39.8281L10.5254 50.7811V50.7855Z" fill="#1C5360"/>
<path d="M7.41677 83.684C8.14959 83.684 8.74024 83.2083 8.74024 82.628V32.4493L34.4764 44.4845C35.1107 44.7813 35.9202 44.6111 36.292 44.1049C36.6639 43.5987 36.4506 42.9528 35.8163 42.6561L9.72465 30.4551C8.96449 30.1016 8.05664 30.1016 7.30195 30.4507C6.54178 30.7998 6.08789 31.4238 6.08789 32.122V82.628C6.08789 83.2127 6.68395 83.684 7.4113 83.684H7.41677Z" fill="#1C5360"/>
<path d="M20.457 44.6511V55.7175C20.457 55.7655 20.457 55.8092 20.4679 55.8528C20.4679 55.8703 20.4679 55.8834 20.4734 55.9008C20.539 56.2717 20.7906 56.6034 21.1625 56.7954L26.3305 59.4442L27.0907 59.8325C27.3915 59.9896 27.7469 60.0377 28.0805 59.9809C28.2391 59.9547 28.3977 59.9024 28.5453 59.8282L32.1329 57.9605C32.5649 57.7336 32.8329 57.3278 32.8329 56.8827V45.7639C32.8329 45.3144 32.554 44.8998 32.111 44.6773L26.1227 41.6925C25.6743 41.4699 25.1219 41.4743 24.6789 41.7099L21.1515 43.5733C20.7249 43.8002 20.4624 44.206 20.4624 44.6467L20.457 44.6511Z" fill="#3A96A5"/>
<path d="M20.4727 55.9007C20.5383 56.2716 20.7899 56.6033 21.1617 56.7953L26.3298 59.4441L27.09 59.8324C27.3907 59.9895 27.7462 60.0375 28.0798 59.9808V47.7536C28.0798 47.5354 27.9376 47.3347 27.7025 47.2256L21.7196 44.4197C21.211 44.1797 20.5711 44.4721 20.5656 44.9434L20.4727 55.8964V55.9007Z" fill="#1C5360"/>
<path d="M27.2453 45.2435C27.8852 45.2435 28.4047 44.829 28.4047 44.3184V40.6136C28.4047 40.103 27.8852 39.6885 27.2453 39.6885C26.6055 39.6885 26.0859 40.103 26.0859 40.6136V44.3184C26.0859 44.829 26.6055 45.2435 27.2453 45.2435Z" fill="#1C5360"/>
<path d="M16.8625 39.8685C17.5024 39.8685 18.0219 39.454 18.0219 38.9434V35.2386C18.0219 34.728 17.5024 34.3135 16.8625 34.3135C16.2227 34.3135 15.7031 34.728 15.7031 35.2386V38.9434C15.7031 39.454 16.2227 39.8685 16.8625 39.8685Z" fill="#1C5360"/>
<path d="M66.075 72.0317C66.075 72.0317 66.5672 72.8564 65.8562 74.0739C65.1453 75.2914 63.6523 75.0514 62.5695 76.5787C61.4866 78.106 59.3429 81.8937 58.2929 82.9716C57.2429 84.0494 52.5397 87.6626 49.1436 86.5193C45.7475 85.376 42.1982 83.6872 44.9873 81.405C47.7764 79.1271 50.5163 79.1664 51.0632 77.674C51.61 76.1816 51.3092 74.4012 53.5459 74.0259C53.5459 74.0259 57.5108 71.3989 61.0109 69.8673C61.6671 69.5792 62.3015 69.3305 62.8976 69.1429C62.9469 69.1254 63.0015 69.1123 63.0507 69.0949C64.0406 68.7981 64.8937 68.689 65.4679 68.881C66.1242 69.1036 66.4852 69.4221 66.6547 69.7712C67.1414 70.7705 66.0804 72.0317 66.0804 72.0317H66.075Z" fill="#1C5360"/>
<path d="M66.6477 69.7756C65.8001 71.4644 62.2235 73.4542 62.2235 73.4542L61.0039 69.8673C61.6602 69.5792 62.2946 69.3305 62.8907 69.1429L62.9618 69.1341C62.9618 69.1341 62.9891 69.121 63.0438 69.0949C64.0337 68.7981 64.8868 68.689 65.461 68.881C66.1172 69.1036 66.4782 69.4221 66.6477 69.7712V69.7756Z" fill="#2F7C89"/>
<path d="M65.8547 61.2646L66.2977 66.6146C66.3524 67.2866 65.9915 67.9368 65.3297 68.3514L61.8024 70.4896L58.7617 61.509L65.8547 61.2646Z" fill="#43ABC4"/>
<path d="M66.911 65.6158C66.9274 65.7773 66.7688 65.917 66.561 65.9126C66.4735 65.9126 66.3969 65.8864 66.3368 65.8428C66.2766 65.7991 66.2383 65.738 66.2274 65.6682L66.2 65.4675L65.7462 61.8369C65.7188 61.575 65.3469 61.4354 65.0735 61.5794L63.8922 62.2078C63.5914 62.3649 63.3837 62.6092 63.3071 62.8885L63.0719 63.7438L63.0555 63.8136L62.8586 63.7133L61.2726 62.8929L60.9445 62.7227L59.3532 61.8979L58.8883 61.6579L58.8117 61.6187L58.3196 61.3656L58.243 61.3263L56.9469 60.6543L56.8047 60.5801L57.007 60.4186L57.0289 60.4012L58.1883 59.4804L58.2867 59.4019L58.5656 59.1793L58.6422 59.1182L58.7133 59.0659L60.1133 57.9531C60.1133 57.9531 60.1734 57.9619 60.2445 57.988C60.4359 58.0579 60.8242 58.2193 61.311 58.4288C61.6938 58.599 62.1477 58.7953 62.6125 59.0092C64.0344 59.6463 65.6313 60.3837 66.1837 60.6368C66.304 60.6936 66.386 60.7939 66.3969 60.9074L66.9055 65.6202L66.911 65.6158Z" fill="#1C5360"/>
<path d="M52.2756 69.5042C52.2756 69.5042 51.7287 70.9966 50.3341 71.9304C48.9396 72.8642 46.506 74.7407 47.1185 77.7516L47.2662 78.8469C47.2662 78.8469 48.0591 81.4521 52.7404 78.7946C52.7404 78.7946 54.0365 74.7188 54.7366 74.0468C55.4366 73.3748 59.56 72.6199 59.7788 70.5733C59.9975 68.5311 59.6858 67.1609 57.471 66.9907C55.2506 66.8205 52.6365 68.8278 52.2811 69.5042H52.2756Z" fill="#1C5360"/>
<path d="M47.7703 79.262C47.7703 79.262 45.878 79.7813 45.3421 80.5886C44.8116 81.4002 44.7952 82.081 44.9648 82.0853C45.1343 82.0897 45.4515 83.185 47.1687 82.801C48.8859 82.417 50.45 81.4875 51.1336 81.4962C51.8172 81.5049 52.1671 81.1035 52.1835 80.4184C52.1999 79.7333 52.0578 78.507 51.3742 78.494C50.6906 78.4809 48.8312 77.499 47.7648 79.2576L47.7703 79.262Z" fill="#1C5360"/>
<path d="M51.5207 80.9112C51.5207 80.9112 49.727 81.8319 49.2348 82.7876C48.7426 83.7433 48.7316 84.4633 48.8956 84.4327C49.0597 84.4022 49.3715 85.4888 51.0012 84.7469C52.6309 84.0051 54.102 82.7134 54.7473 82.5912C55.3926 82.4691 55.7262 81.9716 55.7316 81.2516C55.7371 80.5315 55.5895 79.2661 54.9387 79.3926C54.2879 79.5192 52.5105 78.8515 51.5207 80.9112Z" fill="#FC624E"/>
<path d="M55.315 71.1882C55.315 71.1882 54.768 72.6806 53.3735 73.6145C51.9844 74.5483 49.2008 76.416 49.8133 79.4313L49.9665 80.2517C49.9665 80.2517 50.6173 82.8743 54.2868 81.3121C54.9868 81.0154 55.5173 80.5048 55.7579 79.8983C56.272 78.6022 57.2673 76.2109 57.7704 75.7265C58.4704 75.0545 62.5939 74.2996 62.8126 72.253C63.0314 70.2108 62.7197 68.8405 60.5048 68.6704C58.2845 68.5002 55.6704 70.5075 55.315 71.1839V71.1882Z" fill="#53D0E5"/>
<path d="M56.1735 60.3927C56.3977 60.8378 56.343 61.3397 56.0204 61.7455L54.4837 63.6568C53.7454 64.5776 52.7665 65.3587 51.6016 65.9478L49.3102 67.1173C48.4461 67.558 47.2922 67.3704 46.718 66.6983C46.1328 66.0132 46.368 65.0881 47.2485 64.6387L48.7469 63.8706C49.8626 63.299 50.8087 62.5528 51.536 61.6757L52.8758 60.0524C53.7618 59.1142 55.6212 59.3062 56.1735 60.3927Z" fill="#F23E30"/>
<path d="M55.6836 57.3291C55.6836 57.3291 52.8617 58.4026 52.7304 60.9728C52.5991 63.5431 54.7429 65.0442 54.7429 65.0442C54.7429 65.0442 52.5937 59.5764 57.5649 58.1844L55.6836 57.3291Z" fill="#1C5360"/>
<path d="M53.6907 60.7109C53.6907 60.7109 53.1602 61.5225 53.461 63.2986C53.7618 65.079 54.0844 65.8994 53.8985 66.5801C53.7125 67.2609 52.4602 69.4253 53.2969 70.2544C54.1337 71.0835 60.0837 73.3657 62.5829 69.7089C63.7533 67.994 63.9502 65.9692 62.7634 61.6971C62.5119 60.7894 61.1501 60.3531 60.0782 59.9822C58.1587 59.3189 54.7188 58.4941 53.6961 60.7065L53.6907 60.7109Z" fill="#FC624E"/>
<path d="M56.3544 61.4492C56.3544 61.4492 55.5501 63.0551 55.8182 64.2377C56.0863 65.4202 56.0863 68.2043 55.6814 68.8458C55.2765 69.4872 54.7402 70.9884 54.7402 70.9884" stroke="#FFD6D6" stroke-width="4" stroke-miterlimit="10" stroke-linecap="round"/>
<path d="M64.2227 80.6702C64.2227 80.6702 61.0344 80.8491 60.4219 79.601L62.2102 76.2061L64.2172 80.6745L64.2227 80.6702Z" fill="#1C5360"/>
<path d="M68.7115 74.8928L68.7443 75.9793C68.7771 77.0354 68.2794 78.2179 67.4099 79.1518C65.206 81.5169 62.0067 81.1024 61.8864 78.4405L61.8372 77.3714C61.7879 76.2761 62.313 75.0455 63.2317 74.0898L63.2482 74.0724C65.4794 71.7552 68.6349 72.2309 68.7169 74.8928H68.7115Z" fill="#98EBF4"/>
<path d="M67.4936 75.8606L67.51 76.3449C67.5264 76.8162 67.3022 77.3399 66.9139 77.7588C65.935 78.8105 64.5077 78.6272 64.453 77.4402L64.4311 76.9646C64.4092 76.4758 64.6444 75.9304 65.0545 75.5027V75.494C66.0553 74.4642 67.4608 74.6736 67.4936 75.8606Z" fill="#1C5360"/>
<path d="M58.875 54.1481L58.7492 54.807L58.4211 56.5438L58.3938 56.5743L58.0493 56.906L57.9727 56.9802V56.9889L57.7375 57.2158L57.1305 57.8049L57.125 57.8093L56.9992 57.9314L56.8461 58.0798L56.0859 58.826L56.0586 58.8522L56.0203 58.8915L55.9711 58.9438L55.6266 59.2798L55.5172 59.3889C55.5172 59.3889 55.5008 59.3889 55.4679 59.3889H55.4297C55.3094 59.3889 55.0742 59.3715 54.8281 59.2798C54.7735 59.2624 54.7242 59.2362 54.6695 59.2144C54.6312 59.1969 54.593 59.1751 54.5547 59.1533C54.5383 59.1446 54.5218 59.1358 54.5109 59.1227C54.3031 58.9831 54.1117 58.7649 53.9969 58.4376C53.8492 58.0144 53.8328 57.4034 54.0734 56.5263C54.1774 56.1554 54.325 55.8368 54.5054 55.5663C55.7359 53.7597 58.4922 54.0957 58.8532 54.1481C58.875 54.1481 58.8859 54.1524 58.8859 54.1524L58.875 54.1481Z" fill="#43ABC4"/>
<path d="M55.7058 58.7159C55.6949 59.0127 55.6839 59.1611 55.6128 59.2701C55.5854 59.3094 55.5526 59.3443 55.5034 59.3792C55.5034 59.3792 54.9562 59.4229 54.4966 59.113C54.6224 58.6461 54.4473 57.577 54.4473 57.577C54.4473 57.577 54.4473 57.577 54.4582 57.5639C54.4856 57.5334 54.5731 57.4461 54.7263 57.3326C54.7263 57.3326 54.7318 57.3283 54.7373 57.3239C54.8084 57.2715 54.9179 57.2628 55.0273 57.2759C55.2243 57.2934 55.4213 57.3675 55.4213 57.3675C55.4213 57.3675 55.5034 57.6207 55.58 57.9218C55.6511 58.201 55.7223 58.5239 55.7113 58.7159H55.7058Z" fill="#1C5360"/>
<path d="M58.883 59.4978C58.6697 60.292 57.9807 61.3524 56.3838 61.2956C54.7869 61.2389 54.7814 59.8905 54.8252 58.9523C54.8307 58.8301 54.8252 58.7079 54.8252 58.5945C54.8143 58.3719 54.7814 58.1668 54.7486 57.9923C54.683 57.6781 54.765 57.3639 54.9783 57.0977C55.0549 56.9974 55.1588 56.9057 55.2736 56.8272L56.5588 55.9326C56.5588 55.9326 57.0674 56.4868 58.4565 57.2025C59.8455 57.9225 59.1017 58.6992 58.8885 59.4934L58.883 59.4978Z" fill="#F4CAAE"/>
<path d="M56.2676 58.3281L56.0706 59.3798C56.0542 59.4583 56.1307 59.5282 56.2347 59.5325L56.5685 59.5456" stroke="#2F7C89" stroke-miterlimit="10"/>
<path d="M55.5645 59.9814L55.7724 60.0687C56.0733 60.1953 56.4345 60.2084 56.7464 60.1036L56.9598 60.0294" stroke="#2F7C89" stroke-miterlimit="10"/>
<path d="M61.4918 58.2537C61.273 58.7818 60.934 59.1963 60.5676 59.5018C60.5184 59.5411 60.491 59.5629 60.491 59.5629C60.4746 59.576 60.4582 59.589 60.4364 59.6021L60.3816 59.6414C60.1847 59.7811 59.9879 59.8902 59.802 59.9687C59.7746 59.9774 59.7473 59.9905 59.7254 59.9992C59.6433 60.0298 59.5613 60.056 59.4793 60.0734C59.4574 60.0778 59.441 60.0822 59.4192 60.0865C59.2934 60.1127 59.1731 60.1214 59.0692 60.1083C59.0473 60.1083 59.0254 60.1083 59.0035 60.0996C59.0035 60.0996 58.998 60.0996 58.9926 60.0996C58.9707 60.0996 58.9543 60.0909 58.9324 60.0865C58.9106 60.0822 58.8942 60.0778 58.8723 60.0691C58.8559 60.0647 58.8394 60.056 58.8285 60.0472C58.7902 60.0298 58.7574 60.0036 58.7301 59.9774C58.7192 59.9687 58.7082 59.9556 58.6972 59.9425C58.6863 59.9294 58.6809 59.9163 58.6699 59.9032C58.6699 59.9032 58.6699 59.9032 58.6699 59.8989C58.6699 59.8902 58.659 59.8814 58.659 59.8727C58.659 59.864 58.6535 59.8596 58.6535 59.8509C58.6535 59.8378 58.6426 59.8247 58.6426 59.8116C58.6426 59.8029 58.6426 59.7941 58.6426 59.781C58.6426 59.7723 58.6426 59.7636 58.6426 59.7505C58.6426 59.7374 58.6426 59.72 58.6426 59.7069C58.6426 59.6851 58.6426 59.6589 58.6426 59.6327C58.6426 59.5978 58.648 59.5629 58.6535 59.528C58.6535 59.4974 58.659 59.4669 58.6645 59.4363C58.6645 59.4014 58.6699 59.3621 58.6753 59.3272C58.6753 59.2923 58.6754 59.2618 58.6808 59.2312C58.6808 59.1658 58.6863 59.1047 58.6918 59.0436C58.7027 58.7643 58.6918 58.5112 58.659 58.293C58.6535 58.2363 58.6426 58.1796 58.6316 58.1272C58.6152 58.0443 58.5988 57.9657 58.5769 57.8916C58.5715 57.861 58.5605 57.8305 58.5496 57.7999C58.5386 57.7694 58.5332 57.7388 58.5223 57.7126C58.5113 57.6865 58.5058 57.6603 58.4949 57.6341C58.473 57.5774 58.4457 57.5294 58.4238 57.4814C58.4238 57.477 58.4238 57.4726 58.4183 57.4683C58.4074 57.4421 58.391 57.4203 58.3801 57.3985C58.3691 57.381 58.3582 57.3592 58.3418 57.3417C58.3418 57.3374 58.3363 57.3286 58.3308 57.3243C58.3253 57.3155 58.3199 57.3068 58.309 57.2937C58.298 57.2763 58.2816 57.2545 58.2652 57.237C58.2324 57.1934 58.1941 57.1584 58.1613 57.1235C58.1449 57.1061 58.123 57.0886 58.1012 57.0755C58.0793 57.0581 58.0629 57.045 58.041 57.0319C58.0246 57.0232 58.0082 57.0101 57.9917 57.0013C57.9917 57.0013 57.9863 57.0013 57.9809 56.997C57.9754 56.997 57.9644 56.9883 57.959 56.9839C57.8551 56.9315 57.7511 56.9097 57.6582 56.9097C57.6199 56.9097 57.5871 56.9097 57.5543 56.9228C57.4066 56.9534 57.2481 56.9359 57.0949 56.8879C56.7012 56.7701 56.3511 56.4777 56.3511 56.4777C56.3511 56.4777 56.3457 56.4166 56.3457 56.3206C56.3457 56.277 56.3457 56.2246 56.3457 56.1635C56.3457 56.1417 56.3457 56.1155 56.3457 56.0893C56.3512 56.0064 56.3621 55.9104 56.3785 55.81C56.4441 55.4479 56.6027 55.0115 56.9746 54.6755C57.3027 54.3787 57.8003 54.1606 58.5441 54.1475C58.648 54.1475 58.7519 54.1475 58.8504 54.1518C60.5238 54.2609 61.5902 55.5177 61.716 56.8835C61.7598 57.3461 61.6887 57.8174 61.5027 58.2668L61.4918 58.2537Z" fill="#43ABC4"/>
<path d="M60.2466 58.7423C60.254 58.5206 60.1031 58.3377 59.9098 58.3336C59.7164 58.3296 59.5538 58.5059 59.5465 58.7276C59.5391 58.9492 59.6899 59.1322 59.8833 59.1363C60.0766 59.1403 60.2393 58.9639 60.2466 58.7423Z" fill="#1C5360"/>
<path d="M60.4918 59.5578C59.9887 59.9505 59.4418 60.1381 59.07 60.1032C58.7801 60.077 58.5996 59.9199 58.6379 59.6232C58.8457 57.9955 58.4027 57.2013 57.9434 56.97C58.2113 56.7955 58.4191 56.6689 58.4191 56.6689L58.9989 57.0922C58.9989 57.0922 59.1574 58.349 59.0481 59.2828C59.0098 59.6058 59.3707 59.8894 59.7863 59.837C59.9887 59.8108 60.2293 59.7279 60.4973 59.5578H60.4918Z" fill="#1C5360"/>
<path d="M55.3614 58.9784H55.2301C55.0987 58.9697 54.9947 58.8868 55.0002 58.7864L55.044 57.8002C55.044 57.7042 55.1589 57.6257 55.2902 57.6301H55.4216C55.5529 57.6388 55.6569 57.7217 55.6514 57.8221L55.6076 58.8083C55.6076 58.9043 55.4927 58.9828 55.3614 58.9784Z" fill="#2F7C89"/>
<path d="M57.3633 59.1435H57.232C57.1007 59.1348 56.9967 59.0518 57.0022 58.9515L57.0459 57.9653C57.0459 57.8693 57.1609 57.7907 57.2922 57.7951H57.4235C57.5548 57.8038 57.6588 57.8867 57.6533 57.9871L57.6095 58.9733C57.6095 59.0693 57.4947 59.1479 57.3633 59.1435Z" fill="#2F7C89"/>
<g style="mix-blend-mode:multiply" opacity="0.58">
<path d="M58.726 57.6206C58.726 57.6206 57.6267 58.7857 55.8767 58.8599C55.3572 58.8817 55.0291 58.7682 54.8213 58.598C54.8103 58.3755 54.783 58.1704 54.7447 57.9958C54.6791 57.6817 54.7611 57.3675 54.9744 57.1013C56.2924 56.3682 58.726 57.6206 58.726 57.6206Z" fill="#F78161"/>
</g>
<path d="M58.7899 57.8089C58.4235 57.9398 57.9422 58.0401 57.3899 58.0707C56.6242 58.1143 55.7219 58.027 54.7867 57.6998C54.5297 57.6125 54.3438 57.5165 54.2125 57.4205C53.3047 56.7572 55.0711 55.9717 55.0711 55.9717C55.2899 55.9019 55.4977 55.8583 55.7 55.8277C56.2633 55.7448 56.7665 55.8059 57.204 55.9412C58.0571 56.2074 58.6696 56.7616 59.0141 57.1412C59.2164 57.3725 59.118 57.691 58.7899 57.8045V57.8089Z" fill="#98EBF4"/>
<path d="M57.3101 57.9703C57.3484 58.0096 57.3703 58.0401 57.3922 58.0707C56.6265 58.1143 55.7242 58.027 54.789 57.6998C54.532 57.6125 54.3461 57.5165 54.2148 57.4205C54.4609 57.3812 54.893 57.307 55.2485 57.2285C55.7789 57.115 54.9148 56.8139 54.9367 56.4124C54.9586 56.011 56.1562 56.4561 56.3695 56.2815C56.4898 56.1812 56.0797 55.9804 55.7023 55.8277C56.2656 55.7448 56.7688 55.8059 57.2063 55.9412C57.2336 55.9979 57.2883 56.0503 57.3922 56.0983C57.7367 56.2423 57.9172 56.1157 58.0703 56.5259C58.2234 56.9361 56.8344 56.8837 56.1344 56.8576C55.4344 56.8314 56.6375 57.2765 57.3101 57.9703Z" fill="#C5FCFF"/>
<path d="M48.1035 65.209C48.1035 65.209 49.0994 66.4527 48.2348 66.8498C47.6056 67.1378 47.0255 67.3778 46.8614 66.9676C46.7465 66.6752 47.3867 66.5661 47.5563 66.4309C47.7259 66.2956 46.7355 65.0519 48.098 65.209H48.1035Z" fill="#F4CAAE"/>
<path d="M46.2499 65.3418C48.0656 66.1709 53.4468 68.7761 55.3226 69.6837C55.6726 69.8539 55.7711 70.2292 55.5304 70.4954L55.3281 70.7179C55.1148 70.9536 54.7102 71.019 54.3984 70.8707L52.9109 70.1681C52.6758 70.0547 52.375 70.0634 52.1508 70.1899L51.0953 70.7703C50.696 70.9929 50.2148 71.1107 49.7281 71.1063H48.6562C47.6718 71.0976 46.7913 70.6088 46.4468 69.8757L46.3101 69.5877C46.1241 69.195 46.1077 68.763 46.2609 68.3615L46.3648 68.0953C46.5398 67.6415 46.4086 67.1484 46.0148 66.7906L45.3749 66.2102C45.1726 66.0269 45.1398 65.7564 45.3038 65.5469C45.5007 65.2851 45.9218 65.1978 46.2554 65.3505L46.2499 65.3418Z" fill="#43ABC4"/>
<path d="M44.8904 65.4192C44.8904 65.4192 44.0149 66.2265 44.688 66.7807C45.361 67.3349 45.2023 66.6542 45.2023 66.6542L45.5689 65.7029L45.7441 65.4323C45.7441 65.4323 45.2406 65.0134 44.8904 65.4192Z" fill="#F78161"/>
<path d="M45.0545 65.6946C45.0545 65.6946 44.179 66.5019 44.852 67.0561C45.5251 67.6103 45.3664 66.9295 45.3664 66.9295L45.733 65.9783L45.9081 65.7077C45.9081 65.7077 45.4047 65.2888 45.0545 65.6946Z" fill="#F78161"/>
<path d="M45.5643 65.9778C45.5643 65.9778 44.6887 66.7851 45.3618 67.3393C46.0348 67.8935 45.8762 67.2127 45.8762 67.2127L46.2428 66.2615L46.4179 65.9909C46.4179 65.9909 45.9145 65.572 45.5643 65.9778Z" fill="#F78161"/>
<path d="M45.2407 65.1533C45.2407 65.1533 46.9853 63.6784 47.9861 64.7868C49.2384 66.1744 47.2641 66.4144 46.9196 66.5454C46.5751 66.6763 46.2251 67.0821 46.3891 67.357C46.5532 67.6319 45.6946 67.8938 45.711 67.2086C45.7274 66.5235 46.0775 66.2573 46.0775 66.2573C46.0775 66.2573 44.8798 66.2399 44.8907 65.8297C44.9016 65.4195 45.2462 65.1533 45.2462 65.1533H45.2407Z" fill="#F4CAAE"/>
<path d="M65.4986 74.7871C64.6618 75.2759 63.0485 76.2315 62.5399 76.6199C61.8454 77.1566 59.3352 81.8956 58.6078 83.6586C58.6078 83.6586 58.6078 83.663 58.6024 83.6761C57.8586 85.4346 54.0742 87.2761 54.0742 87.2761L53.5547 87.5118L52.5539 87.9743C51.9195 88.2667 51.1648 88.0049 50.9242 87.5161C50.8586 87.3852 50.8312 87.2412 50.8531 87.0885L50.9844 86.1154C51.05 85.6441 51.5586 85.295 52.1492 85.3081C52.3352 85.3081 52.5211 85.3037 52.7016 85.2819C53.9649 85.1292 55.0422 84.3655 55.961 83.3401C58.0555 80.9967 59.3133 77.2701 59.975 76.1792C60.6422 75.0795 62.7587 73.958 64.2462 73.2729C64.4376 73.1856 64.6344 73.1464 64.8313 73.1507C65.3235 73.1594 65.7775 73.4256 65.9087 73.8271C65.9251 73.8795 65.936 73.9318 65.9415 73.9842C65.9743 74.2984 65.7993 74.6038 65.4821 74.7958L65.4986 74.7871Z" fill="#328C9B"/>
<path d="M54.6593 86.4616V86.479C54.621 86.815 54.3859 87.1118 54.0195 87.2863C53.8773 87.3561 53.7186 87.4303 53.56 87.5132C51.8702 88.3642 49.2452 89.8347 47.3694 90.0224C47.3038 90.0311 47.2327 90.0355 47.1671 90.0398C47.1397 90.0398 47.096 90.0311 47.0413 90.0136C46.9921 90.0005 46.9373 89.9744 46.8662 89.9438C46.5819 89.8173 46.1225 89.6907 45.5537 89.5642C43.2842 89.058 39.2811 88.53 37.9467 87.7707C37.8045 87.6878 36.8255 86.4921 36.738 86.3787C36.6287 86.2434 36.6232 84.5066 36.6013 84.3408C36.4482 83.0317 37.5857 79.0956 41.042 76.0279C41.4138 75.7006 42.0045 75.5915 42.5186 75.7573L48.7803 77.7777C48.9061 77.817 49.0209 77.8737 49.1194 77.9392C49.4366 78.1486 49.6171 78.4628 49.6006 78.8032C49.4913 80.5443 49.5569 84.8033 52.7015 85.2746C52.8874 85.3052 53.0897 85.3183 53.2976 85.3183C53.8226 85.3183 54.2764 85.5452 54.5061 85.8855C54.6155 86.0557 54.6702 86.2521 54.6483 86.4659L54.6593 86.4616Z" fill="#43ABC4"/>
<path d="M47.0519 90.0088C46.0129 89.6553 40.1175 85.8283 38.3675 84.8378C38.2253 84.7548 38.9801 86.0683 38.8925 85.9505C39.5871 85.5534 39.7183 85.5709 40.1011 85.4225C40.7902 85.1607 42.6551 86.0072 42.6551 86.0072L44.2629 86.3694C45.2527 86.592 46.0239 87.2247 46.2754 88.0233C46.5379 88.8611 46.877 89.8299 47.0574 90.0088H47.0519Z" fill="#1C5360"/>
<path d="M41.6016 87.085C41.6016 87.085 44.3743 85.6275 45.5172 87.9621C45.5172 87.9621 46.2117 86.7926 45.55 86.2123C44.8883 85.6319 42.3125 86.0028 41.6016 87.085Z" fill="#43ABC4"/>
<path d="M47.6639 68.2172L47.4452 68.6579C47.3741 68.8019 47.3741 68.959 47.4507 69.103L47.7843 69.7358C47.9046 69.967 48.1944 70.1067 48.5061 70.0936L49.6765 70.0325C49.9062 70.0194 50.1195 69.9234 50.2453 69.7663L50.5843 69.3518C50.7812 69.1118 50.732 68.7932 50.464 68.6012L49.753 68.0863C49.6382 68.0034 49.496 67.951 49.3484 67.9379L48.435 67.8506C48.1069 67.8201 47.7897 67.9685 47.6694 68.2172H47.6639Z" fill="#98EBF4"/>
<path d="M69.7423 75.631C69.7259 75.9016 69.5618 76.1809 69.2009 76.4078C69.1735 76.4209 69.1462 76.4383 69.1189 76.4514L65.9032 78.0136L64.2954 78.7947L64.1477 78.8646C63.5516 79.1351 62.8352 79.2224 62.168 79.1046C61.9274 79.0653 61.6649 78.9867 61.4516 78.8995C61.2711 78.8166 61.1454 78.7118 61.0579 78.5984C60.6094 78.0093 61.3313 77.1409 62.3266 77.4551C62.5891 77.5424 62.8899 77.5031 63.1087 77.3634C64.0821 76.8049 66.6907 75.3125 67.6969 74.7365C68.7415 74.1866 69.7915 74.8892 69.7423 75.6354V75.631Z" fill="#5CCEE0"/>
<path d="M61.0532 59.5801C61.0532 59.5801 58.2313 60.6536 58.1 63.2238C57.9633 65.794 60.1125 67.2952 60.1125 67.2952C60.1125 67.2952 57.9633 61.8274 62.9344 60.4354L61.0532 59.5801Z" fill="#1C5360"/>
<path d="M58.6136 83.656C58.6136 83.656 58.6136 83.6603 58.6081 83.6734C57.8644 85.432 54.08 87.2735 54.08 87.2735L53.5604 87.5091C51.8706 88.3601 49.2456 89.8306 47.3698 90.0183C47.3042 90.027 47.2331 90.0314 47.1674 90.0357C47.1401 90.0357 47.0964 90.027 47.0417 90.0096C46.9924 89.9965 46.9377 89.9703 46.8666 89.9397C46.5823 89.8132 46.1229 89.6866 45.5541 89.5601C42.1635 87.3389 45.3354 80.5926 45.3354 80.5926L49.1252 77.9395C49.4424 78.1489 49.6229 78.4631 49.6065 78.8035C49.4971 80.5446 49.5628 84.8036 52.7073 85.2749C53.9706 85.1222 55.048 84.3585 55.9667 83.333L58.6081 83.6603L58.6136 83.656Z" fill="#328C9B"/>
<path d="M63.7936 61.4662C64.0943 61.8807 64.1216 62.3869 63.8701 62.8233L62.6724 64.883C62.0982 65.8736 61.256 66.755 60.206 67.4663L58.1333 68.8715C57.3513 69.3995 56.1755 69.3384 55.4919 68.7362C54.7974 68.1209 54.8739 67.1783 55.6669 66.6416L57.0232 65.7165C58.0294 65.0314 58.8443 64.1848 59.413 63.2422L60.4685 61.4924C61.1904 60.4669 63.0607 60.4582 63.7936 61.4749V61.4662Z" fill="#F23E30"/>
<path d="M52.8064 68.8323C52.8064 68.8323 51.9309 69.6396 52.604 70.1938C53.277 70.748 53.1184 70.0672 53.1184 70.0672L53.485 69.1159L53.6601 68.8454C53.6601 68.8454 53.1566 68.4265 52.8064 68.8323Z" fill="#F78161"/>
<path d="M52.9705 69.1077C52.9705 69.1077 52.095 69.915 52.768 70.4692C53.4411 71.0234 53.2824 70.3426 53.2824 70.3426L53.649 69.3914L53.8241 69.1208C53.8241 69.1208 53.3207 68.7019 52.9705 69.1077Z" fill="#F78161"/>
<path d="M53.4803 69.386C53.4803 69.386 52.6048 70.1933 53.2778 70.7475C53.9509 71.3017 53.7922 70.621 53.7922 70.621L54.1589 69.6697L54.3339 69.3991C54.3339 69.3991 53.8305 68.9802 53.4803 69.386Z" fill="#F78161"/>
<path d="M53.1567 68.5615C53.1567 68.5615 54.9013 67.0866 55.9021 68.195C57.1544 69.5826 55.1802 69.8226 54.8357 69.9536C54.4911 70.0845 54.1411 70.4903 54.3052 70.7652C54.4692 71.0401 53.6106 71.302 53.627 70.6169C53.6434 69.9361 53.9935 69.6655 53.9935 69.6655C53.9935 69.6655 52.7958 69.6481 52.8067 69.2379C52.8177 68.8277 53.1622 68.5615 53.1622 68.5615H53.1567Z" fill="#F4CAAE"/>
<path d="M34.1777 89.8389C34.1777 89.8389 35.1074 94.8354 40.6637 94.6128C46.2145 94.3859 38.0933 90.716 38.0933 90.716L34.1777 89.8389Z" fill="#1C5360"/>
<path d="M41.1016 94.5823C41.1016 94.5823 37.9133 94.7612 37.3008 93.5132L39.0891 90.1182L41.0962 94.5866L41.1016 94.5823Z" fill="#1C5360"/>
<path d="M45.5904 88.8049L45.6232 89.8914C45.656 90.9475 45.1583 92.1301 44.2888 93.0639C42.0849 95.429 38.8856 95.0145 38.7653 92.3526L38.7161 91.2835C38.6668 90.1882 39.1919 88.9576 40.1106 88.002L40.1271 87.9845C42.3583 85.6674 45.5138 86.143 45.5959 88.8049H45.5904Z" fill="#98EBF4"/>
<path d="M44.3706 89.7727L44.387 90.257C44.4034 90.7283 44.1792 91.252 43.7909 91.6709C42.812 92.7226 41.3846 92.5393 41.3299 91.3523L41.308 90.8767C41.2862 90.388 41.5213 89.8425 41.9315 89.4148V89.4061C42.9323 88.3763 44.3378 88.5857 44.3706 89.7727Z" fill="#1C5360"/>
<path d="M45.4298 70.1769L50.926 72.6206C52.0307 73.1093 52.4354 74.2744 51.8174 75.1777L49.0666 79.2011C48.5306 79.9866 47.6392 80.5539 46.5947 80.772L44.5822 81.1953C43.0017 81.5313 41.361 80.8419 40.7157 79.572L40.2345 78.6294C39.7313 77.6432 39.7259 76.5305 40.2072 75.5443L42.3947 71.0889C42.8869 70.0896 44.2868 69.6663 45.4298 70.1725V70.1769Z" fill="#1C5360"/>
<path d="M51.3124 74.6234L48.5616 78.6468C48.0257 79.4323 47.1343 79.9952 46.0898 80.2177L44.0772 80.641C42.6827 80.9378 41.239 80.4316 40.4788 79.4366C40.3749 79.3057 40.2928 79.1661 40.2162 79.0177L39.7405 78.0751C39.2373 77.0889 39.2264 75.9762 39.7131 74.99L41.9007 70.5346C42.3929 69.5353 43.7928 69.112 44.9358 69.6226L47.4022 70.7179L50.432 72.0663C51.5367 72.555 51.9414 73.7201 51.3234 74.6234H51.3124Z" fill="#43ABC4"/>
<path d="M47.621 71.0713C47.621 71.0713 44.0663 69.5178 43.0163 70.5913C41.9662 71.6692 40.003 75.0511 39.9647 76.6875C39.9319 78.0359 40.3366 79.105 40.4788 79.4366C40.3749 79.3057 40.2928 79.1661 40.2162 79.0177L39.7405 78.0751C39.2373 77.0889 39.2264 75.9762 39.7131 74.99L41.9007 70.5346C42.3929 69.5353 43.7928 69.112 44.9358 69.6226L47.4022 70.7179C47.5335 70.923 47.632 71.0713 47.632 71.0713H47.621Z" fill="#98EBF4"/>
<path d="M47.3047 77.3362C48.1469 77.1312 48.8469 76.6555 49.2406 76.0228L49.2954 75.9355C49.454 75.6955 49.175 75.4206 48.8469 75.4948L45.3578 76.2802C44.6906 76.4286 44.1383 76.8039 43.8429 77.3057L43.6133 77.6984C43.4711 77.9428 43.7609 78.2046 44.0836 78.1261L47.3047 77.3362Z" fill="#98EBF4"/>
<path d="M40.7202 75.0898C40.3975 74.5225 40.3811 73.8767 40.6819 73.2963L40.7256 73.2178C40.835 72.9952 41.2233 72.9821 41.3546 73.196L42.7436 75.5044C43.0061 75.9451 43.0225 76.4557 42.7764 76.9051L42.585 77.2542C42.4647 77.4724 42.0764 77.4724 41.9561 77.2542L40.7256 75.0855L40.7202 75.0898Z" fill="#98EBF4"/>
<path d="M65.5005 74.7889C64.6638 75.2777 63.0505 76.2333 62.5419 76.6217C61.8474 77.1584 59.3372 81.8975 58.6098 83.6604C57.8825 85.4234 54.0762 87.278 54.0762 87.278L53.5566 87.5136C51.8613 88.3645 49.2418 89.8351 47.366 90.0228C47.2019 90.0228 47.0926 90.014 47.0434 90.014C46.9777 90.0097 46.9175 89.9835 46.8683 89.9442C46.5621 89.6955 46.502 88.9056 46.502 88.9056C46.502 88.9056 48.8426 88.238 50.9262 87.518C51.9926 87.147 52.9934 86.7674 53.5785 86.4532C53.8739 86.2918 54.191 86.0998 54.5082 85.8859C56.034 84.8648 57.6418 83.3681 57.9426 82.696C58.3036 81.8844 60.9833 77.0101 61.8638 76.0675C62.7388 75.1249 65.681 73.8027 65.681 73.8027L65.9162 73.8246C65.9326 73.8769 65.949 73.9293 65.9544 73.9816C65.9872 74.2958 65.8123 74.6013 65.4951 74.7889H65.5005Z" fill="#5CCEE0"/>
<path d="M45.5102 87.9617C43.9351 84.6234 40.3695 88.193 40.3695 88.193C40.3695 88.1799 40.3695 88.1668 40.3695 88.1537C39.6093 88.9523 39.0734 89.9254 38.7234 90.9247C38.3624 91.9589 37.203 92.5873 35.9944 92.5873C35.4585 92.5873 34.9116 92.4651 34.4194 92.1945C33.5116 91.697 33.0358 90.8156 33.2436 89.9516C34.4686 84.8547 39.9429 84.4707 39.9429 84.4707L43.3007 85.4438C43.5851 85.4744 43.8586 85.5398 44.1211 85.614C44.5039 85.7231 44.8484 85.8584 45.1164 85.9718C45.3352 86.0591 45.4992 86.1333 45.5977 86.1595C45.6742 86.1813 45.7289 86.2162 45.7672 86.2686C46.1008 86.6831 45.4992 87.966 45.4992 87.966L45.5102 87.9617Z" fill="#43ABC4"/>
<path d="M45.5102 87.9629C43.9351 84.6247 40.3695 88.1942 40.3695 88.1942C40.3695 88.1811 40.3695 88.168 40.3695 88.1549C39.6093 88.9535 39.0734 89.9266 38.7234 90.9259C38.3624 91.9601 37.203 92.5885 35.9944 92.5885C35.4585 92.5885 34.9116 92.4663 34.4194 92.1957C33.5116 91.6983 33.0358 90.8168 33.2436 89.9528C33.8452 91.3666 35.021 91.3317 36.0491 90.939C37.0772 90.5463 37.8648 89.8175 38.2585 88.9535C39.8226 85.528 43.9953 85.624 43.9953 85.624L44.1265 85.6152C44.5093 85.7243 44.8539 85.8596 45.1219 85.9731C45.3406 86.0603 45.5047 86.1345 45.6031 86.1607C45.6797 86.1825 45.7344 86.2174 45.7726 86.2698C46.1062 86.6844 45.5047 87.9673 45.5047 87.9673L45.5102 87.9629Z" fill="#328C9B"/>
<path d="M61.4918 58.2543C61.2731 58.7823 60.934 59.1969 60.5676 59.5023C60.5184 59.5416 60.4911 59.5634 60.4911 59.5634C60.4911 59.5634 61.1036 57.831 60.6387 56.4346C60.3981 55.6928 59.8512 55.0469 58.7465 54.8069C58.6699 54.7895 58.5879 54.772 58.5004 54.7589C58.5004 54.7589 57.8387 54.6018 56.9582 54.6629C56.2035 54.7197 55.2848 54.9379 54.4863 55.5575C55.7168 53.7509 58.4731 54.0869 58.834 54.1393C60.5074 54.2484 61.5739 55.5051 61.6996 56.871C61.7434 57.3335 61.6723 57.8048 61.4863 58.2543H61.4918Z" fill="#98EBF4"/>
<path d="M69.743 75.6304C69.7266 75.9009 69.5625 76.1802 69.2016 76.4071C69.1742 76.4202 69.1469 76.4377 69.1196 76.4507L65.9039 78.013L64.2961 78.7941L64.1484 78.8639C63.5523 79.1344 62.8359 79.2217 62.1687 79.1039C61.9281 79.0646 61.6656 78.9861 61.4523 78.8988C61.2719 78.8159 61.1461 78.7112 61.0586 78.5977L61.1898 78.3359C61.1898 78.3359 62.8031 78.7635 63.875 78.3359C64.9469 77.9082 69.6992 75.4209 69.6992 75.4209L69.743 75.6304Z" fill="#328C9B"/>
<path d="M75.7637 70.4017V77.6804C75.7637 78.4179 76.2504 79.0987 77.0489 79.4739L100.373 90.4487C101.177 90.8284 102.178 90.8327 102.993 90.4618L103.321 90.3135L140.235 73.5C141.05 73.1291 141.553 72.4396 141.553 71.6934V56.7432C141.553 56.2108 141.296 55.7047 140.853 55.325C140.678 55.1766 140.476 55.0457 140.246 54.941L119.432 45.4019C118.628 45.0353 117.638 45.0353 116.834 45.4019L92.8263 56.3985L91.8638 56.8392C91.4427 57.0312 91.1036 57.3105 90.874 57.6465L86.5974 63.9041C86.3677 64.2445 86.0232 64.5238 85.6021 64.7158L77.0926 68.5951C76.8575 68.6999 76.6551 68.8351 76.4801 68.9835C76.0371 69.3631 75.7801 69.8693 75.7801 70.4017H75.7637Z" fill="#43ABC4"/>
<path d="M86.5879 66.6833C86.5988 66.9495 86.7793 67.207 87.0856 67.3466L88.2231 67.8616L94.1294 70.5409L94.709 70.8027L95.9614 71.37L99.2263 72.8493L102.852 74.4901L107.67 76.6763L108.097 76.8683C108.583 77.0865 109.196 76.9469 109.464 76.5541L111.121 74.0711L111.132 74.0581L111.476 73.5431L113.024 71.2216L114.889 68.4245C114.971 68.2979 115.009 68.1583 115.004 68.023C114.993 67.7525 114.807 67.495 114.49 67.3597L110.202 65.5008L106.336 63.8251L99.3193 60.7879L97.8044 60.1334L95.5348 59.1515L93.4676 58.257C93.0848 58.0911 92.6254 58.1479 92.3247 58.3704C92.2481 58.4272 92.1825 58.4926 92.1333 58.5668L92.0841 58.6366L91.6629 59.2388L90.7169 60.5828L89.8746 61.7829L88.7098 63.4454L88.6551 63.524L87.7527 64.8113L86.7301 66.2731C86.6371 66.3997 86.5988 66.5437 86.6043 66.6833H86.5879Z" fill="#1C5360"/>
<path d="M92.8145 56.398L115.882 66.3255C116.959 66.7881 118.261 66.7532 119.294 66.2295L140.847 55.3289C140.672 55.1806 140.47 55.0496 140.24 54.9449L119.426 45.4058C118.622 45.0392 117.632 45.0392 116.828 45.4058L92.8199 56.4024L92.8145 56.398Z" fill="#65CEE0"/>
<path d="M113.646 78.1352L120.187 74.893L121.937 74.0246L123.66 73.1736L127.493 71.2711L128.275 70.8827C128.467 70.7867 128.582 70.6209 128.582 70.4376V64.132C128.582 63.7218 128.018 63.4731 127.581 63.6912L126.848 64.0578L125.114 64.9218L119.596 67.671C119.148 67.8935 118.76 68.1815 118.448 68.5175C118.306 68.6703 118.18 68.8317 118.071 69.0019L115.878 72.458L112.706 77.4545C112.41 77.9258 113.072 78.4101 113.635 78.1352H113.646Z" fill="#1C5360"/>
<path opacity="0.4" d="M120.394 70.8694C120.886 72.5669 123.631 71.8643 123.664 73.1691L127.498 71.2665C126.502 70.804 125.348 70.4025 124.67 70.1581C122.712 69.4468 125.206 67.0293 127.7 65.8947C129.565 65.0438 127.842 64.35 126.858 64.0576L125.124 64.9216C124.873 65.5064 124.375 66.2788 123.423 66.8897C121.641 68.0286 119.858 69.0235 120.394 70.8694Z" fill="#65CEE0"/>
<path opacity="0.4" d="M115.888 72.4575C116.446 72.7019 117.195 72.955 118.076 73.2823C120.05 74.0154 120.274 74.2074 120.187 74.8881L121.937 74.0197C121.253 73.1601 120.077 72.3353 119.142 71.8597C117.321 70.9346 118.305 68.8094 118.453 68.5127C118.311 68.6654 118.185 68.8269 118.076 68.9971L115.883 72.4532L115.888 72.4575Z" fill="#65CEE0"/>
<path d="M133.727 78.5889L134.07 78.7329C134.07 78.7329 133.928 78.6936 133.727 78.5889Z" fill="#1C5360"/>
<path d="M133.727 78.5896L131.25 77.5423L132.415 77.0448L133.077 76.6172L133.744 77.5467L134.077 78.079L133.41 78.21L133.153 78.1576C133.35 78.367 133.558 78.5023 133.727 78.594V78.5896Z" fill="#1C5360"/>
<path d="M136.523 71.2292C138.694 70.2212 140.466 71.0328 140.466 73.0314C140.466 75.0344 138.689 77.4694 136.523 78.4425C134.352 79.4156 132.58 78.6039 132.58 76.6403C132.58 74.6722 134.357 72.2372 136.523 71.2292Z" fill="#65CEE0"/>
<path d="M136.73 73.1755C137.834 72.6605 138.737 73.0751 138.737 74.0962C138.737 75.1173 137.834 76.3566 136.73 76.8541C135.625 77.3516 134.723 76.937 134.723 75.9333C134.723 74.9297 135.625 73.6904 136.73 73.1755Z" fill="#1C5360"/>
<path d="M109.307 89.7236L109.65 89.8676C109.65 89.8676 109.509 89.8284 109.307 89.7236Z" fill="#1C5360"/>
<path d="M109.307 89.7244L106.83 88.6771L107.995 88.1796L108.657 87.752L109.324 88.6814L109.657 89.2138L108.99 89.3447L108.733 89.2924C108.93 89.5018 109.138 89.6371 109.307 89.7287V89.7244Z" fill="#1C5360"/>
<path d="M112.103 82.362C114.274 81.354 116.046 82.1657 116.046 84.1643C116.046 86.1672 114.269 88.6022 112.103 89.5753C109.932 90.5484 108.16 89.7368 108.16 87.7731C108.16 85.8094 109.937 83.3701 112.103 82.362Z" fill="#65CEE0"/>
<path d="M112.312 84.3122C113.416 83.7973 114.319 84.2118 114.319 85.2329C114.319 86.254 113.416 87.4933 112.312 87.9908C111.207 88.4883 110.305 88.0737 110.305 87.0701C110.305 86.0664 111.207 84.8271 112.312 84.3122Z" fill="#1C5360"/>
<path d="M96.1286 86.0547C97.3536 86.622 98.3489 86.1681 98.3489 85.0379C98.3489 83.9077 97.3481 82.5375 96.1286 81.9877C94.909 81.4378 93.9082 81.896 93.9082 83.0044C93.9082 84.1128 94.909 85.483 96.1286 86.0547Z" fill="#1C5360"/>
<path d="M94.5371 82.7419V82.7594C94.5371 83.6365 95.259 84.71 96.1887 85.2685C96.2871 85.3253 96.3855 85.382 96.484 85.4256C96.6808 85.5173 96.8723 85.5784 97.0527 85.6133C97.441 85.6831 97.7746 85.622 98.0207 85.4431C98.2778 85.2598 98.4309 84.95 98.4309 84.5354C98.4309 84.4481 98.4254 84.3609 98.409 84.2692C98.316 83.6321 97.9059 82.947 97.3426 82.4408C97.0856 82.2052 96.7902 82.0044 96.484 81.8692C95.423 81.3935 94.548 81.7863 94.5371 82.7419Z" fill="#65CEE0"/>
<path opacity="0.44" d="M94.5371 82.7419C94.8762 82.9165 95.2699 83.139 95.5324 83.5056C96.1996 84.435 96.3636 83.9027 96.1996 85.0983C96.1886 85.1551 96.1887 85.2118 96.1887 85.2685C96.2871 85.3253 96.3855 85.382 96.484 85.4256C96.6808 85.5173 96.8723 85.5784 97.0527 85.6133C97.3098 85.5565 97.6707 85.5216 98.0207 85.4431C98.2778 85.2598 98.4309 84.95 98.4309 84.5354C98.4309 84.4481 98.4254 84.3609 98.409 84.2692C97.6926 83.8503 96.566 83.3921 96.3637 82.8423C96.1285 82.179 96.7301 82.4626 97.3426 82.4408C97.0856 82.2052 96.7902 82.0044 96.484 81.8692C95.423 81.3935 94.548 81.7863 94.5371 82.7419Z" fill="white"/>
<path d="M80.0172 77.833C81.2422 78.4003 82.2375 77.9464 82.2375 76.8162C82.2375 75.686 81.2367 74.3158 80.0172 73.766C78.7976 73.2161 77.7969 73.6743 77.7969 74.7827C77.7969 75.8911 78.7976 77.2613 80.0172 77.833Z" fill="#1C5360"/>
<path d="M78.4199 74.5251V74.5426C78.4199 75.4197 79.1417 76.4932 80.0714 77.0517C80.1699 77.1085 80.2683 77.1652 80.3668 77.2088C80.5637 77.3005 80.7551 77.3615 80.9356 77.3965C81.3238 77.4663 81.6574 77.4052 81.9035 77.2263C82.1606 77.043 82.3137 76.7332 82.3137 76.3186C82.3137 76.2313 82.3082 76.1441 82.2918 76.0524C82.1988 75.4153 81.7887 74.7302 81.2254 74.224C80.9684 73.9884 80.673 73.7876 80.3668 73.6524C79.3058 73.1767 78.4309 73.5695 78.4199 74.5251Z" fill="#65CEE0"/>
<path opacity="0.44" d="M78.4199 74.5251C78.759 74.6997 79.1527 74.9222 79.4152 75.2888C80.0824 76.2182 80.2465 75.6859 80.0824 76.8815C80.0715 76.9383 80.0714 76.995 80.0714 77.0517C80.1699 77.1085 80.2683 77.1652 80.3668 77.2088C80.5637 77.3005 80.7551 77.3615 80.9356 77.3965C81.1926 77.3397 81.5535 77.3048 81.9035 77.2263C82.1606 77.043 82.3137 76.7332 82.3137 76.3186C82.3137 76.2313 82.3082 76.1441 82.2918 76.0524C81.5754 75.6335 80.4488 75.1753 80.2465 74.6255C80.0113 73.9622 80.6129 74.2458 81.2254 74.224C80.9684 73.9884 80.673 73.7876 80.3668 73.6524C79.3058 73.1767 78.4309 73.5695 78.4199 74.5251Z" fill="white"/>
</svg>
