<svg xmlns="http://www.w3.org/2000/svg"><symbol id="transport3" viewBox="0 0 113 99"><path fill="#FCC" d="M56.243 50.376S-4.499 54.193.266 69.233c4.766 15.04 27.586 15.442 23.952 22.06-3.635 6.617 24.973 11.729 42.114 3.31 17.141-8.418 57.665-22.46 43.25-34.29-14.415-11.83-25.541-5.213-33.032-6.617-7.492-1.405-4.854-10.344-20.307-3.316v-.004z"/><path fill="#34ADC1" d="M71.134 20.409c1.12-.598 10.915 1.874 13.14 6.553 2.225 4.68 3.495 7.958 4.662 9.08 1.167 1.122 1.317 6.645-.718 5.619-2.034-1.026-4.156-4.401-5.746-4.401-1.59 0-3.604 1.592-2.225 4.214 1.378 2.622 6.572 16.85 4.13 17.786-2.803 1.076-4.982-.935-7.31-8.61-2.33-7.676-6.041-15.447-6.041-15.447s-7.1-10.95.108-14.79v-.004z"/><path fill="#34ADC1" d="M68.696 43.434S74.314 61.781 76.116 63c1.801 1.218 4.13 1.218 4.347-.561.217-1.779-1.818-11.47-3.191-14.626-1.368-3.16-3.593-7.328-4.229-7.912-.635-.584-5.194-4.232-4.347 3.534z"/><path fill="#34ADC1" d="M63.718 44.09s5.617 18.347 7.419 19.565c1.802 1.218 4.13 1.218 4.347-.56.212-1.78-1.817-11.47-3.19-14.626-1.369-3.16-3.594-7.33-4.229-7.913-.635-.584-5.194-4.232-4.347 3.535z"/><path fill="#34ADC1" d="M57.782 41.748s5.618 18.347 7.42 19.564c1.801 1.218 4.13 1.218 4.347-.56.216-1.78-1.818-11.47-3.191-14.626-1.373-3.156-3.594-7.329-4.229-7.913-.635-.583-5.194-4.232-4.347 3.535z"/><path fill="#34ADC1" d="M57.467 40.908S51.86 7.384 79.513 22.976c0 0 1.796 14.466-5.938 18.867-7.734 4.4-12.928 9.171-16.108-.935z"/><path stroke="#206982" stroke-linecap="round" stroke-miterlimit="10" stroke-width="9" d="M79.606 57.194s-1.554-3.598-3.118-7.72c-1.147-3.015-2.319-7.261-2.437-7.585m.955 20.034s-5.721-12.541-6.041-15.537m.315 14.224s-3.707-8.893-4.239-11.046"/><path fill="#65D5E0" d="M78.36 22.398c-9.67-3.722-14.915-1.45-17.75 2.426-3.743 5.112-3.273 13.02-3.237 13.586v.032h-.005l-9.071-10.125s-2.334-4.214-.109-10.202c1.028-2.768 2.922-4.815 5.184-6.298 3.655-2.398 8.271-3.32 11.772-3.434 2.534-.082 7.233 2.4 8.369 4.401l4.837 9.618.01-.004z"/><path fill="#31A6BA" d="M60.694 25.033s-3.078 10.772-3.32 13.372v.027l-9.072-10.12s-2.333-4.213-.108-10.201c1.027-2.769 2.922-4.816 5.184-6.299.65 2.09 3.304 10.248 5.147 11.306 1.436.826 1.92 1.41 2.086 1.701a.602.602 0 0 1 .083.214z"/><path fill="#34ADC1" d="M76.224 23.31s6.79.953 9.438 6.562c2.644 5.61 4.234 7.105 5.189 7.853.955.748 2.385 3.343.45 4.524-1.937 1.181-4.75.338-6.579-2.139-1.827-2.476-2.245-3.32-3.944-2.48-1.694.843-5.297 2.435-6.573-1.592-1.27-4.027-6.887-12.824 2.014-12.729h.005z"/><path fill="#F23E30" d="M88.316 47.151l-1.471 21.302c-.103 1.492-1.043 2.837-2.51 3.58L50.503 89.29a5.538 5.538 0 0 1-2.298.593c-.945.037-1.9-.16-2.752-.597L21.72 77.109c-1.322-.68-2.225-1.852-2.453-3.188L16.03 54.85l17.038-10.001 17.41-10.22 37.829 12.519.01.004z"/><path fill="#F77A74" d="M48.205 89.883a5.56 5.56 0 0 1-2.752-.597L21.72 77.109c-1.322-.68-2.225-1.851-2.453-3.188L16.03 54.85l17.038-10 12.613 6.056 2.52 38.978h.005z"/><path fill="#B52E24" d="M89.845 43.585c.057.548-.175 1.396-.475 2.24-.547-1.045-1.456-1.966-2.731-2.605L57.922 28.86c-2.039-1.018-4.533-1.008-6.557.031L16.16 46.933c-1.084.556-1.895 1.313-2.442 2.175-.279-.716-.522-1.482-.64-2.225 0 0-2.675 5.012 1.833 9.38l.289.156c.289.214.609.415.955.593l28.505 14.63c2.055 1.053 4.595 1.053 6.645-.01l35.418-18.31c.33-.169.635-.36.913-.566l.114-.059c4.115-3.028 2.101-9.107 2.101-9.107l-.005-.005z"/><path fill="#FC624E" d="M16.155 53.25L44.66 67.88c2.055 1.053 4.595 1.053 6.645-.01l35.418-18.31c4.389-2.267 4.342-7.885-.083-10.097l-28.716-14.36c-2.04-1.018-4.533-1.009-6.557.031L16.161 43.175c-4.379 2.244-4.379 7.826 0 10.075h-.006z"/><path fill="#661A1A" d="M80.165 48.86l-16.512 8.538L51.656 63.6a5.911 5.911 0 0 1-5.35.005L23.363 51.83c-3.522-1.806-3.522-6.303 0-8.109l28.334-14.52a5.784 5.784 0 0 1 2.54-.63 5.898 5.898 0 0 1 2.742.606l23.114 11.561c3.563 1.779 3.599 6.303.068 8.127l.005-.004z"/><path fill="#B54343" d="M80.164 48.861L63.652 57.4l-2.044.73-7.368-4.046V28.567a5.898 5.898 0 0 1 2.742.607l23.115 11.56c3.562 1.78 3.598 6.303.067 8.127z"/><path fill="#661A1A" d="M78.121 60.567l2.969-1.46c.635-.31 1.41.096 1.41.735v10.53c0 .292-.176.566-.46.72l-2.969 1.583c-.635.338-1.44-.064-1.44-.72V61.3c0-.305.186-.583.49-.734zm-8.504 4.236l2.97-1.459c.634-.31 1.409.096 1.409.734v10.53c0 .292-.176.566-.46.721l-2.969 1.583c-.635.337-1.44-.064-1.44-.721V65.538c0-.306.186-.584.49-.735zm-9.154 4.913l2.969-1.46c.635-.31 1.41.096 1.41.734v10.53c0 .293-.176.566-.46.721l-2.969 1.583c-.635.337-1.44-.064-1.44-.72V70.45c0-.306.185-.584.49-.734z"/><path fill="#AD211A" d="M76.596 61.242l2.969-1.459c.635-.31 1.41.096 1.41.734v10.53c0 .292-.176.566-.46.721l-2.97 1.583c-.634.337-1.44-.064-1.44-.721V61.977c0-.306.186-.584.49-.735zm-8.502 4.237l2.969-1.46c.635-.31 1.41.096 1.41.735v10.53c0 .292-.176.565-.46.72l-2.969 1.583c-.635.337-1.44-.064-1.44-.72V66.212c0-.306.185-.584.49-.734zm-9.16 4.911l2.969-1.46c.635-.31 1.41.096 1.41.735v10.53c0 .292-.177.566-.46.72l-2.97 1.583c-.634.337-1.44-.064-1.44-.72V71.124c0-.305.186-.584.49-.734z"/><path fill="#FFC38D" d="M29.019 41.327c-.155.447-.408.734-.563.825-.14.082.119-.401.563-.825z"/><path fill="#1C5360" d="M39.16 19.555c-.887 1.136-2.286 1.35-3.185.497-.898-.852-1.125-.62-1.88-.273-.753.346-2.152.56-2.89-.128-.739-.688-2.716-2.253-3.16-2.312-.444-.06-5.08 1.259-5.282 1.186-.201-.073-8.958 2.964-7.9.223.409-1.053.383-1.45.13-1.637-.393-.301-1.358-.064-2.009-1.14a1.622 1.622 0 0 1-.222-.575c-.248-1.482 1.957-2.727 2.938-2.786-1.193.023-11.777.105-10.176-2.618 1.77-3 6.908-5.386 12.02-.689.861.794 1.6 1.464 2.235 2.039 2.901 2.613 3.598 3.106 3.681 3.16-.15-.123-2.267-1.897-2.51-4.14-.066-.607 0-1.241.285-1.893 1.203-2.773 6.402-7.224 7.63-8.25.042-.037.078-.069.114-.096.098-.077.15-.123.15-.123s.015.068.036.196c.093.602.243 2.5-1.14 4.401-1.679 2.303-2.174 2.85-1.57 3.074.604.223 1.507 1.806.748 2.672-.764.867-1.6 1.391-1.327 1.806.114.169.305.383.455.602.067.1.129.2.17.297.475-.922 1.683-2.746 2.72-3.735 1.503-1.432 8.546-2.595 8.546-2.595s.815 1.03-1.059 2.74c-1.869 1.71-3.604 1.387-3.697 2.085-.092.697.796 2.066-.418 2.139-1.213.072-3.036-.073-3.531.474-.444.492-.238 1.227-.372 1.377.351-.091 1.833-.351 3.635-.283 2.204.082 7.724 3.156 6.836 4.287v.018z"/><path fill="#FFA64A" d="M36.377 55.273a.787.787 0 0 1-.371.392.956.956 0 0 1-.47.11l-4.77-5.41c-.228-2.275-12.702-19.901-13.161-26.437-.403-5.677 2.194-7.497 8.168-7.575.655-.009 1.358 0 2.096.032l.831.041c8.05.461 8.53 18.475 8.643 28.006a103.04 103.04 0 0 1-.02 3.658c-.088 3.16-.347 4.99-.6 6.08a6.14 6.14 0 0 1-.062.24 6.985 6.985 0 0 1-.278.854l-.006.009z"/><path fill="#FF7E2B" d="M36.01 55.67a.954.954 0 0 1-.47.11l-4.77-5.41c-.228-2.275-12.702-19.901-13.161-26.437-.403-5.677 2.194-7.497 8.168-7.575-1.012.808-2.448 2.486-1.71 5.15 1.09 3.949 3.63 5.823 4.012 10.028.377 4.21.821 10.525 2.03 12.222 1.207 1.697 3.53 3.279 4.47 5.295.661 1.418 1.183 4.76 1.436 6.608l-.005.009z"/><path fill="#FFC38D" d="M31.747 26.665c-.419.014-.548.155 0 0z"/><path fill="#FFC38D" d="M36.668 54.421h-.006c-.222.032-.748-10.193-.748-10.193s-1.508-.556.051-.606c1.56-.05.14-5.058-.082-7.334-.13-1.3-1.152-1.19-1.936-.87.377-.402.728-1.036.784-1.948.109-1.733-.32-5.331-1.517-6.298a2.235 2.235 0 0 0-1.456-.506c.015 0 .03-.01.046-.014 1.1-.324-.201-2.577-.175-5.386.02-2.376-2.866-4.328-3.754-4.87l.831.04c8.05.461 8.53 18.475 8.643 28.007a103.04 103.04 0 0 1-.02 3.657c-.248 2.987-.486 5.34-.6 6.08a.977.977 0 0 1-.051.236l-.01.005z"/><path fill="#FF7E2B" d="M21.828 32.27s1.57-4.328 3.155-4.683c1.585-.356 6.784-.114 6.784-.114s-6.82-.32-9.939 4.793v.005zm4.404 9.445s1.57-4.328 3.155-4.683c1.585-.356 6.784-.114 6.784-.114s-6.82-.32-9.939 4.793v.004zm4.729-8.277s-3.196-1.487-5.173-.548c-1.978.94-2.675 1.414-2.675 1.414s5.256-.88 7.848-.866zM29.5 19.756s-3.196-1.486-5.173-.547c-1.978.94-2.675 1.414-2.675 1.414s5.256-.88 7.848-.867zm7.229 24.988s-3.196-1.486-5.174-.547c-1.977.94-2.674 1.414-2.674 1.414s5.256-.88 7.848-.867z"/><path fill="#499FAD" d="M24.027 16.54s-6.252-.474-9.05 1.21c-2.799 1.682-5.886 3.465-6.18 4.09-.295.625-1.952 3.142.63 2.422 2.581-.721 3.221-2.573 5.534-1.72 2.313.853 3.036 1.327 3.805-.059.77-1.386.589-2.8 2.035-3.21 1.445-.411 3.407.095 3.226-2.732z"/><path fill="#2E7A87" d="M14.987 17.115c-.393-.301-1.358-.064-2.008-1.14a1.62 1.62 0 0 1-.223-.575c-.247-1.482 1.957-2.727 2.938-2.787-1.193.023-11.777.105-10.176-2.617 1.77-3.001 6.908-5.386 12.02-.689.862.794 1.6 1.464 2.235 2.039-.155-.096-5.654-3.59-7.285-2.85-1.652.747-1.213 1.326.635 1.901 1.854.58 5.695.949 4.564 2.098-1.13 1.15-.052 1.86-.082 2.682-.032.816 1.388 2.585-2.618 1.942v-.004zm11.343-4.351c-.217-.055-1.575-.415-2.293-.962-.78-.602.145-1.304.636-3.106.49-1.801-1.059-1.017-.563-2.814.485-1.774 3.134-3.26 4.755-5.66.026-.036.046-.072.072-.109l.041.014.186.073c.093.602.243 2.5-1.14 4.4-1.679 2.304-2.174 2.851-1.57 3.075.604.223 1.507 1.806.748 2.672-.764.867-1.6 1.391-1.327 1.806.114.169.305.383.455.602v.01z"/><path fill="#FCC" d="M64.194 21.097V56.51L48.777 64.9l-.145.078-18.493-8.852V21.093l.222-.347 6.453-10.243.083-.141.32-3.411 19.217 7.292v3.425l7.76 3.43z"/><path fill="#E88282" d="M62.381 21.234l-6.773 2.818-3.997 1.66 5.463-6.435.237-.282 5.07 2.239z"/><path fill="#D85B5B" d="M56.433 17.668v.009l-19.536-7.315.32-3.411 19.216 7.292v3.425zm-.826 6.384l4.766-2.636-3.3-2.139.238-.282 5.07 2.239-6.774 2.818z"/><path fill="#E88282" d="M56.434 17.677l-7.962 10.371.305 36.853a.323.323 0 0 1-.29.01L30.14 56.13V20.734l6.758-10.37 19.537 7.314z"/><path fill="#D83D3D" d="M30.139 20.66l18.333 7.383 7.962-10.366-19.537-7.315-6.758 10.298z"/><path fill="#D85B5B" d="M48.312 47.511s-1.605-5.687-5.947-2.845c-3.217 2.102-8.948 4.52-12.226 3.005V37.647c1.25.994 2.917 1.6 5.147 1.263 7.073-1.067 12.866-1.418 13.026 0 .16 1.419 0 8.601 0 8.601z"/><path fill="#FC624E" d="M28.524 54.517l16.873 8.546s2.762 2.276 6.071.758l3.408.802s.754 2.723-4.404 2.253c-5.158-.465-9.784-2.102-12.298-3.854-2.515-1.75-12.035-6.54-12.035-6.54l2.39-1.965h-.005z"/><path fill="#661A1A" d="M31.478 65.75c-.96-.47-1.497-1.42-1.348-2.381L34.803 33.3c.196-1.286 1.069-2.412 2.354-3.033l19.336-9.38c1.801-.872 4.037-.594 5.488.693l15.757 13.918-10.904-4.911-6.47-3.927c-1.388-.844-3.185-.953-4.692-.283L43.317 31.87c-1.322.588-2.241 1.697-2.484 2.983L35.397 64.07c-.3 1.61-2.313 2.467-3.924 1.678h.005z"/><path fill="#FEC166" d="M73.82 50.523a9.52 9.52 0 0 1-1.286 1.933c-.206.247-.428.493-.666.735-5.819 3.019-12.881 6.612-16.986 8.701-3.743.023-10.357-2.089-11.648-2.937-1.306-.866-3.49-5.395-3.49-5.395l.898-.479 1.28-.68s4.472 1.734 5.67 1.638c.909-.073 5.932-3.389 8.447-5.409.8-.638 1.342-1.15 1.42-1.382.325-.962 6.866-10.785 7.956-11.843 1.089-1.058 4.579-3.562 4.579-3.562l3.49-6.55 3.816 3.371-.052.515-.062.607-.351 3.557-.083.812c.031.068.057.141.088.21 3.666 8.77-.15 10.22-3.03 16.162l.01-.004z"/><path fill="#C65414" d="M80.249 48.748c-1.28.72-3.413 1.87-5.995 3.22-.95.483-2.4 1.253-2.4 1.253s.66-.707.676-.766c.335-1.236 3.965-14.835 3.03-18.785l.326.192s.387.173.96.497c.16.091.33.192.516.306 1.59.976 3.904 2.768 3.976 4.975.103 3.284.212 7.301-1.095 9.108h.006z"/><path fill="#FF7E2B" d="M73.82 50.523a9.52 9.52 0 0 1-1.286 1.933c-.206.246-.428.493-.666.734-5.819 3.02-12.881 6.613-16.986 8.702-3.743.023-10.357-2.089-11.648-2.937-1.306-.867-3.49-5.395-3.49-5.395l.898-.48c5.84 7.33 12.381 1.387 15.51 1.009 3.16-.383 9.484-7.995 10.249-9.532.764-1.537 4.254-3.178 5.452-5.49 1.198-2.313 2.778-10.535 2.778-10.535l2.622.652.109.027s-.073.224-.17.58c-.243.898-.636 2.617-.352 3.557l-.082.811c.03.069.056.142.087.21 3.666 8.77-.15 10.22-3.03 16.163l.005-.01z"/><path fill="#FEC166" d="M73.49 25.288v1.829s-1.306 5.49-1.961 5.778c-.656.287-3.052 1.542-4.363 3.658-1.306 2.12-2.618 5.49-3.599 6.932-.98 1.445-6.541 5.103-6.975 5.199-.082.018-.279-.01-.547-.064.8-.639 1.342-1.15 1.42-1.382.325-.962 6.867-10.786 7.956-11.844 1.09-1.058 4.58-3.561 4.58-3.561l3.49-6.55v.005z"/><path fill="#913636" d="M77.089 29.165c.682-.439.46-1.735-.497-2.896-.957-1.16-2.285-1.746-2.968-1.307-.682.44-.46 1.736.497 2.896.957 1.16 2.285 1.746 2.968 1.307z"/><path fill="#34ADC1" d="M27.738 39.879c1.12-.597 10.914 1.874 13.14 6.553 2.225 4.68 3.495 7.959 4.661 9.08 1.167 1.122 1.317 6.645-.717 5.619-2.034-1.03-4.156-4.4-5.747-4.4-1.59 0-3.603 1.59-2.225 4.213 1.379 2.622 6.573 16.851 4.13 17.786-2.803 1.076-4.982-.935-7.31-8.61-2.334-7.676-6.04-15.447-6.04-15.447s-7.1-10.95.108-14.79v-.004z"/><path fill="#34ADC1" d="M25.302 62.905s5.617 18.346 7.419 19.564c1.802 1.218 4.13 1.218 4.347-.56.217-1.78-1.817-11.47-3.19-14.626-1.369-3.16-3.594-7.33-4.229-7.913-.635-.584-5.194-4.232-4.347 3.535z"/><path fill="#34ADC1" d="M20.317 63.56s5.618 18.348 7.42 19.565c1.802 1.218 4.13 1.218 4.347-.56.217-1.78-1.818-11.47-3.19-14.626-1.374-3.156-3.594-7.329-4.23-7.913-.634-.583-5.193-4.232-4.347 3.535z"/><path fill="#34ADC1" d="M14.386 61.222s5.617 18.347 7.419 19.565c1.802 1.217 4.13 1.217 4.347-.561.217-1.779-1.817-11.47-3.19-14.626-1.369-3.16-3.594-7.329-4.229-7.912-.635-.584-5.194-4.233-4.347 3.534z"/><path fill="#34ADC1" d="M14.066 60.378S8.46 26.854 36.112 42.446c0 0 1.797 14.466-5.937 18.867-7.734 4.401-12.928 9.171-16.109-.935z"/><path stroke="#206982" stroke-linecap="round" stroke-miterlimit="10" stroke-width="9" d="M36.208 76.667s-1.554-3.598-3.119-7.72c-1.146-3.015-2.318-7.26-2.437-7.585m.955 20.031s-5.72-12.542-6.04-15.538m.318 14.228s-3.707-8.893-4.239-11.046"/><path fill="#65D5E0" d="M34.962 41.87c-9.67-3.72-14.916-1.45-17.75 2.427-3.743 5.113-3.274 13.02-3.237 13.586v.032h-.005L4.898 47.79s-2.333-4.214-.108-10.202c1.027-2.769 2.922-4.816 5.183-6.298 3.656-2.4 8.271-3.32 11.772-3.434 2.535-.083 7.233 2.398 8.37 4.4l4.837 9.619.01-.005z"/><path fill="#31A6BA" d="M17.3 44.507s-3.078 10.772-3.32 13.371v.027l-9.072-10.12s-2.334-4.212-.108-10.2c1.027-2.769 2.922-4.816 5.183-6.298.65 2.088 3.304 10.247 5.148 11.305 1.435.826 1.92 1.41 2.085 1.701a.602.602 0 0 1 .083.215z"/><path fill="#34ADC1" d="M32.824 42.783s6.79.954 9.438 6.563c2.643 5.61 4.233 7.105 5.189 7.853.955.748 2.385 3.343.449 4.524-1.936 1.181-4.75.338-6.578-2.139-1.822-2.48-2.246-3.32-3.944-2.48-1.699.839-5.298 2.435-6.573-1.592-1.27-4.027-6.887-12.824 2.014-12.729h.005z"/></symbol><symbol id="transport4" viewBox="0 0 139 123"><path fill="#fff" fill-opacity=".32" fill-rule="evenodd" d="M64.436 1.601c14.842 1.301 27.53 8.093 39.475 15.518 11.774 7.318 23.9 15.167 28.532 26.754 4.648 11.623 2.353 24.496-3.554 35.719-5.536 10.518-17.263 17.023-28.009 24.249-11.442 7.694-21.753 18.255-36.444 19.091-15 .854-28.955-6.505-40.266-14.726-10.587-7.694-17.229-18.238-20.673-29.562-3.265-10.736-.514-21.47 1.84-32.369C8.112 33.42 6.766 18.419 18.399 9.625 30.282.642 48.451.2 64.436 1.6z" clip-rule="evenodd"/><path fill="#FBA7A6" d="M108.536 37.68c-6.412 2.255-63.552 22.935-104.213 57.648-2.228 1.901-1.168 5.245 1.851 5.837l29.953 5.855c2.451.478 5.016 0 7.048-1.304 14.41-9.286 73.654-47.195 94.212-56.173 1.293-.565 1.2-2.223-.144-2.673l-27.528-9.19a1.82 1.82 0 0 0-1.179.01v-.01z"/><path fill="#1C5360" d="M47.147 19.807c-.502 0-.988-.23-1.262-.639-.408-.615-.176-1.414.517-1.777L79.308.179c.692-.363 1.592-.156 2 .46.409.615.176 1.414-.517 1.776L47.886 19.623a1.563 1.563 0 0 1-.74.179v.005zm2.342 3.228c-.502 0-.988-.23-1.262-.638-.409-.616-.176-1.415.517-1.777l16.587-8.675c.693-.363 1.593-.157 2.001.459.409.615.176 1.414-.517 1.777l-16.587 8.675a1.563 1.563 0 0 1-.74.179zm20.966-10.494c-.501 0-.987-.23-1.261-.638-.409-.616-.176-1.415.517-1.777l4.198-2.196c.693-.362 1.593-.156 2.001.46.409.615.176 1.414-.517 1.777l-4.198 2.195c-.233.124-.486.18-.74.18zm-3.179 13.994c-.502 0-.988-.23-1.262-.639-.408-.615-.176-1.414.517-1.777l4.198-2.195c.693-.363 1.593-.156 2.002.46.408.615.175 1.414-.517 1.776l-4.199 2.196a1.563 1.563 0 0 1-.74.179zM51.65 28.79c-.501 0-.987-.23-1.261-.639-.409-.615-.176-1.415.517-1.777l23.32-12.197c.692-.363 1.592-.157 2 .459.409.615.176 1.414-.517 1.777L52.39 28.61c-.233.124-.486.18-.74.18zm-.255 5.643c-.502 0-.988-.23-1.262-.639-.408-.615-.176-1.414.517-1.777l11.758-6.15c.693-.362 1.593-.155 2.001.46.408.615.176 1.415-.517 1.777l-11.758 6.15a1.575 1.575 0 0 1-.74.179zm-3.301 7.784c-.502 0-.988-.23-1.262-.638-.408-.616-.175-1.415.517-1.778l22.554-11.797c.693-.363 1.593-.157 2.001.459.409.615.176 1.414-.517 1.777L48.833 42.038a1.56 1.56 0 0 1-.74.179zm-6.098 8.239c-.501 0-.987-.23-1.261-.638-.409-.615-.176-1.415.517-1.777l17.145-8.965c.693-.362 1.593-.156 2.001.46.409.615.176 1.414-.517 1.777l-17.145 8.964c-.233.124-.486.18-.74.18z"/><path fill="#65CEE0" d="M66.498 65.96c.295.156.507.257.569.29-.073-.033-.31-.138-.569-.29z" opacity=".4"/><path fill="#1C5360" d="M48.712 33.431c.308-.457.318-.955.021-1.113-.296-.158-.786.085-1.094.541-.309.457-.319.956-.022 1.113.296.158.786-.084 1.095-.541z"/><path fill="#FBA7A6" d="M48.54 20.482c-.502 0-.988-.23-1.262-.639-.409-.615-.176-1.414.517-1.777L80.7.86c.693-.363 1.593-.157 2.001.459.409.615.176 1.414-.517 1.777L49.279 20.303a1.563 1.563 0 0 1-.74.179zm2.345 3.233c-.502 0-.988-.23-1.262-.639-.408-.615-.175-1.414.517-1.777l16.588-8.675c.692-.363 1.592-.156 2 .46.409.615.176 1.414-.516 1.777l-16.588 8.675a1.56 1.56 0 0 1-.739.179zm20.963-10.499c-.502 0-.988-.23-1.262-.638-.408-.615-.176-1.414.517-1.777l4.199-2.195c.693-.363 1.592-.156 2 .459.41.615.177 1.414-.516 1.777l-4.199 2.195c-.232.124-.486.18-.74.18zM68.674 27.21c-.502 0-.988-.23-1.262-.64-.408-.615-.175-1.414.517-1.776l4.199-2.196c.693-.362 1.593-.156 2 .46.41.615.177 1.414-.516 1.777l-4.199 2.195a1.56 1.56 0 0 1-.739.18zm-15.631 2.259c-.501 0-.987-.23-1.261-.638-.409-.616-.176-1.415.517-1.778l23.319-12.197c.693-.363 1.592-.156 2 .46.41.615.177 1.414-.516 1.777L53.782 29.29a1.557 1.557 0 0 1-.739.179zm-.256 5.639c-.501 0-.987-.23-1.261-.638-.409-.615-.176-1.414.517-1.777l11.758-6.15c.692-.362 1.592-.155 2 .46.409.615.176 1.414-.517 1.777l-11.757 6.15a1.574 1.574 0 0 1-.74.178zm-3.301 7.789c-.501 0-.987-.23-1.261-.639-.409-.615-.176-1.414.517-1.777l22.554-11.798c.693-.363 1.592-.156 2 .46.41.615.177 1.414-.516 1.777L50.226 42.717c-.233.125-.486.18-.74.18zm-6.097 8.234c-.502 0-.988-.23-1.262-.638-.408-.616-.176-1.415.517-1.778l17.146-8.964c.693-.363 1.592-.156 2 .46.41.615.177 1.414-.516 1.777l-17.146 8.964a1.56 1.56 0 0 1-.74.179z"/><path stroke="#fff" stroke-linecap="round" stroke-linejoin="round" stroke-width="16" d="M116.575 43.572s-61.106 27.912-92.18 53.446"/><path fill="#1C5360" d="M42.998 77.413s.393.73-.176 1.8c-.564 1.074-1.743.859-2.606 2.209-.858 1.345-2.554 4.689-3.392 5.635-.832.95-4.56 4.137-7.25 3.127-2.688-1.006-5.5-2.498-3.293-4.51 2.213-2.007 4.38-1.975 4.814-3.288.434-1.313.197-2.884 1.965-3.215 0 0 3.144-2.319 5.915-3.669a14.208 14.208 0 0 1 1.613-.68c.786-.261 1.458-.358 1.919-.188.522.198.806.478.94.785.383.882-.455 1.994-.455 1.994h.006z"/><path fill="#2F7C89" d="M43.459 75.42c-.672 1.487-3.506 3.246-3.506 3.246l-.967-3.164a14.217 14.217 0 0 1 1.495-.638h.056s.026-.019.068-.041c.786-.262 1.458-.359 1.918-.189.522.198.807.478.941.785h-.005z"/><path fill="#43ABC4" d="M42.827 67.916l.352 4.716c.046.593-.243 1.167-.765 1.534l-2.797 1.888-2.41-7.922 5.62-.216z"/><path fill="#1C5360" d="M43.66 71.755c.015.143-.114.267-.274.262a.263.263 0 0 1-.176-.064.247.247 0 0 1-.088-.152l-.02-.179-.358-3.2c-.026-.23-.315-.354-.532-.226l-.936.551a.972.972 0 0 0-.465.602l-.187.753-.015.06-.155-.092-1.257-.721-.258-.152-1.262-.725-.372-.212-.062-.036-.388-.225-.062-.037-1.029-.593-.114-.064.16-.142.016-.014.92-.813.078-.069.222-.197.063-.055.051-.046 1.107-.978s.046.009.103.032c.15.06.455.202.843.39.305.147.662.326 1.034.51 1.127.56 2.394 1.212 2.828 1.437.098.05.16.138.17.24l.404 4.155h.01zM32.074 75.18s-.435 1.319-1.536 2.14c-1.101.823-3.035 2.476-2.549 5.135l.114.964s.63 2.297 4.338-.046c0 0 1.024-3.59 1.577-4.183.553-.593 3.82-1.258 3.997-3.063.175-1.805-.073-3.008-1.83-3.16-1.759-.151-3.827 1.621-4.111 2.218v-.004z"/><path fill="#1C5360" d="M28.5 83.787s-1.498.455-1.922 1.171c-.424.717-.435 1.318-.3 1.318.134 0 .387.97 1.747.63 1.36-.34 2.601-1.162 3.139-1.153.537.009.822-.35.832-.95.01-.602-.098-1.686-.64-1.695-.544-.01-2.012-.878-2.86.675l.005.004z"/><path fill="#FC624E" d="M31.472 85.238s-1.422.809-1.81 1.654c-.392.845-.397 1.478-.268 1.45.13-.027.377.933 1.665.276 1.287-.656 2.456-1.79 2.968-1.901.512-.11.775-.546.78-1.18.006-.634-.113-1.75-.63-1.64-.517.11-1.924-.477-2.71 1.341h.005z"/><path fill="#53D0E5" d="M34.475 76.669s-.434 1.318-1.535 2.14c-1.102.822-3.304 2.47-2.818 5.13l.119.725s.517 2.315 3.422.937a2.218 2.218 0 0 0 1.164-1.245c.408-1.143 1.194-3.25 1.598-3.678.553-.592 3.82-1.258 3.997-3.063.175-1.805-.073-3.008-1.83-3.16-1.759-.151-3.827 1.621-4.111 2.219l-.006-.005z"/><path fill="#F23E30" d="M35.16 67.149c.18.39.134.836-.124 1.19l-1.215 1.685a7.178 7.178 0 0 1-2.28 2.02l-1.816 1.029c-.682.386-1.597.225-2.052-.367-.466-.602-.274-1.42.419-1.815l1.189-.68a7.12 7.12 0 0 0 2.207-1.937l1.06-1.433c.704-.826 2.177-.657 2.612.303v.005z"/><path fill="#1C5360" d="M34.771 64.444s-2.234.946-2.342 3.215c-.109 2.269 1.597 3.591 1.597 3.591s-1.7-4.817 2.234-6.048l-1.489-.758z"/><path fill="#FC624E" d="M33.194 67.429s-.424.716-.186 2.282c.237 1.571.49 2.297.346 2.894-.15.597-1.137 2.507-.476 3.242.662.735 5.378 2.741 7.358-.482.926-1.511 1.08-3.298.14-7.063-.202-.8-1.283-1.185-2.125-1.511-1.52-.588-4.245-1.314-5.057.638z"/><path stroke="#FFD6D6" stroke-linecap="round" stroke-miterlimit="10" stroke-width="4" d="M35.304 68.081s-.636 1.42-.424 2.457c.212 1.038.212 3.495-.108 4.064-.32.565-.745 1.892-.745 1.892"/><path fill="#1C5360" d="M41.529 85.03s-2.529.157-3.01-.94l1.417-2.995 1.593 3.94v-.004z"/><path fill="#98EBF4" d="M45.091 79.934l.026.955c.026.932-.367 1.975-1.06 2.797-1.748 2.084-4.281 1.722-4.38-.63l-.035-.941c-.042-.964.377-2.048 1.106-2.893l.01-.014c1.769-2.043 4.266-1.626 4.333.726z"/><path fill="#1C5360" d="M44.12 80.788l.01.427c.01.413-.166.877-.47 1.245-.776.927-1.909.767-1.95-.28l-.016-.418c-.015-.432.166-.914.491-1.29h.006c.786-.915 1.897-.731 1.928.316z"/><path fill="#43ABC4" d="M37.3 61.639l-.098.578-.259 1.53-.026.027-.269.294-.062.069h-.005l-.18.207-.482.518-.005.005-.098.11-.12.129-.604.657-.02.022-.032.037-.041.046-.274.294-.088.096h-.072a1.25 1.25 0 0 1-.688-.21c-.01-.01-.026-.02-.036-.028a1.192 1.192 0 0 1-.409-.602c-.119-.372-.134-.91.057-1.685.083-.331.197-.611.341-.845.972-1.594 3.16-1.295 3.444-1.25.015 0 .026.005.026.005v-.004z"/><path fill="#1C5360" d="M34.787 65.67c-.01.262-.015.39-.072.492a.392.392 0 0 1-.088.096s-.435.042-.797-.234c.099-.413-.04-1.355-.04-1.355l.004-.009c.02-.027.093-.105.212-.206l.005-.005c.057-.046.145-.055.233-.046.155.014.31.083.31.083s.062.225.124.486c.057.249.109.529.104.699h.005z"/><path fill="#F4CAAE" d="M37.303 66.36c-.17.702-.719 1.634-1.98 1.584-1.262-.05-1.267-1.24-1.236-2.067v-.317a3.63 3.63 0 0 0-.062-.528 1.017 1.017 0 0 1 .18-.785c.063-.087.14-.17.233-.239l1.02-.79s.402.487 1.504 1.12c1.101.635.512 1.319.341 2.021z"/><path stroke="#2F7C89" stroke-miterlimit="10" d="M35.232 65.326l-.16.928c-.01.069.046.133.129.133l.264.01m-.791.39l.165.078a.997.997 0 0 0 .77.032l.171-.065"/><path fill="#43ABC4" d="M39.368 65.262a2.93 2.93 0 0 1-.79 1.153l-.042.036-.041.033c-.155.124-.31.22-.46.289l-.063.028a1.25 1.25 0 0 1-.196.064c-.016.004-.031.009-.047.009-.103.023-.196.028-.279.023-.015 0-.036 0-.052-.01h-.005a.167.167 0 0 1-.046-.008l-.047-.014c-.01-.005-.026-.01-.036-.019a.24.24 0 0 1-.078-.06c-.01-.008-.015-.022-.025-.032-.005-.009-.016-.022-.021-.032v-.004c0-.01-.005-.014-.01-.023 0-.005-.006-.014-.006-.018a.121.121 0 0 0-.01-.037v-.161c0-.032.005-.06.01-.092 0-.027.006-.055.006-.082 0-.033.005-.065.005-.097 0-.028 0-.06.005-.087 0-.055.005-.11.005-.165a4.4 4.4 0 0 0-.026-.662c-.005-.05-.01-.1-.02-.147a2.143 2.143 0 0 0-.042-.206c-.005-.028-.015-.056-.02-.079-.006-.027-.016-.05-.026-.078-.005-.023-.016-.046-.026-.069-.02-.045-.036-.091-.057-.137 0-.005 0-.01-.005-.014-.01-.023-.02-.041-.031-.064-.01-.019-.02-.032-.031-.05 0-.005-.005-.01-.01-.015l-.016-.027a.31.31 0 0 0-.036-.05c-.026-.037-.057-.07-.083-.102l-.047-.041a.257.257 0 0 0-.046-.037c-.01-.009-.026-.018-.036-.027 0 0-.005 0-.01-.005-.006 0-.01-.01-.021-.01a.478.478 0 0 0-.238-.063c-.031 0-.057 0-.083.009a.677.677 0 0 1-.367-.032c-.31-.106-.59-.359-.59-.359s-.005-.05-.005-.137v-.202c.006-.074.016-.156.026-.248.052-.317.181-.703.476-1.002.258-.261.651-.454 1.24-.463.084 0 .166 0 .244.004 1.329.097 2.172 1.203 2.27 2.407.03.408-.02.826-.17 1.217l.01-.005z"/><path fill="#1C5360" d="M38.38 65.69c.006-.196-.111-.357-.263-.36-.151-.004-.278.151-.284.346-.006.195.112.357.263.36.152.004.279-.152.285-.347z"/><path fill="#1C5360" d="M38.576 66.415c-.398.349-.832.51-1.127.482-.232-.023-.372-.161-.346-.423.165-1.433-.186-2.135-.548-2.337.212-.156.377-.262.377-.262l.46.377s.124 1.11.036 1.933c-.03.285.254.533.585.487.16-.023.351-.097.563-.248v-.01z"/><path fill="#2F7C89" d="M34.513 65.9h-.103c-.104-.01-.186-.083-.181-.17l.036-.868c0-.087.093-.151.196-.147h.104c.103.01.186.083.18.17l-.035.868c0 .087-.093.151-.197.147zm1.587.147h-.104c-.104-.009-.187-.082-.181-.17l.036-.867c0-.088.093-.152.196-.148h.104c.103.01.186.083.18.17l-.036.868c0 .088-.093.152-.196.147z"/><path fill="#F78161" d="M37.174 64.701s-.869 1.029-2.255 1.093c-.413.019-.672-.082-.832-.23a3.627 3.627 0 0 0-.062-.528 1.017 1.017 0 0 1 .18-.785c1.045-.647 2.974.46 2.974.46l-.005-.01z" opacity=".58" style="mix-blend-mode:multiply"/><path fill="#98EBF4" d="M37.232 64.872c-.29.115-.672.202-1.112.23a4.95 4.95 0 0 1-2.063-.327 1.613 1.613 0 0 1-.455-.248c-.719-.587.678-1.276.678-1.276.17-.06.34-.101.496-.129a2.427 2.427 0 0 1 1.194.101c.678.234 1.164.721 1.433 1.06.16.203.082.483-.176.584l.005.005z"/><path fill="#C5FCFF" d="M36.058 65.014c.03.032.046.064.062.087a4.95 4.95 0 0 1-2.063-.326 1.612 1.612 0 0 1-.455-.248c.196-.037.537-.1.817-.17.418-.1-.264-.363-.249-.716.016-.354.967.037 1.133-.115.093-.087-.228-.262-.528-.4a2.427 2.427 0 0 1 1.195.102c.02.05.062.096.15.137.274.129.413.019.537.377.125.358-.982.317-1.535.294-.553-.023.398.372.93.983l.006-.005z"/><path fill="#F4CAAE" d="M28.762 71.397s.791 1.097.104 1.446c-.497.253-.957.464-1.086.101-.088-.257.413-.353.553-.473.14-.119-.651-1.212.43-1.074z"/><path fill="#43ABC4" d="M27.301 71.512c1.443.735 5.704 3.026 7.188 3.825.279.152.351.483.16.717l-.16.192a.613.613 0 0 1-.74.138l-1.179-.62a.62.62 0 0 0-.6.019l-.832.514a2.095 2.095 0 0 1-1.08.299h-.854c-.78-.01-1.473-.437-1.753-1.084l-.108-.253a1.495 1.495 0 0 1-.042-1.079l.083-.234c.14-.4.031-.836-.28-1.153l-.506-.514a.449.449 0 0 1-.057-.584c.155-.23.491-.307.755-.174l.005-.01z"/><path fill="#F78161" d="M26.22 71.581s-.692.712-.16 1.199c.533.491.41-.115.41-.115l.289-.836.14-.239s-.399-.367-.678-.009z"/><path fill="#F78161" d="M26.356 71.824s-.693.712-.16 1.198c.532.487.408-.114.408-.114l.29-.836.139-.239s-.398-.367-.677-.01z"/><path fill="#F78161" d="M26.754 72.072s-.693.712-.16 1.199c.532.487.408-.115.408-.115l.29-.836.14-.238s-.399-.368-.678-.01z"/><path fill="#F4CAAE" d="M26.501 71.347s1.38-1.3 2.177-.326c.993 1.221-.574 1.432-.848 1.552-.274.12-.553.473-.424.716.13.243-.553.473-.538-.129.016-.601.29-.835.29-.835s-.946-.014-.941-.377c.005-.363.284-.597.284-.597v-.004z"/><path fill="#328C9B" d="M42.549 79.842c-.662.432-1.94 1.273-2.343 1.617-.553.473-2.538 4.652-3.112 6.204 0 0 0 .005-.005.014-.59 1.548-3.584 3.173-3.584 3.173l-.408.207-.791.404c-.507.257-1.102.028-1.293-.404a.721.721 0 0 1-.057-.381l.104-.859c.051-.413.455-.726.92-.712.15 0 .295-.004.44-.023.997-.133 1.856-.808 2.58-1.713 1.66-2.066 2.652-5.35 3.18-6.314.527-.97 2.207-1.961 3.381-2.563.15-.078.31-.11.465-.105.388.004.75.239.853.597a.432.432 0 0 1 .026.137c.026.28-.113.547-.362.717l.006.004z"/><path fill="#43ABC4" d="M33.96 90.133v.014a.922.922 0 0 1-.506.712c-.114.06-.238.128-.367.197-1.34.753-3.418 2.048-4.902 2.214l-.16.013a.272.272 0 0 1-.098-.023c-.037-.013-.083-.036-.14-.064-.222-.11-.59-.225-1.04-.335-1.799-.446-4.968-.914-6.028-1.58-.114-.073-.884-1.125-.957-1.23-.082-.12-.088-1.65-.108-1.796-.124-1.153.775-4.625 3.516-7.33.294-.289.76-.385 1.168-.238l4.964 1.782c.098.036.191.087.269.142.248.183.398.464.377.762-.088 1.539-.036 5.29 2.456 5.708.15.028.305.037.476.037.414 0 .776.202.956.5a.827.827 0 0 1 .114.51l.01.005z"/><path fill="#1C5360" d="M27.932 93.266c-.823-.313-5.492-3.683-6.882-4.56-.114-.074.486 1.083.413.982.553-.349.652-.335.957-.464.548-.23 2.021.515 2.021.515l1.272.321c.786.198 1.396.753 1.593 1.456.207.74.476 1.594.62 1.75h.006z"/><path fill="#43ABC4" d="M23.613 90.685s2.198-1.286 3.103.776c0 0 .553-1.033.025-1.543-.527-.51-2.564-.183-3.128.767z"/><path fill="#98EBF4" d="M28.418 74.047l-.176.39a.468.468 0 0 0 0 .39l.264.56a.593.593 0 0 0 .573.313l.926-.055a.592.592 0 0 0 .45-.234l.269-.368a.473.473 0 0 0-.099-.66l-.563-.456a.572.572 0 0 0-.32-.128l-.725-.078c-.263-.028-.511.105-.61.321l.01.005z"/><path fill="#5CCEE0" d="M45.91 80.582c-.015.239-.144.487-.429.684a.362.362 0 0 1-.062.037L42.87 82.68l-1.272.69-.119.059a2.464 2.464 0 0 1-2.14.028.829.829 0 0 1-.31-.267c-.358-.519.216-1.281 1.002-1.01a.677.677 0 0 0 .62-.083c.771-.491 2.84-1.81 3.636-2.314.827-.487 1.66.133 1.618.79l.005.009z"/><path fill="#1C5360" d="M39.027 66.433s-2.234.946-2.342 3.214c-.109 2.269 1.597 3.591 1.597 3.591s-1.7-4.817 2.234-6.048l-1.49-.757z"/><path fill="#328C9B" d="M37.094 87.663s0 .004-.005.014c-.59 1.547-3.583 3.173-3.583 3.173l-.409.206c-1.339.754-3.417 2.049-4.901 2.214l-.16.014a.272.272 0 0 1-.099-.023c-.036-.014-.082-.037-.14-.064-.222-.11-.589-.226-1.038-.336-2.69-1.956-.171-7.908-.171-7.908l2.999-2.337c.248.183.398.464.377.762-.088 1.538-.036 5.29 2.456 5.708.998-.133 1.856-.808 2.58-1.713l2.09.29h.004z"/><path fill="#F23E30" d="M41.192 68.095c.238.367.259.813.057 1.194l-.946 1.814a6.829 6.829 0 0 1-1.955 2.278l-1.644 1.24c-.62.468-1.551.413-2.094-.12-.553-.542-.486-1.373.14-1.85l1.075-.813a6.87 6.87 0 0 0 1.893-2.182l.837-1.543c.574-.905 2.053-.91 2.637-.014v-.004z"/><path fill="#F78161" d="M32.49 74.588s-.692.712-.16 1.2c.533.486.409-.116.409-.116l.29-.835.139-.24s-.398-.367-.678-.008z"/><path fill="#F78161" d="M32.621 74.832s-.693.712-.16 1.199c.533.486.409-.115.409-.115l.289-.836.14-.239s-.398-.367-.678-.009z"/><path fill="#F78161" d="M33.024 75.08s-.693.712-.16 1.198c.532.487.408-.115.408-.115l.29-.835.139-.24s-.398-.366-.677-.008z"/><path fill="#F4CAAE" d="M32.763 74.35s1.38-1.3 2.177-.327c.992 1.222-.574 1.433-.848 1.553-.274.119-.553.473-.424.716.129.243-.553.473-.538-.129.015-.601.29-.835.29-.835s-.947-.014-.942-.377c.006-.363.285-.597.285-.597v-.004z"/><path fill="#1C5360" d="M17.736 93.114s.739 4.409 5.134 4.211c4.4-.197-2.037-3.435-2.037-3.435l-3.102-.776h.005z"/><path fill="#1C5360" d="M23.218 97.297s-2.528.157-3.009-.941l1.417-2.994 1.592 3.94v-.005z"/><path fill="#98EBF4" d="M26.777 92.2l.026.955c.025.933-.367 1.975-1.06 2.797-1.748 2.085-4.281 1.722-4.38-.629l-.036-.941c-.041-.965.377-2.049 1.106-2.894l.01-.013c1.77-2.044 4.267-1.626 4.334.725z"/><path fill="#1C5360" d="M25.809 93.055l.01.427c.01.413-.165.877-.47 1.244-.776.928-1.908.767-1.95-.28l-.015-.418c-.016-.431.165-.914.49-1.29h.006c.786-.914 1.898-.73 1.929.317zm.841-17.281l4.353 2.153c.874.432 1.194 1.456.703 2.255l-2.182 3.55c-.424.694-1.132 1.19-1.96 1.387l-1.592.377c-1.251.294-2.554-.313-3.06-1.429l-.378-.83a3.302 3.302 0 0 1-.021-2.72l1.732-3.93c.388-.882 1.5-1.254 2.404-.809v-.004z"/><path fill="#43ABC4" d="M31.308 79.695l-2.182 3.55c-.424.69-1.133 1.19-1.96 1.387l-1.592.372c-1.107.262-2.25-.184-2.855-1.06a2.025 2.025 0 0 1-.206-.368l-.378-.831a3.302 3.302 0 0 1-.02-2.719l1.732-3.931c.387-.882 1.5-1.254 2.404-.804l1.954.965 2.4 1.19c.873.43 1.194 1.455.703 2.254v-.005z"/><path fill="#98EBF4" d="M28.385 76.563s-2.818-1.373-3.65-.422c-.833.95-2.389 3.93-2.42 5.373a6.616 6.616 0 0 0 .408 2.424 2.034 2.034 0 0 1-.206-.367l-.378-.831a3.302 3.302 0 0 1-.02-2.719l1.732-3.93c.387-.883 1.5-1.255 2.404-.804l1.954.964c.104.184.181.312.181.312h-.005zm-.253 5.53c.667-.184 1.226-.602 1.536-1.157l.041-.079c.125-.21-.098-.454-.356-.39l-2.767.694c-.527.133-.966.463-1.2.904l-.18.345c-.114.215.114.445.372.376l2.554-.693z"/><path fill="#98EBF4" d="M22.915 80.109a1.786 1.786 0 0 1-.031-1.58l.031-.069c.088-.197.398-.211.502-.018l1.096 2.034c.212.39.217.84.025 1.235l-.15.308c-.093.193-.403.193-.496 0l-.972-1.91h-.005z"/><path fill="#5CCEE0" d="M42.548 79.842c-.662.432-1.94 1.272-2.343 1.617-.553.473-2.538 4.652-3.112 6.204-.574 1.552-3.589 3.187-3.589 3.187l-.408.207c-1.34.753-3.418 2.048-4.902 2.213a2.38 2.38 0 0 1-.253-.009c-.052 0-.098-.027-.14-.064-.243-.22-.29-.914-.29-.914s1.852-.588 3.506-1.222c.848-.326 1.64-.661 2.105-.941.238-.142.486-.312.74-.5 1.209-.9 2.481-2.219 2.719-2.811.284-.717 2.41-5.015 3.107-5.846.693-.831 3.025-1.993 3.025-1.993l.186.018a.432.432 0 0 1 .026.138c.026.28-.114.546-.367.712l-.01.004z"/><path fill="#43ABC4" d="M26.71 91.46c-1.246-2.943-4.074.203-4.074.203v-.032c-.6.702-1.029 1.56-1.303 2.443-.284.909-1.205 1.465-2.161 1.465-.424 0-.859-.11-1.252-.35-.718-.44-1.096-1.216-.93-1.979.972-4.496 5.305-4.835 5.305-4.835l2.663.858c.222.028.444.083.651.152.3.096.574.216.786.317.17.078.305.142.383.165a.25.25 0 0 1 .134.096c.264.363-.212 1.498-.212 1.498h.01z"/><path fill="#328C9B" d="M26.71 91.46c-1.246-2.943-4.074.203-4.074.203v-.032c-.6.702-1.029 1.561-1.303 2.443-.284.909-1.205 1.465-2.161 1.465-.424 0-.859-.11-1.252-.35-.718-.44-1.096-1.216-.93-1.979.475 1.25 1.411 1.213 2.223.868a3.27 3.27 0 0 0 1.748-1.75c1.236-3.017 4.545-2.938 4.545-2.938l.103-.01c.3.097.574.216.786.317.17.078.305.143.383.166a.25.25 0 0 1 .134.096c.264.363-.212 1.497-.212 1.497l.01.005z"/><path fill="#98EBF4" d="M39.37 65.261a2.929 2.929 0 0 1-.79 1.153s.485-1.53.118-2.76c-.191-.652-.626-1.221-1.5-1.433l-.196-.041s-.527-.138-1.225-.083c-.6.046-1.324.24-1.955.79.972-1.593 3.16-1.295 3.444-1.249 1.329.096 2.172 1.203 2.27 2.407.03.408-.021.826-.17 1.216h.004z"/><path fill="#328C9B" d="M45.91 80.582c-.016.238-.145.486-.43.684a.356.356 0 0 1-.062.036L42.87 82.68l-1.272.69-.119.059a2.46 2.46 0 0 1-1.572.211 2.384 2.384 0 0 1-.568-.184.828.828 0 0 1-.31-.266l.103-.23s1.277.377 2.13 0c.853-.376 4.612-2.571 4.612-2.571l.036.183v.01z"/><path fill="#1C5360" d="M119.457 49.762c.006-1.869-1.52-2.627-3.391-1.676-1.872.95-3.403 3.27-3.408 5.157 0 1.02.378 1.759 1.138 2.209l2.037.905.258-1.125-.181-.244.135-.064c1.872-.965 3.402-3.288 3.407-5.157l.005-.005zm-8.293 4.707c.006-1.87-1.52-2.627-3.391-1.677-1.872.951-3.403 3.27-3.408 5.158 0 1.02.378 1.758 1.138 2.209l2.037.904.258-1.125-.181-.243.135-.065c1.872-.964 3.402-3.288 3.407-5.157l.005-.004z"/><path fill="#43ABC4" d="M122.39 26.497v21.956c0 .69-.315 1.337-.863 1.8a2.837 2.837 0 0 1-.522.354l-1.288.675-.703.368-1.598.836-2.538 1.331-1.732.91-.088.046-2.162 1.134-1.261.666-2.958 1.552-2.063 1.084-12.466 6.535a3.11 3.11 0 0 1-2.802.032L75.172 58.73c-.89-.44-1.442-1.276-1.442-2.181V34.966c0-.514.175-1.006.496-1.42.227-.298.532-.555.9-.743l29.591-15.357a3.116 3.116 0 0 1 2.828-.005l13.438 6.903c.315.16.584.372.802.615.118.133.222.276.31.432.191.34.294.725.294 1.116v-.01z"/><path fill="#65CEE0" d="M109.939 54.037c-1.872.95-3.403 3.27-3.408 5.157-.005 1.888 1.52 2.645 3.392 1.676 1.872-.964 3.402-3.288 3.408-5.157.005-1.869-1.521-2.627-3.392-1.676z"/><path fill="#1C5360" d="M110.296 56.085c-.879.446-1.597 1.534-1.603 2.42-.005.887.714 1.24 1.593.79.879-.45 1.598-1.543 1.603-2.42 0-.877-.714-1.23-1.593-.79z"/><path fill="#65CEE0" d="M118.232 49.325c-1.872.95-3.403 3.27-3.408 5.157-.005 1.888 1.52 2.646 3.392 1.677 1.872-.965 3.402-3.288 3.407-5.158.006-1.869-1.52-2.626-3.391-1.676z"/><path fill="#1C5360" d="M118.589 51.378c-.879.445-1.597 1.534-1.603 2.42-.005.886.714 1.24 1.593.79.879-.455 1.598-1.543 1.603-2.42.005-.877-.714-1.231-1.593-.79z"/><path fill="#7BDEEF" d="M122.388 28.527v1.566L88.976 47.305l-.765-1.171 34.177-17.607zm-.001 2.76v1.478l-33.122 17.06-.724-1.101 33.846-17.437zm.002 2.755v1.397L89.55 52.352l-.677-1.042 33.516-17.268zm0 2.76v1.304L89.84 54.873l-.64-.973 33.189-17.098zm-.001 2.76v1.217l-32.264 16.62-.595-.91 32.859-16.927zm-.001 2.756v1.134L90.413 59.925l-.554-.85 32.528-16.757zm.001 2.76v1.042l-31.69 16.326-.507-.78 32.197-16.588zm-.747-19.463l-34.44 18.04a.562.562 0 0 1-.507.004L74 37.409a.453.453 0 0 1-.264-.395v-2.062c0-.515.176-1.006.497-1.42.227-.298.532-.555.9-.743l29.59-15.357a3.118 3.118 0 0 1 2.829-.005l13.438 6.903c.315.16.584.372.801.615.187.211.114.528-.15.666v.004z"/><path fill="#2E7C89" d="M91.01 41.895V66.07a3.11 3.11 0 0 1-1.665-.303l-14.172-7.045c-.89-.44-1.442-1.276-1.442-2.18V34.955c0-.514.175-1.006.496-1.419l14.891 5.791c1.148.445 1.887 1.451 1.887 2.567h.005z"/><path fill="#1C5360" d="M85.534 65.78c.005-1.869-1.52-2.627-3.392-1.676-1.872.95-3.402 3.27-3.408 5.157 0 1.02.378 1.759 1.138 2.21l2.037.904.259-1.125-.181-.244.134-.064c1.872-.964 3.402-3.288 3.407-5.157l.006-.005z"/><path fill="#8BE9F2" d="M89.21 54.336v9.566c0 .519-.315.992-.822 1.249L75.11 71.81a1.805 1.805 0 0 1-1.603-.005l-9.384-4.826c-.496-.257-.807-.73-.807-1.24v-5.667c0-.5.295-.965.77-1.222l2.488-1.354c.217-.12.398-.276.527-.469l3.527-5.065a1.56 1.56 0 0 1 .165-.198c.109-.105.233-.197.372-.275l6.133-3.288a1.789 1.789 0 0 1 1.649-.01l9.24 4.795.222.115.026.014c.48.261.775.725.775 1.226v-.005z"/><path fill="#65CEE0" d="M84.302 65.348c-1.872.95-3.402 3.27-3.408 5.157-.005 1.888 1.52 2.645 3.392 1.677 1.872-.965 3.403-3.289 3.408-5.158.005-1.869-1.52-2.627-3.392-1.676z"/><path fill="#1C5360" d="M84.663 67.396c-.879.446-1.597 1.534-1.602 2.42 0 .887.713 1.24 1.592.79.879-.45 1.598-1.543 1.603-2.42.005-.877-.714-1.23-1.593-.79z"/><path fill="#43ABC4" d="M89.21 54.336l.021 3.78-13.909 6.787c-.822.404-1.318 1.185-1.287 2.02l.186 5.07a1.761 1.761 0 0 1-.714-.188l-9.384-4.826c-.496-.257-.807-.73-.807-1.24v-5.667c0-.5.295-.964.77-1.221l2.488-1.355c.217-.12.398-.276.527-.469l3.707-5.34 9.783 4.624 7.596-3.33.222.115s.016.01.026.014c.48.262.775.726.775 1.226z"/><path fill="#1C5360" d="M78.674 58.088l-2.746 3.99c-.289.423-.904.56-1.39.313l-2.017-1.042-3.237-1.672-.74-.381c-.49-.253-.656-.818-.366-1.25l2.663-3.986c.284-.427.905-.574 1.39-.326l.58.294 3.159 1.608 2.337 1.189c.501.257.667.827.367 1.263z"/><path fill="#65CEE0" d="M73.099 61.165a2.248 2.248 0 0 0-.58.188l-3.236-1.672c-.274-.95 2.823-.665 4.829-.771 2.161-.115-1.019-2.484-1.396-4.29-.062-.298-.02-.486.093-.592l3.16 1.608a2.12 2.12 0 0 0-.714.225c-.636.34.76 1.24 1.272 2.82.511 1.58-1.272 2.03-3.428 2.484z" opacity=".4"/><path fill="#1C5360" d="M85.627 55.81l-.326 3.123a.262.262 0 0 1-.14.193l-1.783.868-2.58 1.253-2.524 1.231c-.243.12-.511-.129-.362-.34l.486-.707.652-.941.352-.506 1.261-1.827.176-.253c.067-.096.14-.184.222-.266a2.384 2.384 0 0 1 .745-.523l.724-.327 1.36-.61 1.35-.607c.19-.087.413.05.392.239h-.005z"/><path fill="#65CEE0" d="M83.373 59.994l-2.58 1.253-.037-.013c-1.613-.602 2.632-2.329 3.139-3.233.507-.905-.848-.685-1.376-1.217l1.36-.611c-.14.156-.238.294-.238.358 0 .225 1.272.34 1.65.905.357.523-1.272 1.538-1.923 2.558h.005z" opacity=".4"/><path fill="#65CEE0" d="M82.622 58.115c-.227.51-2.497 1.254-3.231 1.87l1.261-1.828c.667-.046.74-.134.393-.52.104-.11.217-.206.341-.293 0 0 .006.004.01.009.461.312 1.474.202 1.221.767l.005-.005z" opacity=".4"/><path fill="#B4F6F9" d="M88.156 53.234l-6.654 2.953a2.392 2.392 0 0 1-2.042-.05l-8.661-4.382c.108-.105.232-.197.372-.275l6.132-3.288a1.788 1.788 0 0 1 1.65-.01l9.214 4.78-.01.267v.005z"/><path fill="#1C5360" d="M16.846 18.03l.1-.051c-.058.037-.09.066-.09.066l-.01-.015z"/><path fill="#1C5360" d="M21.251 19.255l-.32.386a.386.386 0 0 0-.094.252V31.66c0 .74-.44 1.428-1.158 1.805L3.49 41.969a.42.42 0 0 0-.238.367c0 .05.01.106.031.156.15.336-.212.675-.6.565-.703-.207-1.22-.44-1.602-.675-.47-.197-.848-.56-1.003-1.033-.073-.165-.073-.271-.073-.271s.005-.01.01-.014A1.228 1.228 0 0 1 0 40.867V28.063c0-.74.44-1.428 1.158-1.805l15.688-8.238.098-.05s.005-.005.01-.005l.32-.166c.29-.124.74-.238 1.355-.202.14-.014.274-.014.404 0 .145.037.294.083.455.133h.01c.362.11.75.253 1.122.423l.197.096c.056.028.113.056.165.088.104.137.207.289.31.454a.387.387 0 0 1-.036.464h-.005z"/><path fill="#1C5360" d="M20.835 20.15c-2.472.584-7.544.703-7.544.703l4.09-2.966c.419-.143.848-.253 1.24-.28.14-.014.275-.014.404 0 .145.036.295.082.455.133h.01c.362.11.75.252 1.123.422.067.032.129.065.196.097.057.027.114.055.165.087.456.248.854.546 1.112.91.269.38-.295.674-1.251.9v-.005zm10.869-2.525C21.466 22.905 13.09 35.91 13.09 46.515s8.376 14.898 18.614 9.53C41.94 50.68 50.318 37.678 50.318 27.153c0-10.526-8.377-14.815-18.614-9.53z"/><path fill="#FFDCDC" d="M33.735 18.864c-10.238 5.282-18.614 18.287-18.614 28.89 0 10.605 8.376 14.898 18.614 9.53C43.973 51.92 52.35 38.919 52.35 28.394c0-10.526-8.376-14.815-18.614-9.53z"/><path fill="#FBA7A6" d="M35.391 19.094c-10.237 5.281-18.614 18.287-18.614 28.89 0 10.604 8.377 14.898 18.614 9.53C45.63 52.15 54.005 39.148 54.005 28.622s-8.376-14.815-18.614-9.53z"/><path fill="#FCC" d="M35.69 22.212c-8.515 4.395-15.485 15.21-15.485 24.036 0 8.827 6.97 12.395 15.486 7.931 8.516-4.463 15.486-15.278 15.486-24.036 0-8.757-6.97-12.326-15.486-7.93z"/><path fill="#1C5360" d="M36.775 40.44c-.631.325-1.148 1.129-1.148 1.781 0 .652.517.919 1.148.588.63-.33 1.148-1.134 1.148-1.782 0-.648-.517-.914-1.148-.588z"/><path stroke="#1C5360" stroke-linecap="round" stroke-miterlimit="10" stroke-width="10" d="M36.502 41.844l.874-11.953m-.636 12.023l5.465-8.299"/><path fill="#1C5360" d="M37.589 24.958c.308-.457.318-.955.021-1.113-.296-.158-.786.085-1.094.541-.309.457-.319.955-.022 1.113.296.158.786-.084 1.095-.541zM23.174 45.096c.309-.456.319-.954.022-1.112-.296-.158-.786.084-1.095.541-.308.457-.318.955-.021 1.113.296.158.786-.085 1.095-.541zM37.56 50.93c.308-.456.317-.955.021-1.112-.296-.158-.786.084-1.095.54-.308.458-.318.956-.022 1.114.297.158.787-.085 1.095-.541z"/><path fill="#FFDCDC" d="M1.768 28.904v11.815c0 1.704 2.083 2.76 3.733 1.893l15.884-8.345c.755-.395 1.215-1.116 1.215-1.892V20.56c0-1.704-2.084-2.76-3.733-1.892L2.983 27.011c-.755.395-1.215 1.116-1.215 1.893z"/><path fill="#FBA7A6" d="M2.297 29.372v11.816c0 1.704 2.084 2.76 3.733 1.892l15.884-8.344c.755-.395 1.215-1.116 1.215-1.892V21.028c0-1.704-2.084-2.76-3.733-1.892L3.512 27.48c-.755.395-1.215 1.116-1.215 1.892z"/><path fill="#1C5360" d="M8.594 40.67c-.083.045-.119 0-.124-.139l-.036-3.586c0-.138.036-.22.119-.262l.517-.27c.082-.047.119 0 .124.137l.01 1.203.558-.294-.01-1.203c0-.138.036-.22.119-.262l.517-.27c.083-.047.119 0 .124.137l.036 3.587c0 .137-.036.22-.119.261l-.517.271c-.082.046-.119 0-.124-.137l-.01-1.231-.558.294.01 1.23c0 .138-.036.22-.12.262l-.516.271zm3.416-1.714c-.838.441-1.045.092-1.05-.583l-.02-1.887c-.006-.675.19-1.24 1.029-1.681.837-.44 1.039-.083 1.05.592l.02 1.888c.005.675-.191 1.235-1.024 1.671h-.005zm-.01-1.07c.242-.128.279-.257.279-.408l-.016-1.488c0-.143-.041-.235-.284-.106-.243.129-.28.257-.28.404l.016 1.488c0 .152.042.239.284.115v-.005zm2.488-.229c-.827.436-1.039.087-1.044-.588l-.026-2.742c0-.137.036-.22.119-.261l.522-.276c.083-.046.119 0 .124.138l.026 2.526c0 .151.041.239.28.114.237-.123.273-.257.273-.404l-.026-2.525c0-.138.031-.216.12-.262l.506-.267c.083-.045.119 0 .124.138l.026 2.742c.005.675-.191 1.235-1.024 1.671v-.004zm1.598-.919c-.083.046-.119 0-.124-.138l-.036-3.586c0-.138.036-.22.119-.262l1.111-.583c.502-.262.662.032.667.578V33c.006.308-.041.556-.18.73.242-.083.408.124.413.593l.01 1.175c0 .138-.036.22-.118.262l-.518.27c-.082.047-.119 0-.124-.137l-.01-.845c0-.165-.036-.22-.13-.17l-.465.243.01 1.084c0 .138-.035.22-.118.262l-.517.271h.01zm.61-2.613l.248-.133c.12-.06.145-.188.145-.335v-.189c0-.151-.036-.243-.15-.183l-.248.133v.707h.005zm1.809 1.341c-.083.046-.119 0-.124-.138v-.647c-.01-.138.026-.22.114-.262l.9-.473c.056-.027.087-.12.087-.206 0-.129-.03-.161-.087-.143l-.502.147c-.316.087-.522-.027-.527-.647v-.584c-.01-.629.243-1.11.677-1.336l.936-.491c.082-.046.119 0 .124.137v.657c.01.138-.031.22-.114.262l-.78.409c-.058.032-.089.114-.089.21 0 .102.037.148.093.13l.497-.152c.315-.087.522.028.532.643v.583c.01.634-.243 1.111-.677 1.336l-1.055.556-.005.01zm-9.955.528c-.207.11-.3.005-.305-.34L8.22 33.28c-.02-2.14.517-2.92 1.277-3.71l1.112-1.167c.176-.174.222-.312.222-.615 0-.276-.062-.326-.227-.239l-1.81.95c-.207.11-.3.005-.305-.34l-.015-1.616c0-.344.088-.546.294-.656l2.456-1.29c.952-.502 1.474.031 1.49 1.52l.015 1.299c.015 1.396-.47 2.287-1.277 3.127l-1.127 1.19c-.166.17-.217.225-.212.528v.289l2.378-1.25c.207-.11.3-.004.305.34l.016 1.617c0 .345-.088.547-.295.657L8.55 35.999v-.005zm6.664-5.818c-1.08.57-1.525.078-1.54-1.497l-.047-4.845c0-.345.088-.547.295-.657l1.292-.68c.207-.11.3-.004.305.34l.037 3.785c0 .289.103.417.263.335l.776-.409-.041-4.252c0-.345.087-.547.294-.657l1.283-.675c.206-.11.3-.005.305.34l.087 8.945c0 .345-.087.547-.294.652l-1.283.676c-.206.11-.3.004-.305-.34l-.02-1.81-1.407.74v.009zm4.269-12.441a4.254 4.254 0 0 0-.858-.128c.14-.014.274-.014.403 0 .145.036.295.082.455.133v-.005z"/></symbol><symbol id="transport2" viewBox="0 0 125 100"><path fill="#fff" fill-opacity=".48" fill-rule="evenodd" d="M71.946 100c14.964 0 28.097-11.09 20.722-26.155-7.376-15.064 20.028-14.577 28.077-24.989 9.817-12.697 6.974-66.594-56.046-33.735-10.096 5.263-36.022-5.415-44.622-.117C9.954 21.241-4.29 34.012 9.954 47.094c7.015 6.444-18.137 23.17-7.12 38.15 10.748 14.62 18.283.684 34.649 3.665C53.848 91.891 60.832 100 71.946 100z" clip-rule="evenodd"/><path fill="#1C5360" d="M112.496 48.059l-1.62 1.424a5.3 5.3 0 0 0-.569-.341l-21.92-11.17a5.164 5.164 0 0 0-4.596-.014L33.135 63.356a4.771 4.771 0 0 0-1.103.764l.602-3.433s-5.206 5.112-.893 8.784a4.6 4.6 0 0 0 1.244.99l21.827 11.944a5.152 5.152 0 0 0 4.77.054L110.33 56.29a4.493 4.493 0 0 0 1.466-1.187c2.209-2.64.699-7.04.699-7.04v-.004z"/><path fill="#7BDEEF" d="M88.73 34.806l21.92 11.17c3.102 1.581 3.114 5.548.02 7.144L61.496 78.478c-2.447 1.263-5.48 1.227-7.891-.09l-20.28-11.093c-3.013-1.647-2.928-5.56.153-7.105l50.657-25.398a5.164 5.164 0 0 1 4.595.014z"/><path fill="#E88282" d="M112.646 32.057l-5.456 18.127-18.819 9.691-.109.058-9.796-6.334-4.422-2.86-4.257-2.754 4.014-20.677.073-.334 19.08-4.942 19.692 10.025z"/><path fill="#FCC" d="M112.645 32.057l-18.629 6.452-20.143-11.535 19.081-4.942 19.691 10.025z"/><path fill="#D85B5B" d="M112.645 32.056l-5.455 18.127-18.819 9.691 5.646-21.366 18.628-6.452z"/><path fill="#FFF3F3" d="M74.33 50.87l4.923-20.957 19.307-5.137 4.555 2.343-19.093 5.623-5.605 20.875-4.087-2.747z"/><path fill="#DBA7A7" d="M84.022 32.742L78.465 53.6l-4.422-2.858.133-.284 5.076-20.544 4.77 2.83z"/><path fill="#E88282" d="M78.627 57.595L57.454 69.8l-.028.017-18.928-7.83-6.667-27.603-14.538-1.373L38.95 21.476l13.052.351.432.01 21.5 8.426.34 1.98 4.353 25.35z"/><path fill="#E88282" d="M51.49 21.912L31.83 34.387l-14.537-1.374 21.96-11.671 12.236.57z"/><path fill="#FBA7A6" d="M52.129 21.748l18.172-1.51L89.988 30.54l-16.052-.276-21.807-8.515z"/><path fill="#7BDEEF" d="M73.934 32.135L50.613 43.17l-11.049-4.412-4.947-1.976s-3.09-.775-2.936-1.714c.154-.94 3.183-1.173 1.971-1.173-.727 0-.581-.764-.016-1.808.371-.692.929-1.506 1.53-2.303.558-.735 1.51-.943 2.383-1.043 1.486-.173 2.742-.026 1.405-1.654-1.199-1.46-.222-2.468 1.236-3.368.658-.405 1.413-.789 2.116-1.18.497-.276.961-.556 1.345-.854 2.12-1.642 2.88.119 4.24-1.879 1.365-1.998 5.303.352 5.303.352s.759-.352 1.667 0c.808.315.897 1.93 2.08 2.198.145.033.311.047.493.033.605-.044 1.175-.008 1.68.118.824.204 1.482.646 1.878 1.374.028.05.056.1.08.154.222.473.485.835.796 1.094.537.448 1.22.58 2.084.434 1.365-.233 3.182.94 3.634 1.76.121.22.36.395.67.535.86.395 2.266.52 3.267.52 1.365 0 2.423 3.76 2.423 3.76l-.012-.004z"/><path fill="#49C1CE" d="M52.277 29.851c-2.274.961-8.178 2.335-8.48.685-.304-1.646-2.577-.961-3.183-.961-.545 0-2.564.222-3.07-.836 1.487-.172 2.743-.025 1.406-1.653-1.2-1.46-.222-2.468 1.236-3.368.198 1.044.614 2.148 1.49 2.148 1.668 0 4.24-.825 4.394.685.153 1.51 1.97 2.472 2.88 2.335l4.542-.685s1.062.685-1.211 1.646l-.004.004zm13.023-.409c.154.961-1.668 1.51-3.634 1.51-1.967 0-1.365 1.786-1.817 2.747-.457.962-3.788 1.374-6.817.686-3.029-.685-3.182-2.06-3.182-2.06s1.667.686 3.634.826c1.967.14 2.726-1.098 3.182-2.884.457-1.786 2.423-1.374 3.332-1.51.909-.136 1.211-1.922 1.211-2.884 0-.319.267-.563.642-.742.538.448 1.22.58 2.084.434 1.365-.233 3.183.94 3.635 1.76.12.22.36.396.67.535-1.252.399-3.045.926-2.94 1.582zm-11.509 9.201s-3.937 1.098-5.302 1.374c-1.365.276-3.485-.685-4.697-1.238-1.211-.548-.928-.484-2.66-.172a9.41 9.41 0 0 1-1.572.158l-4.947-1.976s-3.089-.775-2.936-1.715c.154-.94 3.183-1.172 1.971-1.172-.727 0-.581-.764-.016-1.808.044.093.957 1.886 2.136 2.02 1.212.135 2.12-.413 3.182.135 1.063.55.154 1.238 1.212 1.51 1.058.273 4.09.277 4.846.277.755 0 1.365 1.786 2.12 2.334.755.55 3.485.137 4.543-.276 1.062-.412 2.12.55 2.12.55z"/><path fill="#B6F8FF" d="M56.516 22.71c.456.685 0 .962-2.423 1.923-2.423.961-2.12-1.238-3.485-.825-1.365.412-1.062 1.646-2.12 1.922-1.058.277-1.365-.96-1.971-2.198-.606-1.238-1.97-.137-3.485-.413-.517-.093-.707-.322-.739-.58.497-.277.961-.557 1.345-.854 2.12-1.643 2.879.118 4.24-1.88 1.365-1.998 5.302.352 5.302.352s.76-.352 1.668 0c.808.315.897 1.93 2.08 2.198-.343.054-.561.133-.416.352l.004.003zm4.468 1.174c-.089.52-.27 1.018-.646 1.022-.791.007-2.003.416-2.003 1.377 0 .961-.303 1.786-1.365 1.646-1.062-.14-2.12-.685-2.12-.685l-.909.413s.154-1.51.606-1.647c.452-.136 2.423 0 2.577-1.097.153-1.098 1.365-2.199 1.667-2.199.065 0 .174-.086.315-.204.824.204 1.483.645 1.878 1.373z"/><path fill="#D85B5B" d="M78.627 57.595L57.454 69.8l-6.84-26.488 23.66-11.068 4.353 25.35z"/><path fill="#FCC" d="M50.613 43.176l12.721 13.321L84.232 43.45 73.935 30.264 50.613 43.176z"/><path fill="#EFA3A3" d="M31.83 34.385l-9.994 12.772 18.48 10.574 10.297-14.555-18.782-8.791z"/><path fill="#EABAA0" d="M18.492 34.349s.711-.592 1.196.136c.484.728 1.086 1.5.553 1.88-.533.38-1.163.244-1.163.244l-.646-1.579.06-.681z"/><path fill="#F4CAAE" d="M19.861 54.986s-2.402-5.757-3.29-10.305c-.627-3.203-.47-4.594-.47-4.594s1.568-2.784 3.134-1.948c1.567.836 2.04 1.811 2.04 1.811s1.41 8.91 3.133 11.557c1.725 2.647-2.822 6.266-4.547 3.479z"/><path fill="#F4CAAE" d="M19.545 40.227c.823.312 1.89.176 2.35-1.251.226-.696.545-1.453.626-1.812.157-.696-.626-1.391-.784-2.227-.157-.836-.783-1.252-1.098-.696-.315.556.158 1.116 0 1.252-.157.136-.626.836-1.256 1.671-.63.836-.94 2.088.158 2.507.012.004-.012.553 0 .556h.004z"/><path fill="#F4CAAE" d="M20.175 38.556s0-3.758-.783-3.619c-.784.14-2.04.976-2.35 1.392-.311.416-.941.556-1.256.976-.315.416-.315.696-.315 1.391 0 .696.157 3.76 1.724 3.48 1.567-.28 2.98-2.648 2.98-3.62z"/><path fill="#F4CAAE" d="M18.294 35.633c-.048-.19-.314-1.391.316-1.531.63-.14 1.001-.061 1.207.735.206.796.206 1.213-.11 1.492-.314.28-.94 1.116-1.408-.696h-.005z"/><path fill="#F4CAAE" d="M17.039 36.048c-.049-.19-.315-1.392.315-1.532.63-.14 1.001-.06 1.207.736.206.796.206 1.212-.109 1.492s-.94 1.115-1.41-.696h-.003z"/><path fill="#F4CAAE" d="M16.1 36.884c-.05-.19-.316-1.392.314-1.532.63-.14 1.002-.06 1.208.736.206.796.206 1.212-.11 1.492-.314.28-.94 1.115-1.409-.696H16.1z"/><path fill="#F4CAAE" d="M15.314 37.86c-.048-.19-.315-1.392.315-1.531.63-.14 1.002-.061 1.208.735.206.796.206 1.212-.11 1.492-.314.28-.94 1.115-1.409-.696h-.004zm6.428-2.783s0-1.532-.626-1.252c-.625.28-1.041.43-.601 1.747.44 1.316.129 1.872.129 1.872s.94-.975 1.098-2.367z"/><path fill="#F23E30" d="M21.731 59.35l-2.653-5.202s.267-3.504 3.566-3.328c3.3.176 2.548.681 2.548.681l2.718 4.925s.25 6.757-6.179 2.92v.003z"/><path fill="#F4CAAE" d="M27.617 52.408v2.507c0 .319.13.627.38.857.605.549 1.482.81 2.362.674l.465-.072c.791-.121 1.389-.699 1.457-1.409l.194-1.998s-2.04-2.783-4.858-.556v-.003z"/><path fill="#F4CAAE" d="M35.457 52.827c-.29.81-.82 1.295-1.486 1.546-.29.11-.601.175-.937.204-.23.022-.468.025-.714.01-.747-.039-1.543-.218-2.298-.469a13.115 13.115 0 0 1-2.403-1.073c-.517-.297-.909-.577-1.099-.778-.783-.836-1.07-1.721-.864-2.866.142-.767.622-1.449 1.309-1.93 1.066-.742 2.855-1.57 4.256-.078.246.265.5.498.76.71.867.721 1.752 1.18 2.438 1.646.65.441 1.127.893 1.24 1.575.069.402.012.886-.206 1.5l.004.003z"/><path fill="#1C5360" d="M31.932 48.164s1.409-1.391.783-1.947-5.488-3.343-6.582-.14c-1.095 3.203-.469 3.063-.469 3.063s-1.256 1.115-1.256 2.367 2.201 2.63 3.764 2.507c1.563-.122 3.291.556 3.449 0 .157-.556.315-1.531-.626-2.367-.941-.836-1.256-2.087-.626-2.087s1.724.14 1.567-1.392l-.004-.004z"/><path fill="#F4CAAE" d="M30.833 51.088s-1.724-.28-1.567.696c.158.976 2.2 1.92 2.665 1.252.465-.667-1.098-1.948-1.098-1.948z"/><path fill="#1C5360" d="M27.917 67.615s-3.78 1.571-4.563 3.957c-.784 2.388-3.816 6.115-3.816 6.115s-5.707 3.207-6.393 3.465c-.687.258-.174 3.83.803 4.573.978.742 2.565 2.934 4.838 1.166 2.27-1.765 7.625-4.56 8.533-6.09.913-1.532 5-9.907 5-9.907s.38-4.674-4.402-3.282v.004z"/><path fill="#1C5360" d="M11.247 82.485s2.488-2.977 3.966-.972c1.478 2.005 1.126 6.31 1.91 6.338.783.029 1.453 2.561.33 3.078-1.122.516-6 .9-6.234-.919-.23-1.818-.332-3.077-.921-3.934-.59-.858-.32-3.357.945-3.59h.004z"/><path fill="#FC624E" d="M43.105 91.223a9.745 9.745 0 0 0-.205-1.427c-.081-.6-.255-1.076-.497-1.457-.283-.552-.675-.971-1.208-1.014-1.417-.585-3.246.028-3.654.645-.376.567-1.6 1.392-2.661 2.037-1.2-.287-2.924-.376-3.364 1.78l.024.15c-.323.133-.606.355-.59.739.037.868-.509 2.191.113 2.604.327.215.869.818 1.733 1.043.226.155.513.223.88.166.117-.018.299-.076.53-.166.447-.103.948-.311 1.505-.663 2.831-1.345 7.415-3.906 7.39-4.444l.005.007z"/><path fill="#53D0E5" d="M36.006 67.796s-6.429-1.116-6.114 3.343c.315 4.455.941 11.836.784 13.644-.158 1.811-.626 7.937.468 8.213 1.098.28 4.858 2.228 7.212-1.811 0 0-.537-19.48-.973-21.434-.436-1.955-1.377-1.955-1.377-1.955z"/><path fill="#53D0E5" d="M28.014 70.857s-.469 5.011.626 6.127c1.094 1.115 2.35 3.342 2.665 3.202.315-.14 3.449-7.101 3.449-7.797 0-.696-2.847-4.311-2.847-4.311l-3.893 2.78z"/><path fill="#F4CAAE" d="M45.59 47.304s-.267-.825.133-1.299c.4-.47.444-1.169-.133-1.294-.53-.119-1.063.706-1.592 1.531-.529.825-.529 1.768-.4 2.475.081.441.578 1.065.942 1.474.06.068.129.13.202.183.278.323.516.578.516.578s.049-.133.11-.338c.246.029.504-.01.734-.125.372-.187.74-.563.945-1.299.53-1.886-1.457-1.886-1.457-1.886z"/><path fill="#2E7C89" d="M46.452 49.251l-3.428-7.188c-.158-.33-.073-.706.21-.957l2.467-2.178c.497-.44 1.34-.286 1.603.291l3.312 7.23a.81.81 0 0 1-.206.94l-2.35 2.138c-.493.445-1.333.305-1.608-.269v-.007z"/><path fill="#205D63" d="M47.099 49.287l-3.429-7.188a.801.801 0 0 1 .21-.958l2.468-2.177c.496-.441 1.34-.287 1.603.29l3.311 7.232a.81.81 0 0 1-.206.94l-2.35 2.137c-.493.445-1.333.305-1.607-.27v-.006z"/><path fill="#FC624E" d="M23.497 57.343c.319-1.489 1.748-2.59 3.452-2.698 2.44-.15 6.377.09 8.667 2.773 3.448 4.039 2.43 11.904 1.958 13.436-.307 1.004-7.16 5.767-11.913 2.647-1.203-.79-2.35-2.572-2.35-3.899l.234-4.107c0-1.018-.674-5.25-.048-8.152z"/><path fill="#F4CAAE" d="M34.205 59.79l-1.256-3.479 2.98-1.811 4.002.348c1.438.125 1.955.487 3.522-1.6l2.508-4.039c2.148-.236 3.372.567 3.897 2.432l.02.075-3.3 7.274c-.549 1.213-1.95 1.944-3.408 1.786l-8.969-.982.004-.004z"/><path fill="#F4CAAE" d="M46.591 51.711s-1.41-.835-.94-2.783c.467-1.947 1.408-2.227 2.038-2.783.63-.556 1.567-1.116 1.567-1.532 0-.416.315-1.252.784-.835.468.416.315.695.315.695s.626-.416.783 0c.158.416-.157 1.252-.157 1.252s.468-.28.626.14c.157.416-.158 1.115-.158 1.115s.941-.555.784.417c-.158.975-1.099 4.454-3.134 4.734-2.036.28-2.508-.416-2.508-.416v-.004z"/><path fill="#F23E30" d="M31.132 57.472c-.069-.997.4-1.983 1.3-2.579a3.14 3.14 0 0 1 1.64-.523c2.091-.08 7.822.38 7.822.38l.383 6.083-9.247-.836s-1.725 0-1.898-2.525z"/><path fill="#1C5360" d="M30.05 49.833s1.098.835 1.41.975c.31.14.468.696.157.696-.311 0-1.256-.836-2.193-.416-.941.416.626-1.252.626-1.252v-.003zm1.28-1.149l-.003.003c-.127.143-.099.35.063.463l1.267.884a.404.404 0 0 0 .522-.056l.002-.002c.127-.144.099-.351-.063-.464l-1.267-.884a.404.404 0 0 0-.521.056zm3.823 2.79c-.412.266-.9.287-1.256.255-.234-.021-.36-.255-.23-.427.202-.272.493-.656.71-.91a.34.34 0 0 1 .45-.047c.359.272.375.409.447.864a.266.266 0 0 1-.12.262v.003z"/></symbol><symbol id="transport1" viewBox="0 0 142 122"><path fill="#fff" fill-opacity=".32" fill-rule="evenodd" d="M71.436.601c14.842 1.301 27.53 8.093 39.475 15.518 11.774 7.318 23.9 15.167 28.532 26.754 4.648 11.623 2.353 24.496-3.554 35.719-5.536 10.518-17.263 17.023-28.009 24.249-11.442 7.694-21.753 18.255-36.444 19.091-15 .854-28.955-6.505-40.266-14.726-10.587-7.694-17.229-18.238-20.673-29.562-3.265-10.736-.514-21.47 1.84-32.369 2.775-12.855 1.429-27.856 13.062-36.65C37.282-.358 55.451-.8 71.436.6z" clip-rule="evenodd"/><path fill="#1C5360" d="M89.734 46.097c.005-2.125-1.92-2.98-4.288-1.907-2.362 1.078-4.304 3.714-4.31 5.856 0 1.16.477 1.994 1.445 2.51l2.57 1.03.328-1.28-.224-.279c.054-.026.115-.048.17-.074 2.362-1.095 4.303-3.73 4.309-5.856zM79.25 51.446c.005-2.126-1.92-2.98-4.288-1.907-2.363 1.078-4.304 3.713-4.31 5.856 0 1.16.476 1.994 1.444 2.509l2.57 1.03.329-1.279-.225-.28c.055-.025.115-.047.17-.073 2.362-1.096 4.304-3.731 4.31-5.856z"/><path fill="#43ABC4" d="M93.443 19.673v24.935c0 .78-.399 1.518-1.093 2.042a3.518 3.518 0 0 1-.657.401l-1.624.764-.886.419-2.018.951-3.21 1.514-2.187 1.03-.11.053-2.729 1.287-1.597.755-3.74 1.763-2.609 1.23-15.761 7.423a4.34 4.34 0 0 1-3.544.035l-17.915-7.999c-1.127-.502-1.822-1.449-1.822-2.478V29.282c0-.584.225-1.143.63-1.61a3.33 3.33 0 0 1 1.137-.842L71.114 9.392a4.333 4.333 0 0 1 3.577-.004l16.986 7.837c.4.183.738.423 1.012.703.153.152.284.314.388.488.246.389.377.82.377 1.27l-.01-.013z"/><path fill="#65CEE0" d="M77.696 50.947c-2.362 1.078-4.304 3.713-4.31 5.856-.005 2.143 1.92 3.002 4.288 1.907 2.363-1.095 4.304-3.731 4.31-5.856.005-2.125-1.92-2.98-4.288-1.907z"/><path fill="#1C5360" d="M78.15 53.277c-1.11.506-2.018 1.74-2.023 2.749-.005 1.008.902 1.41 2.013.894 1.11-.514 2.017-1.754 2.023-2.749.005-.995-.902-1.4-2.013-.894z"/><path fill="#65CEE0" d="M88.184 45.603c-2.362 1.078-4.303 3.714-4.309 5.856-.005 2.143 1.92 3.002 4.287 1.907 2.363-1.095 4.304-3.73 4.31-5.856.005-2.125-1.92-2.98-4.288-1.907z"/><path fill="#1C5360" d="M88.639 47.933c-1.11.506-2.018 1.741-2.024 2.749 0 1.008.903 1.41 2.013.895 1.11-.515 2.018-1.755 2.023-2.75 0-.999-.902-1.4-2.012-.894z"/><path fill="#7BDEEF" d="M93.442 21.982v1.777L51.206 43.308l-.968-1.33 43.204-19.996zm0 3.133v1.676L51.568 46.17l-.914-1.258 42.788-19.798zm-.002 3.129v1.584l-41.513 19.21-.859-1.183 42.373-19.61zm.001 3.133v1.484L52.294 51.904l-.81-1.108 41.957-19.419zm.003 3.133v1.383L52.657 54.771l-.749-1.039L93.444 34.51zm-.002 3.135v1.282L53.017 57.636l-.695-.96 41.12-19.03zm.003 3.131v1.187l-40.06 18.538-.645-.886 40.705-18.839zm-.953-22.102L48.954 39.158a.796.796 0 0 1-.64.008L32.27 32.072c-.208-.091-.333-.262-.333-.45v-2.343c0-.584.224-1.143.628-1.61a3.33 3.33 0 0 1 1.138-.842L71.109 9.388a4.334 4.334 0 0 1 3.576-.004l16.986 7.837c.4.184.738.424 1.012.703v.004c.24.24.142.598-.186.755l-.005-.009z"/><path fill="#2E7C89" d="M53.772 37.16v27.456a4.34 4.34 0 0 1-2.105-.345L33.75 56.272c-1.127-.502-1.821-1.448-1.821-2.478V29.278c0-.585.224-1.143.629-1.61l18.829 6.576c1.449.506 2.384 1.65 2.384 2.915z"/><path fill="#1C5360" d="M46.845 64.288c.005-2.125-1.92-2.98-4.288-1.907-2.362 1.078-4.303 3.714-4.309 5.856 0 1.161.476 1.995 1.444 2.51l2.57 1.03.328-1.28-.224-.278c.055-.026.115-.048.17-.075 2.362-1.095 4.303-3.73 4.309-5.856z"/><path fill="#8BE9F2" d="M51.494 51.289v10.866c0 .589-.4 1.13-1.039 1.418l-16.79 7.562a2.402 2.402 0 0 1-1.12.205 2.453 2.453 0 0 1-.903-.214l-11.867-5.48c-.629-.293-1.017-.83-1.017-1.41V57.8c0-.568.372-1.091.973-1.388l3.145-1.536a1.85 1.85 0 0 0 .667-.532L28 48.587a1.3 1.3 0 0 1 .213-.227 1.87 1.87 0 0 1 .47-.31l7.755-3.731a2.5 2.5 0 0 1 2.084-.013l11.681 5.446.28.13s.021.01.032.018c.607.297.979.82.979 1.392v-.004z"/><path fill="#65CEE0" d="M45.292 63.794c-2.363 1.078-4.304 3.714-4.31 5.857-.005 2.142 1.92 3.002 4.288 1.907 2.362-1.096 4.304-3.731 4.31-5.857.005-2.125-1.92-2.98-4.288-1.906z"/><path fill="#1C5360" d="M45.746 66.125c-1.11.506-2.018 1.741-2.023 2.75 0 1.007.902 1.409 2.012.894 1.11-.515 2.018-1.754 2.024-2.75 0-.999-.903-1.4-2.013-.894z"/><path fill="#43ABC4" d="M51.494 51.29l.028 4.293-17.577 7.71c-1.039.46-1.668 1.345-1.63 2.292l.236 5.756a2.453 2.453 0 0 1-.903-.214l-11.867-5.481c-.63-.292-1.017-.83-1.017-1.41V57.8c0-.567.372-1.09.973-1.388l3.145-1.536a1.85 1.85 0 0 0 .667-.532l4.687-6.066L40.6 53.532l9.603-3.779.279.131s.022.009.033.018c.607.296.978.82.978 1.392v-.005z"/><path fill="#1C5360" d="M38.172 55.553l-3.472 4.53c-.367.48-1.149.636-1.756.353l-2.554-1.187-4.09-1.898-.936-.437c-.623-.288-.83-.925-.464-1.418l3.363-4.53c.36-.484 1.143-.65 1.76-.37l.734.336 3.992 1.828 2.959 1.353c.634.288.842.938.459 1.435l.005.005z"/><path fill="#65CEE0" d="M31.122 59.044c-.322.061-.563.131-.727.21l-4.09-1.898c-.345-1.078 3.57-.755 6.103-.878 2.729-.126-1.286-2.819-1.767-4.87-.082-.34-.027-.554.12-.671l3.993 1.828c-.268.03-.585.105-.902.253-.804.384.962 1.41 1.607 3.203.64 1.794-1.608 2.308-4.337 2.819v.004z" opacity=".4"/><path fill="#1C5360" d="M46.962 52.965l-.41 3.548a.28.28 0 0 1-.18.218l-2.26.986-3.259 1.428-3.194 1.396c-.311.135-.645-.144-.459-.384l.618-.803.82-1.07.443-.575 1.597-2.077.219-.284c.082-.11.175-.21.279-.305a2.39 2.39 0 0 1 .432-.332c.158-.1.328-.188.509-.262l.918-.37 1.717-.695 1.707-.685c.24-.096.525.057.497.27l.006-.004z"/><path fill="#65CEE0" d="M44.12 57.717l-3.26 1.426s-.032-.008-.048-.017c-2.04-.685 3.325-2.645 3.965-3.67.634-1.008-1.072-.777-1.734-1.383l1.717-.694c-.18.179-.306.332-.306.406 0 .257 1.608.384 2.089 1.025.449.598-1.608 1.75-2.428 2.902l.005.005z" opacity=".4"/><path fill="#65CEE0" d="M43.171 55.584c-.29.58-3.155 1.423-4.085 2.12l1.597-2.076c.842-.053.94-.149.498-.59a2.43 2.43 0 0 1 .431-.331s.011.004.017.009c.58.358 1.865.227 1.542.868z" opacity=".4"/><path fill="#B4F6F9" d="M50.16 50.04l-8.411 3.357a3.35 3.35 0 0 1-2.582-.057L28.22 48.36a1.87 1.87 0 0 1 .47-.309l7.755-3.731a2.5 2.5 0 0 1 2.083-.013l11.649 5.433-.011.3h-.005z"/><path fill="#1C5360" d="M.01 84.374V99.23c0 .366.247.707.64.89l5.88 2.74c.235.109.508.157.77.136.192-.013.378-.061.548-.144l5.676-2.732c.389-.188.624-.524.624-.882V84.366c0-.367-.24-.703-.64-.89l-1.023-.48-4.66-2.182a1.597 1.597 0 0 0-1.295-.009l-5.88 2.67C.247 83.66 0 84 0 84.37l.01.004z"/><path fill="#266E84" d="M7.3 87.39v15.609c.192-.013.378-.061.547-.144l5.677-2.732c.388-.187.623-.523.623-.881V84.37c0-.366-.24-.702-.64-.89L12.486 83l-5.19 4.39H7.3z"/><path fill="#43ABC4" d="M12.486 82.983l-4.649-2.169a1.567 1.567 0 0 0-1.29-.004l-4.463 2.033c-.87.397-.87 1.392 0 1.79l4.79 2.194c.405.188.903.184 1.308-.008l4.32-2.06c.842-.401.837-1.379-.011-1.776h-.005z"/><path fill="#3A96A5" d="M10.508 39.536v11.066c0 .048 0 .092.01.136 0 .017 0 .03.006.048.066.37.317.702.69.894l5.167 2.649.76.388c.301.157.657.205.99.149.159-.026.317-.079.465-.153l3.588-1.868c.432-.227.7-.633.7-1.078V40.65c0-.45-.28-.864-.722-1.087l-5.988-2.985a1.604 1.604 0 0 0-1.444.018l-3.528 1.863c-.426.227-.689.633-.689 1.074l-.005.004z"/><path fill="#1C5360" d="M10.525 50.785c.066.371.318.703.69.895l5.167 2.649.76.388c.301.157.657.205.99.149V42.638c0-.218-.142-.419-.377-.528l-5.983-2.806c-.508-.24-1.148.053-1.154.524l-.093 10.953v.005z"/><path fill="#1C5360" d="M7.417 83.684c.733 0 1.323-.476 1.323-1.056V32.449l25.736 12.035c.635.297 1.444.127 1.816-.38.372-.505.159-1.151-.476-1.448l-26.091-12.2a2.916 2.916 0 0 0-2.423-.005c-.76.349-1.214.973-1.214 1.671v50.506c0 .585.596 1.056 1.323 1.056h.006z"/><path fill="#3A96A5" d="M20.457 44.651v11.066c0 .049 0 .092.01.136 0 .017 0 .03.006.048.066.37.318.702.69.894l5.168 2.65.76.388c.3.157.656.205.99.148.158-.026.317-.079.464-.153l3.588-1.867c.432-.227.7-.633.7-1.078v-11.12c0-.449-.279-.863-.722-1.086l-5.988-2.984a1.6 1.6 0 0 0-1.444.017l-3.527 1.863c-.427.227-.69.633-.69 1.074l-.005.004z"/><path fill="#1C5360" d="M20.473 55.9c.065.372.317.703.689.895l5.168 2.65.76.387c.3.157.656.206.99.149V47.754c0-.219-.142-.42-.377-.528L21.72 44.42c-.509-.24-1.149.052-1.154.523l-.093 10.953v.005zm6.772-10.657c.64 0 1.16-.414 1.16-.925v-3.704c0-.511-.52-.925-1.16-.925-.64 0-1.16.414-1.16.925v3.704c0 .511.52.925 1.16.925zm-10.382-5.375c.64 0 1.159-.414 1.159-.925V35.24c0-.511-.52-.925-1.16-.925-.64 0-1.159.414-1.159.925v3.704c0 .511.52.925 1.16.925zm49.212 32.164s.492.824-.219 2.042c-.71 1.217-2.204.977-3.286 2.505-1.083 1.527-3.227 5.315-4.277 6.393-1.05 1.077-5.753 4.69-9.15 3.547-3.395-1.143-6.945-2.832-4.156-5.114 2.79-2.278 5.53-2.239 6.076-3.731.547-1.492.246-3.273 2.483-3.648 0 0 3.965-2.627 7.465-4.159.656-.288 1.29-.537 1.887-.724.049-.018.103-.03.153-.048.99-.297 1.843-.406 2.417-.214.656.223 1.017.541 1.187.89.486 1-.575 2.26-.575 2.26h-.005z"/><path fill="#2F7C89" d="M66.648 69.776c-.848 1.688-4.424 3.678-4.424 3.678l-1.22-3.587c.656-.288 1.29-.537 1.887-.724l.07-.009.083-.04c.99-.296 1.843-.405 2.417-.213.656.223 1.017.541 1.187.89v.005z"/><path fill="#43ABC4" d="M65.855 61.265l.443 5.35c.054.672-.306 1.322-.968 1.736l-3.528 2.139-3.04-8.981 7.093-.244z"/><path fill="#1C5360" d="M66.911 65.616c.016.161-.142.301-.35.297a.378.378 0 0 1-.224-.07.265.265 0 0 1-.11-.175l-.027-.2-.454-3.631c-.027-.262-.4-.402-.672-.258l-1.182.629c-.3.157-.508.401-.585.68l-.235.856-.017.07-.196-.1-1.586-.821-.329-.17-1.59-.825-.466-.24-.076-.04-.492-.252-.077-.04-1.296-.672-.142-.074.202-.161.022-.018 1.16-.92.098-.08.279-.222.076-.06.071-.053 1.4-1.113s.06.009.132.035c.19.07.58.231 1.066.44.383.171.837.367 1.301.581 1.422.637 3.02 1.375 3.572 1.628.12.057.202.157.213.27l.508 4.713.006-.004zm-14.635 3.888s-.547 1.493-1.942 2.426c-1.394.934-3.828 2.81-3.216 5.822l.148 1.095s.793 2.605 5.474-.052c0 0 1.296-4.076 1.997-4.748.7-.672 4.823-1.427 5.042-3.474.218-2.042-.093-3.412-2.308-3.582-2.22-.17-4.834 1.837-5.19 2.513h-.005z"/><path fill="#1C5360" d="M47.77 79.262s-1.892.52-2.428 1.327c-.53.811-.547 1.492-.377 1.496.17.005.486 1.1 2.204.716 1.717-.384 3.281-1.314 3.965-1.305.683.009 1.033-.392 1.05-1.078.016-.685-.126-1.911-.81-1.924-.683-.013-2.543-.995-3.61.764l.006.004z"/><path fill="#FC624E" d="M51.52 80.911s-1.793.92-2.285 1.877c-.492.955-.503 1.675-.34 1.645.165-.03.476 1.056 2.106.314s3.101-2.034 3.746-2.156c.646-.122.98-.62.985-1.34.005-.72-.142-1.985-.793-1.858-.651.126-2.428-.541-3.418 1.518z"/><path fill="#53D0E5" d="M55.315 71.188s-.547 1.493-1.941 2.427c-1.39.933-4.173 2.801-3.56 5.816l.153.82s.65 2.623 4.32 1.061c.7-.297 1.23-.807 1.47-1.414.515-1.296 1.51-3.687 2.013-4.171.7-.672 4.824-1.427 5.043-3.474.218-2.042-.093-3.412-2.308-3.583-2.22-.17-4.835 1.837-5.19 2.514v.004z"/><path fill="#F23E30" d="M56.173 60.393c.225.445.17.947-.153 1.352l-1.536 1.912c-.739.92-1.718 1.702-2.882 2.29l-2.292 1.17c-.864.441-2.018.253-2.592-.419-.585-.685-.35-1.61.53-2.06l1.499-.767c1.116-.572 2.062-1.318 2.789-2.195l1.34-1.624c.886-.938 2.745-.746 3.297.34z"/><path fill="#1C5360" d="M55.684 57.33s-2.822 1.073-2.954 3.643c-.13 2.57 2.013 4.071 2.013 4.071s-2.15-5.468 2.822-6.86l-1.881-.855z"/><path fill="#FC624E" d="M53.69 60.71s-.53.813-.229 2.589c.3 1.78.623 2.6.438 3.281-.187.68-1.439 2.845-.602 3.674.837.83 6.787 3.112 9.286-.545 1.17-1.715 1.367-3.74.18-8.012-.251-.908-1.613-1.344-2.685-1.715-1.92-.663-5.36-1.488-6.382.724l-.005.005z"/><path stroke="#FFD6D6" stroke-linecap="round" stroke-miterlimit="10" stroke-width="4" d="M56.354 61.45s-.804 1.605-.536 2.788c.268 1.182.268 3.966-.137 4.608-.404.641-.94 2.142-.94 2.142"/><path fill="#1C5360" d="M64.223 80.67s-3.189.18-3.801-1.069l1.788-3.395 2.007 4.468.006-.004z"/><path fill="#98EBF4" d="M68.712 74.893l.032 1.086c.033 1.056-.465 2.239-1.334 3.173-2.204 2.365-5.403 1.95-5.524-.712l-.049-1.069c-.05-1.095.476-2.325 1.395-3.281l.016-.018c2.231-2.317 5.387-1.841 5.469.82h-.005z"/><path fill="#1C5360" d="M67.494 75.86l.016.485c.016.471-.208.995-.596 1.414-.979 1.052-2.406.868-2.461-.319l-.022-.475c-.022-.49.213-1.035.624-1.462v-.009c1-1.03 2.406-.82 2.439.367z"/><path fill="#43ABC4" d="M58.875 54.148l-.126.659-.328 1.737-.027.03-.345.332-.076.074v.009l-.236.227-.607.589-.005.004-.126.122-.153.149-.76.746-.027.026-.039.04-.049.052-.344.336-.11.109h-.087c-.12 0-.356-.018-.602-.11-.055-.017-.104-.043-.159-.065-.038-.017-.076-.039-.114-.06a.142.142 0 0 1-.044-.031c-.208-.14-.4-.358-.514-.685-.148-.424-.164-1.035.076-1.912.104-.37.252-.69.432-.96 1.23-1.806 3.987-1.47 4.348-1.418.022 0 .033.004.033.004l-.011-.004z"/><path fill="#1C5360" d="M55.706 58.716c-.011.297-.022.445-.093.554a.432.432 0 0 1-.11.11s-.547.043-1.006-.267c.125-.467-.05-1.536-.05-1.536l.011-.013a1.95 1.95 0 0 1 .268-.231l.011-.01c.071-.051.18-.06.29-.047.197.017.394.091.394.091s.082.254.159.555c.071.279.142.602.131.794h-.005z"/><path fill="#F4CAAE" d="M58.883 59.498c-.213.794-.902 1.854-2.5 1.798-1.596-.057-1.602-1.405-1.558-2.344.006-.122 0-.244 0-.358a4.411 4.411 0 0 0-.076-.602 1.06 1.06 0 0 1 .23-.894c.076-.1.18-.192.295-.27l1.285-.895s.508.554 1.898 1.27c1.389.72.645 1.496.431 2.29l-.005.005z"/><path stroke="#2F7C89" stroke-miterlimit="10" d="M56.268 58.328l-.197 1.052c-.017.078.06.148.164.152l.334.014m-1.004.435l.207.088c.301.126.663.14.974.035l.214-.075"/><path fill="#43ABC4" d="M61.492 58.254a3.243 3.243 0 0 1-.924 1.248l-.077.06a.478.478 0 0 1-.055.04l-.054.04c-.197.14-.394.248-.58.327-.027.008-.055.021-.077.03a1.77 1.77 0 0 1-.246.074c-.022.005-.038.01-.06.014a1.087 1.087 0 0 1-.35.021c-.022 0-.044 0-.066-.008h-.01c-.022 0-.039-.01-.06-.014a.312.312 0 0 1-.105-.039.36.36 0 0 1-.13-.104c-.012-.014-.017-.027-.028-.04V59.9c0-.009-.011-.018-.011-.026 0-.009-.005-.013-.005-.022 0-.013-.011-.026-.011-.04v-.178c0-.035.005-.07.01-.105 0-.03.006-.061.011-.092 0-.035.006-.074.011-.109 0-.035 0-.065.006-.096 0-.065.005-.126.01-.187a4.056 4.056 0 0 0-.06-.917 2.654 2.654 0 0 0-.054-.235c-.005-.031-.017-.062-.027-.092-.011-.03-.017-.061-.028-.087-.01-.026-.016-.053-.027-.079-.022-.057-.05-.105-.071-.153 0-.004 0-.008-.006-.013-.01-.026-.027-.048-.038-.07-.01-.017-.022-.039-.038-.056 0-.005-.006-.013-.011-.018-.006-.008-.011-.017-.022-.03a.407.407 0 0 0-.044-.057c-.033-.044-.07-.079-.104-.114a.294.294 0 0 0-.06-.047.458.458 0 0 0-.06-.044c-.016-.009-.033-.022-.05-.03 0 0-.005 0-.01-.005-.006 0-.017-.009-.022-.013a.67.67 0 0 0-.3-.074c-.04 0-.072 0-.105.013a.922.922 0 0 1-.46-.035c-.393-.118-.743-.41-.743-.41s-.005-.061-.005-.157v-.232c.005-.083.016-.179.033-.279.065-.362.224-.799.596-1.135.328-.296.825-.514 1.57-.527.103 0 .207 0 .305.004 1.674.109 2.74 1.366 2.866 2.731.044.463-.027.934-.213 1.384l-.011-.013z"/><path fill="#1C5360" d="M60.247 58.742c.007-.221-.144-.404-.337-.408-.194-.004-.356.172-.363.394-.008.221.143.404.336.408.194.004.356-.172.364-.394z"/><path fill="#1C5360" d="M60.492 59.558c-.503.392-1.05.58-1.422.545-.29-.026-.47-.183-.432-.48.208-1.627-.235-2.422-.695-2.653.268-.175.476-.301.476-.301l.58.423s.158 1.257.05 2.19c-.04.324.322.607.737.555.203-.026.443-.11.711-.28h-.005z"/><path fill="#2F7C89" d="M55.361 58.978h-.13c-.132-.008-.236-.091-.23-.192l.043-.986c0-.096.115-.174.246-.17h.132c.13.009.235.092.23.192l-.044.986c0 .096-.115.175-.247.17zm2.002.166h-.131c-.131-.01-.235-.092-.23-.192l.044-.987c0-.096.115-.174.246-.17h.131c.132.009.236.092.23.192l-.044.986c0 .096-.114.175-.246.17z"/><path fill="#F78161" d="M58.726 57.62s-1.1 1.166-2.85 1.24c-.519.022-.847-.092-1.055-.262a3.703 3.703 0 0 0-.076-.602 1.06 1.06 0 0 1 .23-.895c1.317-.733 3.751.52 3.751.52z" opacity=".58" style="mix-blend-mode:multiply"/><path fill="#98EBF4" d="M58.79 57.809a5.08 5.08 0 0 1-1.4.262 6.754 6.754 0 0 1-2.603-.371 2.14 2.14 0 0 1-.575-.28c-.907-.663.86-1.448.86-1.448.218-.07.426-.114.628-.144a3.373 3.373 0 0 1 1.504.113c.853.266 1.466.82 1.81 1.2.202.232.104.55-.224.663v.005z"/><path fill="#C5FCFF" d="M57.31 57.97c.038.04.06.07.082.1a6.754 6.754 0 0 1-2.603-.37 2.14 2.14 0 0 1-.574-.28c.246-.039.678-.113 1.033-.192.53-.113-.333-.414-.311-.816.022-.401 1.22.044 1.433-.13.12-.1-.29-.302-.668-.454a3.373 3.373 0 0 1 1.504.113c.028.057.082.11.186.157.345.144.525.018.678.428.153.41-1.236.358-1.936.332-.7-.027.504.419 1.176 1.112z"/><path fill="#F4CAAE" d="M48.103 65.209s.996 1.244.132 1.64c-.63.289-1.21.529-1.374.119-.114-.293.526-.402.695-.537.17-.135-.82-1.38.542-1.222h.005z"/><path fill="#43ABC4" d="M46.25 65.342c1.816.829 7.197 3.434 9.073 4.342.35.17.448.545.207.811l-.202.223c-.213.236-.618.301-.93.153l-1.487-.703a.848.848 0 0 0-.76.022l-1.056.58a2.78 2.78 0 0 1-1.367.336h-1.072c-.984-.008-1.865-.497-2.21-1.23l-.136-.288a1.543 1.543 0 0 1-.05-1.226l.105-.267c.175-.454.044-.947-.35-1.304l-.64-.58c-.202-.184-.235-.455-.071-.664.197-.262.618-.35.951-.197l-.005-.008z"/><path fill="#F78161" d="M44.89 65.42s-.875.806-.202 1.36c.673.555.514-.126.514-.126l.367-.951.175-.27s-.503-.42-.854-.014z"/><path fill="#F78161" d="M45.054 65.695s-.875.807-.202 1.361c.673.554.514-.126.514-.126l.367-.952.175-.27s-.503-.42-.854-.013z"/><path fill="#F78161" d="M45.564 65.978s-.875.807-.202 1.361c.673.555.514-.126.514-.126l.367-.951.175-.271s-.504-.419-.854-.013z"/><path fill="#F4CAAE" d="M45.24 65.153s1.745-1.475 2.746-.366c1.252 1.387-.722 1.627-1.066 1.758-.345.131-.695.537-.53.812.163.275-.695.537-.679-.148.016-.686.367-.952.367-.952s-1.198-.017-1.187-.427c.01-.41.355-.677.355-.677h-.005z"/><path fill="#328C9B" d="M65.499 74.787c-.837.489-2.45 1.444-2.96 1.833-.694.537-3.204 5.276-3.931 7.039 0 0 0 .004-.006.017-.743 1.759-4.528 3.6-4.528 3.6l-.52.236-1 .462c-.635.293-1.39.03-1.63-.458a.714.714 0 0 1-.07-.428l.13-.973c.066-.47.575-.82 1.165-.807.186 0 .372-.004.553-.026 1.263-.153 2.34-.916 3.259-1.942 2.095-2.343 3.352-6.07 4.014-7.16.667-1.1 2.784-2.222 4.271-2.907.192-.087.388-.127.585-.122.492.008.947.275 1.078.676a.807.807 0 0 1 .032.157c.033.314-.142.62-.459.812l.017-.009z"/><path fill="#43ABC4" d="M54.66 86.462v.017c-.039.336-.274.633-.64.807-.143.07-.301.144-.46.227-1.69.851-4.315 2.322-6.19 2.51a3.471 3.471 0 0 1-.203.017.463.463 0 0 1-.126-.026c-.049-.013-.104-.04-.175-.07-.284-.127-.743-.253-1.312-.38-2.27-.506-6.273-1.034-7.607-1.793-.143-.083-1.122-1.279-1.209-1.392-.11-.136-.115-1.872-.137-2.038-.153-1.31.985-5.245 4.441-8.313.372-.327.962-.437 1.477-.27l6.261 2.02c.126.039.24.096.34.161.317.21.497.524.48.864-.109 1.741-.043 6 3.102 6.472.185.03.388.043.596.043.525 0 .978.227 1.208.567.11.17.164.367.142.58l.011-.003z"/><path fill="#1C5360" d="M47.052 90.009c-1.04-.354-6.934-4.18-8.684-5.171-.143-.083.612 1.23.524 1.113.695-.398.826-.38 1.21-.528.688-.262 2.553.584 2.553.584l1.608.362c.99.223 1.76.856 2.012 1.654.263.838.602 1.807.782 1.986h-.005z"/><path fill="#43ABC4" d="M41.602 87.085s2.772-1.457 3.915.877c0 0 .695-1.17.033-1.75-.662-.58-3.237-.21-3.948.873z"/><path fill="#98EBF4" d="M47.664 68.217l-.219.44a.475.475 0 0 0 .006.446l.333.633c.12.231.41.37.722.358l1.17-.061c.23-.014.444-.11.57-.267l.338-.414c.197-.24.148-.559-.12-.75l-.711-.516a.82.82 0 0 0-.405-.148l-.913-.087c-.328-.03-.645.118-.766.366h-.005z"/><path fill="#5CCEE0" d="M69.742 75.631c-.016.27-.18.55-.541.777-.027.013-.055.03-.082.043l-3.216 1.563-1.608.78-.147.07a3.438 3.438 0 0 1-1.98.24 3.465 3.465 0 0 1-.716-.204 1.023 1.023 0 0 1-.394-.302c-.449-.589.273-1.457 1.269-1.143a.94.94 0 0 0 .782-.092l4.588-2.626c1.044-.55 2.094.152 2.045.898v-.004z"/><path fill="#1C5360" d="M61.053 59.58s-2.822 1.074-2.953 3.644c-.137 2.57 2.012 4.071 2.012 4.071s-2.149-5.468 2.822-6.86l-1.88-.855z"/><path fill="#328C9B" d="M58.614 83.656s0 .004-.006.017c-.744 1.759-4.528 3.6-4.528 3.6l-.52.236c-1.69.851-4.314 2.322-6.19 2.51-.066.008-.137.012-.203.017a.466.466 0 0 1-.125-.026c-.05-.014-.104-.04-.175-.07-.285-.127-.744-.253-1.313-.38-3.39-2.221-.219-8.967-.219-8.967l3.79-2.654c.317.21.498.524.481.865-.109 1.74-.043 6 3.101 6.47 1.264-.152 2.341-.915 3.26-1.941l2.641.327.006-.004z"/><path fill="#F23E30" d="M63.794 61.466c.3.415.328.92.076 1.357l-1.198 2.06c-.574.99-1.416 1.872-2.466 2.583l-2.073 1.406c-.782.528-1.958.466-2.641-.136-.695-.615-.618-1.558.175-2.094l1.356-.925c1.006-.686 1.821-1.532 2.39-2.475l1.056-1.75c.721-1.025 2.592-1.034 3.325-.017v-.009z"/><path fill="#F78161" d="M52.806 68.832s-.875.808-.202 1.362.514-.127.514-.127l.367-.951.175-.27s-.503-.42-.854-.014z"/><path fill="#F78161" d="M52.97 69.108s-.875.807-.202 1.361c.673.554.514-.126.514-.126l.367-.952.175-.27s-.503-.42-.853-.013z"/><path fill="#F78161" d="M53.48 69.386s-.875.807-.202 1.362c.673.554.514-.127.514-.127l.367-.951.175-.27s-.504-.42-.854-.014z"/><path fill="#F4CAAE" d="M53.157 68.561s1.744-1.474 2.745-.366c1.252 1.388-.722 1.628-1.066 1.759-.345.13-.695.536-.53.811.163.275-.695.537-.679-.148.016-.68.366-.952.366-.952s-1.197-.017-1.186-.427c.01-.41.355-.677.355-.677h-.005z"/><path fill="#1C5360" d="M34.178 89.839s.93 4.996 6.486 4.774c5.55-.227-2.57-3.897-2.57-3.897l-3.916-.877z"/><path fill="#1C5360" d="M41.102 94.582s-3.189.18-3.801-1.069l1.788-3.395 2.007 4.469.006-.005z"/><path fill="#98EBF4" d="M45.59 88.805l.033 1.086c.033 1.056-.465 2.24-1.334 3.173-2.204 2.365-5.403 1.95-5.524-.711l-.049-1.07c-.05-1.095.476-2.325 1.395-3.281l.016-.017c2.231-2.318 5.387-1.842 5.469.82h-.006z"/><path fill="#1C5360" d="M44.37 89.773l.017.484c.016.471-.208.995-.596 1.414-.979 1.052-2.406.868-2.461-.319l-.022-.475c-.022-.489.213-1.034.623-1.462v-.009c1.001-1.03 2.407-.82 2.44.367zm1.06-19.596l5.496 2.444c1.105.488 1.51 1.653.891 2.557l-2.75 4.023c-.536.786-1.428 1.353-2.472 1.571l-2.013.423c-1.58.336-3.221-.353-3.866-1.623l-.482-.943a3.408 3.408 0 0 1-.027-3.085l2.188-4.455c.492-1 1.892-1.423 3.035-.916v.004z"/><path fill="#43ABC4" d="M51.312 74.623l-2.75 4.024c-.536.785-1.428 1.348-2.472 1.57l-2.013.424c-1.394.297-2.838-.21-3.598-1.204a2.519 2.519 0 0 1-.263-.42l-.476-.942a3.39 3.39 0 0 1-.027-3.085l2.188-4.455c.492-1 1.892-1.423 3.035-.912l2.466 1.095 3.03 1.348c1.105.489 1.51 1.654.891 2.557h-.01z"/><path fill="#98EBF4" d="M47.621 71.071s-3.555-1.553-4.605-.48c-1.05 1.078-3.013 4.46-3.051 6.097a6.852 6.852 0 0 0 .514 2.749 2.519 2.519 0 0 1-.263-.42l-.476-.942a3.39 3.39 0 0 1-.027-3.085l2.188-4.455c.492-1 1.892-1.423 3.035-.912l2.466 1.095c.131.205.23.353.23.353h-.011zm-.316 6.265c.842-.205 1.542-.68 1.936-1.313l.054-.087c.159-.24-.12-.515-.448-.441l-3.49.785c-.666.149-1.219.524-1.514 1.026l-.23.392c-.142.245.148.507.47.428l3.222-.79z"/><path fill="#98EBF4" d="M40.72 75.09a1.837 1.837 0 0 1-.038-1.794l.044-.078c.109-.223.497-.236.629-.022l1.389 2.308c.262.441.279.952.032 1.401l-.191.35c-.12.217-.509.217-.629 0l-1.23-2.17-.006.005z"/><path fill="#5CCEE0" d="M65.5 74.789c-.836.489-2.45 1.444-2.958 1.833-.695.536-3.205 5.275-3.932 7.038-.727 1.763-4.534 3.618-4.534 3.618l-.52.236c-1.695.85-4.314 2.321-6.19 2.509-.164 0-.273-.009-.323-.009a.314.314 0 0 1-.175-.07c-.306-.249-.366-1.038-.366-1.038s2.34-.668 4.424-1.388c1.067-.371 2.067-.75 2.652-1.065.296-.161.613-.353.93-.567 1.526-1.021 3.134-2.518 3.435-3.19.36-.812 3.04-5.686 3.92-6.629.876-.942 3.818-2.264 3.818-2.264l.235.022a.816.816 0 0 1 .038.157c.033.314-.142.62-.459.807h.005z"/><path fill="#43ABC4" d="M45.51 87.962c-1.575-3.339-5.14.231-5.14.231v-.04c-.76.8-1.297 1.772-1.647 2.772-.36 1.034-1.52 1.662-2.729 1.662a3.267 3.267 0 0 1-1.575-.392c-.907-.498-1.383-1.38-1.175-2.243 1.225-5.097 6.699-5.481 6.699-5.481l3.358.973c.284.03.558.096.82.17.383.11.727.244.995.358.22.087.383.161.482.188a.3.3 0 0 1 .17.109c.333.414-.269 1.697-.269 1.697l.011-.004z"/><path fill="#328C9B" d="M45.51 87.963c-1.575-3.338-5.14.231-5.14.231v-.04c-.76.8-1.297 1.773-1.647 2.772-.36 1.034-1.52 1.662-2.729 1.662a3.267 3.267 0 0 1-1.575-.392c-.907-.498-1.383-1.38-1.175-2.243.601 1.414 1.777 1.379 2.805.986 1.028-.393 1.816-1.121 2.21-1.985 1.564-3.426 5.736-3.33 5.736-3.33l.132-.009c.382.11.727.245.995.358.219.087.383.162.481.188a.299.299 0 0 1 .17.109c.333.414-.268 1.697-.268 1.697l.005-.004z"/><path fill="#98EBF4" d="M61.492 58.254a3.242 3.242 0 0 1-.924 1.248l-.077.061s.613-1.732.148-3.128c-.24-.742-.788-1.388-1.893-1.628a3.32 3.32 0 0 0-.246-.048s-.661-.157-1.542-.096c-.755.057-1.673.275-2.472.895 1.23-1.807 3.987-1.471 4.348-1.419 1.673.11 2.74 1.366 2.866 2.732.043.462-.028.934-.214 1.383h.006z"/><path fill="#328C9B" d="M69.743 75.63c-.016.27-.18.55-.541.777-.028.013-.055.03-.082.044l-3.216 1.562-1.608.781-.148.07a3.438 3.438 0 0 1-1.98.24 3.459 3.459 0 0 1-.716-.205 1.022 1.022 0 0 1-.393-.301l.13-.262s1.614.427 2.686 0c1.072-.428 5.824-2.915 5.824-2.915l.044.21z"/><path fill="#43ABC4" d="M75.764 70.402v7.278c0 .738.486 1.419 1.285 1.794l23.324 10.975c.804.38 1.805.384 2.62.013l.328-.148L140.235 73.5c.815-.37 1.318-1.06 1.318-1.807v-14.95c0-.532-.257-1.038-.7-1.418a2.603 2.603 0 0 0-.607-.384l-20.814-9.54a3.206 3.206 0 0 0-2.598 0L92.826 56.399l-.962.441c-.421.192-.76.471-.99.808l-4.277 6.257c-.23.34-.574.62-.995.812l-8.51 3.88c-.234.104-.437.24-.612.388-.443.38-.7.885-.7 1.418h-.016z"/><path fill="#1C5360" d="M86.588 66.683c.01.266.191.524.498.664l1.137.515 5.906 2.679.58.262 1.252.567 3.265 1.48 3.626 1.64 4.818 2.186.427.192c.486.219 1.099.079 1.367-.314l1.657-2.483.011-.013.344-.515 1.548-2.321 1.865-2.797a.691.691 0 0 0 .115-.402c-.011-.27-.197-.528-.514-.663l-4.288-1.86-3.866-1.675-7.017-3.037-1.515-.655-2.27-.982-2.066-.894c-.383-.166-.843-.11-1.143.113a.795.795 0 0 0-.192.197l-.049.07-.421.602-.946 1.344-.842 1.2-1.165 1.662-.055.079-.902 1.287-1.023 1.462a.644.644 0 0 0-.126.41h-.016z"/><path fill="#65CEE0" d="M92.814 56.398l23.068 9.928c1.077.462 2.379.427 3.412-.096l21.553-10.901a2.607 2.607 0 0 0-.607-.384l-20.814-9.54a3.206 3.206 0 0 0-2.598 0L92.82 56.403l-.005-.004z"/><path fill="#1C5360" d="M113.646 78.135l6.541-3.242 1.75-.868 1.723-.851 3.833-1.903.782-.388c.192-.096.307-.262.307-.445v-6.306c0-.41-.564-.659-1.001-.44l-.733.366-1.734.864-5.518 2.749c-.448.222-.836.51-1.148.846a3.426 3.426 0 0 0-.377.485l-2.193 3.456-3.172 4.996c-.296.472.366.956.929.681h.011z"/><path fill="#65CEE0" d="M120.394 70.87c.492 1.697 3.237.994 3.27 2.3l3.834-1.904c-.996-.462-2.15-.864-2.828-1.108-1.958-.711.536-3.129 3.03-4.263 1.865-.851.142-1.545-.842-1.837l-1.734.864c-.251.584-.749 1.357-1.701 1.968-1.782 1.139-3.565 2.133-3.029 3.98zm-4.506 1.587c.558.245 1.307.498 2.188.825 1.974.733 2.198.925 2.111 1.606l1.75-.868c-.684-.86-1.86-1.685-2.795-2.16-1.821-.925-.837-3.05-.689-3.347a3.42 3.42 0 0 0-.377.484l-2.193 3.456.005.004z" opacity=".4"/><path fill="#1C5360" d="M133.727 78.589l.343.144s-.142-.04-.343-.144z"/><path fill="#1C5360" d="M133.727 78.59l-2.477-1.048 1.165-.497.662-.428.667.93.333.532-.667.131-.257-.052c.197.209.405.344.574.436v-.004z"/><path fill="#65CEE0" d="M136.523 71.23c2.171-1.009 3.943-.197 3.943 1.801 0 2.003-1.777 4.438-3.943 5.411-2.171.974-3.943.162-3.943-1.802 0-1.968 1.777-4.403 3.943-5.41z"/><path fill="#1C5360" d="M136.73 73.175c1.104-.514 2.007-.1 2.007.921 0 1.021-.903 2.26-2.007 2.758-1.105.498-2.007.083-2.007-.92 0-1.004.902-2.244 2.007-2.758zm-27.423 16.549l.343.144s-.141-.04-.343-.144z"/><path fill="#1C5360" d="M109.307 89.724l-2.477-1.047 1.165-.497.662-.428.667.93.333.532-.667.13-.257-.052c.197.21.405.345.574.437v-.005z"/><path fill="#65CEE0" d="M112.103 82.362c2.171-1.008 3.943-.196 3.943 1.802 0 2.003-1.777 4.438-3.943 5.411-2.171.973-3.943.162-3.943-1.802s1.777-4.403 3.943-5.411z"/><path fill="#1C5360" d="M112.312 84.312c1.104-.515 2.007-.1 2.007.92 0 1.022-.903 2.261-2.007 2.759-1.105.497-2.007.083-2.007-.92 0-1.005.902-2.244 2.007-2.759zm-16.183 1.743c1.225.567 2.22.113 2.22-1.017s-1-2.5-2.22-3.05c-1.22-.55-2.22-.092-2.22 1.016 0 1.109 1 2.479 2.22 3.05z"/><path fill="#65CEE0" d="M94.537 82.742v.017c0 .877.722 1.951 1.652 2.51.098.056.197.113.295.157.197.091.388.152.569.187.388.07.722.009.968-.17.257-.183.41-.493.41-.908a1.49 1.49 0 0 0-.022-.266c-.093-.637-.503-1.322-1.066-1.828a3.22 3.22 0 0 0-.859-.572c-1.061-.475-1.936-.083-1.947.873z"/><path fill="#fff" d="M94.537 82.742c.34.174.733.397.995.764.668.929.832.397.668 1.592-.011.057-.011.114-.011.17.098.057.197.114.295.158.197.091.388.152.569.187.257-.056.618-.091.968-.17.257-.183.41-.493.41-.908a1.49 1.49 0 0 0-.022-.266c-.716-.419-1.843-.877-2.045-1.427-.236-.663.366-.38.979-.401a3.22 3.22 0 0 0-.859-.572c-1.061-.475-1.936-.083-1.947.873z" opacity=".44"/><path fill="#1C5360" d="M80.017 77.833c1.225.567 2.22.113 2.22-1.017s-1-2.5-2.22-3.05c-1.22-.55-2.22-.092-2.22 1.017 0 1.108 1 2.478 2.22 3.05z"/><path fill="#65CEE0" d="M78.42 74.525v.018c0 .877.722 1.95 1.651 2.509.099.056.197.113.296.157.197.091.388.153.569.188.388.07.721.008.967-.17.258-.184.41-.494.41-.908a1.49 1.49 0 0 0-.021-.267c-.093-.637-.503-1.322-1.067-1.828a3.22 3.22 0 0 0-.858-.572c-1.061-.475-1.936-.082-1.947.873z"/><path fill="#fff" d="M78.42 74.525c.339.175.733.397.995.764.667.93.831.397.667 1.593a.894.894 0 0 0-.01.17c.098.056.196.113.295.157.197.091.388.153.569.188.257-.057.617-.092.967-.17.258-.184.41-.494.41-.908a1.49 1.49 0 0 0-.021-.267c-.717-.419-1.843-.877-2.046-1.427-.235-.663.367-.38.98-.401a3.22 3.22 0 0 0-.86-.572c-1.06-.475-1.935-.082-1.946.873z" opacity=".44"/></symbol></svg>