<svg width="139" height="123" viewBox="0 0 139 123" fill="none" xmlns="http://www.w3.org/2000/svg">
<path fill-rule="evenodd" clip-rule="evenodd" d="M64.4358 1.60134C79.2785 2.90217 91.9652 9.69367 103.911 17.119C115.685 24.4373 127.811 32.286 132.443 43.8727C137.091 55.4961 134.796 68.3692 128.889 79.5918C123.353 90.1101 111.626 96.6151 100.88 103.841C89.438 111.535 79.1273 122.096 64.4358 122.932C49.4358 123.786 35.4813 116.427 24.1701 108.206C13.5831 100.512 6.94098 89.9681 3.4973 78.6439C0.232469 67.908 2.9835 57.174 5.33672 46.275C8.11222 33.4201 6.76567 18.4187 18.3993 9.62465C30.2825 0.642012 48.4511 0.200426 64.4358 1.60134Z" fill="white" fill-opacity="0.32"/>
<path d="M108.536 37.6806C102.124 39.9354 44.9845 60.6147 4.32333 95.3281C2.09482 97.2293 3.15479 100.573 6.17439 101.165L36.1274 107.02C38.5782 107.498 41.1428 107.02 43.1748 105.716C57.5852 96.4303 116.829 58.5206 137.387 49.5425C138.68 48.9777 138.587 47.3199 137.243 46.8698L109.715 37.6806C109.332 37.552 108.913 37.5566 108.536 37.6897V37.6806Z" fill="#FBA7A6"/>
<path d="M47.1467 19.8066C46.6451 19.8066 46.1591 19.577 45.8851 19.1682C45.4766 18.5529 45.7093 17.7538 46.4021 17.391L79.3075 0.178932C80.0003 -0.183862 80.9 0.0227931 81.3085 0.638166C81.717 1.25354 81.4843 2.0526 80.7914 2.4154L47.8861 19.6229C47.6534 19.7469 47.4 19.802 47.1467 19.802V19.8066Z" fill="#1C5360"/>
<path d="M49.4885 23.035C48.9869 23.035 48.5009 22.8054 48.2269 22.3967C47.8184 21.7813 48.0511 20.9823 48.7439 20.6195L65.331 11.9446C66.0239 11.5818 66.9236 11.7884 67.332 12.4038C67.7405 13.0192 67.5078 13.8182 66.815 14.181L50.2279 22.8559C49.9952 22.9799 49.7418 23.035 49.4885 23.035Z" fill="#1C5360"/>
<path d="M70.4553 12.5411C69.9537 12.5411 69.4677 12.3115 69.1936 11.9028C68.7852 11.2874 69.0179 10.4883 69.7107 10.1255L73.9092 7.9304C74.602 7.5676 75.5017 7.77426 75.9102 8.38963C76.3187 9.005 76.086 9.80407 75.3931 10.1669L71.1946 12.362C70.962 12.486 70.7086 12.5411 70.4553 12.5411Z" fill="#1C5360"/>
<path d="M67.2756 26.5348C66.774 26.5348 66.288 26.3051 66.014 25.8964C65.6055 25.281 65.8382 24.482 66.531 24.1192L70.7295 21.924C71.4224 21.5613 72.3221 21.7679 72.7305 22.3833C73.139 22.9987 72.9063 23.7977 72.2135 24.1605L68.015 26.3557C67.7823 26.4796 67.5289 26.5348 67.2756 26.5348Z" fill="#1C5360"/>
<path d="M51.6506 28.7893C51.149 28.7893 50.663 28.5597 50.389 28.151C49.9805 27.5356 50.2132 26.7365 50.906 26.3737L74.2252 14.1765C74.918 13.8137 75.8177 14.0204 76.2262 14.6357C76.6347 15.2511 76.402 16.0502 75.7091 16.413L52.39 28.6102C52.1573 28.7342 51.9039 28.7893 51.6506 28.7893Z" fill="#1C5360"/>
<path d="M51.3947 34.4326C50.8932 34.4326 50.4071 34.203 50.1331 33.7943C49.7246 33.1789 49.9573 32.3798 50.6502 32.017L62.408 25.8679C63.1008 25.5051 64.0005 25.7118 64.409 26.3271C64.8175 26.9425 64.5848 27.7416 63.8919 28.1044L52.1341 34.2535C51.9014 34.3775 51.6481 34.4326 51.3947 34.4326Z" fill="#1C5360"/>
<path d="M48.0939 42.2169C47.5924 42.2169 47.1064 41.9873 46.8323 41.5786C46.4238 40.9632 46.6565 40.1641 47.3494 39.8013L69.9033 28.0036C70.5962 27.6408 71.4958 27.8475 71.9043 28.4629C72.3128 29.0782 72.0801 29.8773 71.3873 30.2401L48.8333 42.0378C48.6006 42.1618 48.3473 42.2169 48.0939 42.2169Z" fill="#1C5360"/>
<path d="M41.9963 50.4562C41.4947 50.4562 41.0087 50.2266 40.7347 49.8179C40.3262 49.2025 40.5589 48.4034 41.2517 48.0406L58.3972 39.0764C59.0901 38.7136 59.9898 38.9203 60.3982 39.5356C60.8067 40.151 60.574 40.9501 59.8812 41.3129L42.7357 50.2771C42.503 50.4011 42.2496 50.4562 41.9963 50.4562Z" fill="#1C5360"/>
<path opacity="0.4" d="M66.498 65.96C66.7928 66.1161 67.0048 66.2171 67.0668 66.2493C66.9944 66.2171 66.7566 66.1115 66.498 65.96Z" fill="#65CEE0"/>
<path d="M48.7116 33.431C49.02 32.9742 49.0298 32.476 48.7335 32.3181C48.4372 32.1603 47.9469 32.4027 47.6385 32.8594C47.3301 33.3162 47.3203 33.8145 47.6166 33.9723C47.913 34.1301 48.4032 33.8878 48.7116 33.431Z" fill="#1C5360"/>
<path d="M48.5392 20.4817C48.0377 20.4817 47.5517 20.252 47.2776 19.8433C46.8692 19.228 47.1018 18.4289 47.7947 18.0661L80.7001 0.85862C81.3929 0.495826 82.2926 0.702481 82.7011 1.31785C83.1095 1.93323 82.8769 2.73229 82.184 3.09509L49.2786 20.3026C49.046 20.4266 48.7926 20.4817 48.5392 20.4817Z" fill="#FBA7A6"/>
<path d="M50.885 23.7147C50.3834 23.7147 49.8974 23.4851 49.6233 23.0764C49.2149 22.461 49.4475 21.662 50.1404 21.2992L66.7275 12.6242C67.4204 12.2615 68.32 12.4681 68.7285 13.0835C69.137 13.6989 68.9043 14.4979 68.2115 14.8607L51.6244 23.5356C51.3917 23.6596 51.1383 23.7147 50.885 23.7147Z" fill="#FBA7A6"/>
<path d="M71.8478 13.2164C71.3463 13.2164 70.8603 12.9868 70.5862 12.5781C70.1778 11.9627 70.4104 11.1636 71.1033 10.8008L75.3018 8.60569C75.9946 8.2429 76.8943 8.44955 77.3028 9.06492C77.7112 9.6803 77.4786 10.4794 76.7857 10.8422L72.5872 13.0373C72.3546 13.1613 72.1012 13.2164 71.8478 13.2164Z" fill="#FBA7A6"/>
<path d="M68.674 27.2091C68.1725 27.2091 67.6864 26.9795 67.4124 26.5707C67.0039 25.9554 67.2366 25.1563 67.9295 24.7935L72.1279 22.5984C72.8208 22.2356 73.7205 22.4422 74.1289 23.0576C74.5374 23.673 74.3047 24.472 73.6119 24.8348L69.4134 27.03C69.1807 27.154 68.9274 27.2091 68.674 27.2091Z" fill="#FBA7A6"/>
<path d="M53.0432 29.469C52.5416 29.469 52.0556 29.2394 51.7815 28.8307C51.3731 28.2153 51.6057 27.4162 52.2986 27.0534L75.6178 14.8562C76.3106 14.4934 77.2103 14.7 77.6188 15.3154C78.0272 15.9308 77.7946 16.7299 77.1017 17.0926L53.7825 29.2899C53.5499 29.4139 53.2965 29.469 53.0432 29.469Z" fill="#FBA7A6"/>
<path d="M52.7873 35.1084C52.2858 35.1084 51.7997 34.8788 51.5257 34.47C51.1172 33.8547 51.3499 33.0556 52.0427 32.6928L63.8006 26.5437C64.4934 26.1809 65.3931 26.3875 65.8016 27.0029C66.21 27.6183 65.9774 28.4174 65.2845 28.7801L53.5267 34.9293C53.294 35.0533 53.0407 35.1084 52.7873 35.1084Z" fill="#FBA7A6"/>
<path d="M49.4865 42.8966C48.985 42.8966 48.4989 42.667 48.2249 42.2583C47.8164 41.6429 48.0491 40.8438 48.742 40.481L71.2959 28.6833C71.9887 28.3205 72.8884 28.5272 73.2969 29.1426C73.7054 29.7579 73.4727 30.557 72.7798 30.9198L50.2259 42.7175C49.9932 42.8415 49.7399 42.8966 49.4865 42.8966Z" fill="#FBA7A6"/>
<path d="M43.3889 51.131C42.8873 51.131 42.4013 50.9014 42.1272 50.4927C41.7188 49.8773 41.9514 49.0782 42.6443 48.7154L59.7899 39.7512C60.4827 39.3884 61.3824 39.5951 61.7909 40.2104C62.1993 40.8258 61.9667 41.6249 61.2738 41.9877L44.1283 50.9519C43.8956 51.0759 43.6422 51.131 43.3889 51.131Z" fill="#FBA7A6"/>
<path d="M116.575 43.5723C116.575 43.5723 55.4695 71.4845 24.3945 97.0178" stroke="white" stroke-width="16" stroke-linecap="round" stroke-linejoin="round"/>
<path d="M42.9977 77.4126C42.9977 77.4126 43.3906 78.1428 42.8219 79.2128C42.2583 80.2874 41.0794 80.0716 40.2159 81.4217C39.3576 82.7673 37.6617 86.1105 36.824 87.0565C35.9916 88.0071 32.2636 91.1942 29.5749 90.1839C26.8862 89.1782 24.0735 87.6856 26.2813 85.6742C28.4943 83.6673 30.6607 83.6995 31.0951 82.3861C31.5294 81.0727 31.2915 79.5021 33.0599 79.1715C33.0599 79.1715 36.2036 76.8523 38.975 75.5022C39.492 75.2496 39.9988 75.0292 40.4693 74.8638C40.5106 74.8501 40.552 74.8363 40.5882 74.8225C41.3741 74.5607 42.0463 74.4643 42.5065 74.6342C43.0287 74.8317 43.3131 75.1118 43.4475 75.4195C43.8301 76.3012 42.9925 77.4126 42.9925 77.4126H42.9977Z" fill="#1C5360"/>
<path d="M43.4588 75.4195C42.7867 76.9074 39.9532 78.6663 39.9532 78.6663L38.9863 75.5022C39.5034 75.2496 40.0101 75.0292 40.4806 74.8638H40.5375C40.5375 74.8638 40.5633 74.8455 40.6047 74.8225C41.3906 74.5607 42.0628 74.4643 42.523 74.6342C43.0452 74.8317 43.3296 75.1118 43.464 75.4195H43.4588Z" fill="#2F7C89"/>
<path d="M42.8274 67.916L43.179 72.6323C43.2255 73.2248 42.936 73.7988 42.4138 74.1662L39.6165 76.0536L37.207 68.1319L42.8274 67.916Z" fill="#43ABC4"/>
<path d="M43.6596 71.7552C43.6751 71.8976 43.5458 72.0216 43.3855 72.017C43.3183 72.017 43.2563 71.994 43.2097 71.9527C43.1632 71.916 43.1322 71.8609 43.1218 71.8012L43.1011 71.6221L42.7444 68.4212C42.7185 68.1916 42.429 68.0676 42.2118 68.1962L41.2759 68.7472C41.0381 68.885 40.8726 69.1009 40.8106 69.3488L40.6245 70.102L40.6089 70.1617L40.4538 70.0698L39.1974 69.3488L38.9389 69.1973L37.6772 68.4717L37.305 68.2605L37.2429 68.2237L36.8551 67.9987L36.7931 67.962L35.7641 67.3695L35.6504 67.3053L35.8107 67.1629L35.8262 67.1491L36.7465 66.3363L36.8241 66.2674L37.0464 66.0699L37.1085 66.0148L37.1602 65.9689L38.2667 64.9907C38.2667 64.9907 38.3132 64.9999 38.3701 65.0229C38.52 65.0826 38.8251 65.2249 39.2129 65.4132C39.518 65.5602 39.8747 65.7393 40.247 65.923C41.3742 66.4832 42.641 67.1353 43.0753 67.3604C43.1735 67.4109 43.2356 67.4981 43.2459 67.5992L43.6492 71.7552H43.6596Z" fill="#1C5360"/>
<path d="M32.0738 75.1807C32.0738 75.1807 31.6394 76.4987 30.5381 77.3207C29.4368 78.1427 27.503 79.796 27.989 82.4549L28.1028 83.4193C28.1028 83.4193 28.7336 85.7155 32.4408 83.3734C32.4408 83.3734 33.4646 79.7822 34.0179 79.1898C34.5711 78.5974 37.8389 77.9315 38.0147 76.1267C38.1905 74.3219 37.9423 73.1187 36.1843 72.9672C34.4263 72.8156 32.3581 74.5883 32.0738 75.1853V75.1807Z" fill="#1C5360"/>
<path d="M28.5009 83.7872C28.5009 83.7872 27.0015 84.2419 26.5775 84.9583C26.1535 85.6747 26.1432 86.2763 26.2776 86.2763C26.412 86.2763 26.6654 87.2452 28.0252 86.9054C29.3851 86.5656 30.626 85.7436 31.1638 85.7527C31.7015 85.7619 31.9859 85.4037 31.9962 84.8021C32.0066 84.2005 31.898 83.1167 31.3551 83.1076C30.8122 83.0984 29.3437 82.2304 28.4957 83.7826L28.5009 83.7872Z" fill="#1C5360"/>
<path d="M31.4724 85.2383C31.4724 85.2383 30.0505 86.0466 29.6627 86.8916C29.2698 87.7365 29.2646 88.3703 29.3939 88.3427C29.5231 88.3152 29.7713 89.275 31.0588 88.6183C32.3462 87.9616 33.5148 86.8273 34.0267 86.717C34.5386 86.6068 34.8023 86.1706 34.8074 85.5368C34.8126 84.9031 34.6937 83.7871 34.1766 83.8974C33.6596 84.0076 32.2532 83.4198 31.4672 85.2383H31.4724Z" fill="#FC624E"/>
<path d="M34.4753 76.6689C34.4753 76.6689 34.041 77.9869 32.9397 78.809C31.8384 79.631 29.6357 81.2796 30.1217 83.9386L30.2406 84.6642C30.2406 84.6642 30.7577 86.9787 33.6635 85.601C34.222 85.3393 34.6356 84.8892 34.8269 84.3565C35.2354 83.213 36.0213 81.1051 36.4246 80.678C36.9779 80.0856 40.2457 79.4197 40.4215 77.615C40.5973 75.8102 40.3491 74.607 38.5911 74.4554C36.8331 74.3039 34.7649 76.0765 34.4805 76.6735L34.4753 76.6689Z" fill="#53D0E5"/>
<path d="M35.1596 67.1488C35.3406 67.5391 35.2941 67.9846 35.0355 68.3382L33.8205 70.0236C33.2362 70.8318 32.4554 71.5253 31.5402 72.0442L29.7254 73.0729C29.0429 73.4586 28.1277 73.2979 27.6727 72.7055C27.2073 72.1039 27.3986 71.2865 28.0915 70.8915L29.2807 70.2118C30.1649 69.7067 30.9146 69.05 31.4885 68.2739L32.5485 66.8411C33.2517 66.0145 34.7253 66.1844 35.1596 67.1442V67.1488Z" fill="#F23E30"/>
<path d="M34.771 64.4443C34.771 64.4443 32.5374 65.3904 32.4288 67.659C32.3202 69.9276 34.0265 71.2502 34.0265 71.2502C34.0265 71.2502 32.3254 66.4328 36.2602 65.2021L34.771 64.4443Z" fill="#1C5360"/>
<path d="M33.1938 67.429C33.1938 67.429 32.7698 68.1454 33.0076 69.7114C33.2455 71.282 33.4988 72.0076 33.354 72.6046C33.2041 73.2016 32.2165 75.112 32.8784 75.8468C33.5402 76.5815 38.2557 78.5884 40.236 75.3646C41.1616 73.8537 41.3167 72.0673 40.3757 68.3015C40.174 67.5025 39.0933 67.1167 38.2505 66.7907C36.7304 66.2029 34.0055 65.4773 33.1938 67.429Z" fill="#FC624E"/>
<path d="M35.3045 68.0811C35.3045 68.0811 34.6685 69.5001 34.8805 70.538C35.0925 71.5758 35.0925 74.0327 34.7719 74.6022C34.4513 75.167 34.0273 76.4942 34.0273 76.4942" stroke="#FFD6D6" stroke-width="4" stroke-miterlimit="10" stroke-linecap="round"/>
<path d="M41.5288 85.0308C41.5288 85.0308 39.0004 85.187 38.5195 84.0894L39.9363 81.0952L41.5288 85.0354V85.0308Z" fill="#1C5360"/>
<path d="M45.0913 79.9336L45.1171 80.8888C45.143 81.8211 44.75 82.8635 44.0571 83.6856C42.3095 85.7705 39.7759 85.4077 39.6777 83.0564L39.6415 82.115C39.6001 81.1506 40.0189 80.0668 40.748 79.2218L40.7583 79.208C42.5267 77.1645 45.024 77.5824 45.0913 79.9336Z" fill="#98EBF4"/>
<path d="M44.1193 80.788L44.1296 81.2151C44.14 81.6284 43.9641 82.0922 43.6591 82.4596C42.8835 83.3873 41.7511 83.2266 41.7098 82.1795L41.6943 81.7616C41.6788 81.3299 41.8597 80.8477 42.1855 80.4712H42.1907C42.9766 79.5573 44.0882 79.741 44.1193 80.788Z" fill="#1C5360"/>
<path d="M37.2997 61.6386L37.2015 62.2172L36.943 63.7465L36.9171 63.774L36.6482 64.0679L36.5862 64.1368H36.581L36.4001 64.3435L35.9192 64.8624L35.914 64.867L35.8158 64.9772L35.6968 65.1058L35.0919 65.7625L35.0712 65.7855L35.0402 65.8222L34.9988 65.8681L34.7248 66.162L34.6369 66.2585C34.6369 66.2585 34.6214 66.2585 34.5955 66.2585H34.5645C34.4663 66.2585 34.2853 66.2447 34.0888 66.162C34.0474 66.1437 34.0061 66.1253 33.9647 66.1023C33.9337 66.084 33.9027 66.0656 33.8768 66.0472C33.8665 66.038 33.851 66.0288 33.8406 66.0197C33.6752 65.8957 33.5252 65.7028 33.4322 65.4181C33.3133 65.0461 33.2977 64.5088 33.489 63.7327C33.5718 63.402 33.6855 63.1219 33.8303 62.8877C34.8023 61.2941 36.9895 61.5927 37.2739 61.6386C37.2894 61.6386 37.2997 61.6432 37.2997 61.6432V61.6386Z" fill="#43ABC4"/>
<path d="M34.787 65.6706C34.7766 65.9323 34.7715 66.0609 34.7146 66.162C34.6939 66.1987 34.6629 66.2263 34.6267 66.2584C34.6267 66.2584 34.1923 66.2997 33.8304 66.0242C33.9286 65.6109 33.7891 64.6695 33.7891 64.6695C33.7891 64.6695 33.789 64.6695 33.7942 64.6603C33.8149 64.6327 33.8873 64.5547 34.0062 64.4536C34.0062 64.4536 34.0062 64.4536 34.0114 64.449C34.0683 64.4031 34.1561 64.3939 34.244 64.4031C34.3992 64.4169 34.5543 64.4858 34.5543 64.4858C34.5543 64.4858 34.6163 64.7108 34.6784 64.9725C34.7353 65.2205 34.787 65.5007 34.7818 65.6706H34.787Z" fill="#1C5360"/>
<path d="M37.303 66.3594C37.1324 67.062 36.5843 67.9943 35.3227 67.9438C34.0611 67.8933 34.0559 66.7038 34.0869 65.8772C34.0869 65.767 34.0869 65.6614 34.0869 65.5603C34.0766 65.3629 34.0559 65.1838 34.0249 65.0322C33.9732 64.7567 34.0404 64.4766 34.2059 64.2469C34.2679 64.1597 34.3455 64.077 34.4385 64.0081L35.4571 63.2183C35.4571 63.2183 35.8604 63.7051 36.9618 64.3388C38.0631 64.9725 37.4737 65.6568 37.303 66.3594Z" fill="#F4CAAE"/>
<path d="M35.2318 65.3262L35.0715 66.2538C35.0612 66.3227 35.1181 66.387 35.2008 66.387L35.4645 66.3962" stroke="#2F7C89" stroke-miterlimit="10"/>
<path d="M34.6738 66.7866L34.8393 66.8647C35.0771 66.9795 35.3667 66.9887 35.6097 66.8968L35.7803 66.8325" stroke="#2F7C89" stroke-miterlimit="10"/>
<path d="M39.3685 65.262C39.1927 65.7258 38.9238 66.0932 38.6343 66.3642C38.5981 66.3963 38.5774 66.4147 38.5774 66.4147C38.5619 66.4285 38.5516 66.4377 38.5361 66.4514L38.4947 66.4836C38.3396 66.6076 38.1844 66.704 38.0345 66.7729C38.0138 66.7821 37.9931 66.7913 37.9724 66.8005C37.9052 66.828 37.838 66.851 37.776 66.8648C37.7605 66.8693 37.745 66.8739 37.7294 66.8739C37.626 66.8969 37.5329 66.9015 37.4502 66.8969C37.4347 66.8969 37.414 66.8969 37.3985 66.8877H37.3933C37.3778 66.8877 37.3623 66.8831 37.3468 66.8785C37.3313 66.8739 37.3158 66.8693 37.3003 66.8648C37.2899 66.8602 37.2744 66.8556 37.2641 66.8464C37.2331 66.8326 37.2072 66.8096 37.1865 66.7867C37.1762 66.7775 37.171 66.7637 37.1607 66.7545C37.1555 66.7453 37.1452 66.7316 37.14 66.7224C37.14 66.7224 37.14 66.7224 37.14 66.7178C37.14 66.7086 37.1348 66.704 37.1296 66.6948C37.1296 66.6902 37.1245 66.6811 37.1245 66.6765C37.1245 66.6673 37.1193 66.6535 37.1142 66.6397C37.1142 66.6305 37.1142 66.6214 37.1142 66.6122C37.1142 66.603 37.1142 66.5938 37.1142 66.5846C37.1142 66.5708 37.1142 66.5571 37.1142 66.5433C37.1142 66.5203 37.1142 66.502 37.1142 66.479C37.1142 66.4468 37.1193 66.4193 37.1245 66.3871C37.1245 66.3596 37.1296 66.332 37.1296 66.3045C37.1296 66.2723 37.1348 66.2402 37.1348 66.208C37.1348 66.1805 37.1348 66.1483 37.14 66.1208C37.14 66.0657 37.1452 66.0106 37.1452 65.9555C37.1503 65.7075 37.1451 65.487 37.1193 65.2942C37.1141 65.2437 37.109 65.1931 37.0986 65.1472C37.0883 65.0737 37.0728 65.0049 37.0573 64.9406C37.0521 64.913 37.0418 64.8855 37.0366 64.8625C37.0314 64.8349 37.0211 64.812 37.0107 64.7844C37.0056 64.7615 36.9952 64.7385 36.9849 64.7155C36.9642 64.6696 36.9487 64.6237 36.928 64.5778C36.928 64.5732 36.928 64.5686 36.9228 64.564C36.9125 64.541 36.9022 64.5227 36.8918 64.4997C36.8815 64.4813 36.8711 64.4675 36.8608 64.4492C36.8608 64.4446 36.8556 64.44 36.8504 64.4354C36.8453 64.4262 36.8401 64.417 36.8349 64.4078C36.8246 64.3895 36.8142 64.3757 36.7987 64.3573C36.7729 64.3206 36.7419 64.2884 36.716 64.2563C36.7005 64.2425 36.685 64.2287 36.6695 64.215C36.6539 64.2012 36.6385 64.1874 36.6229 64.1782C36.6126 64.169 36.5971 64.1599 36.5867 64.1507C36.5867 64.1507 36.5816 64.1507 36.5764 64.1461C36.5712 64.1461 36.5661 64.1369 36.5557 64.1369C36.473 64.091 36.3954 64.0726 36.3179 64.0726C36.2868 64.0726 36.261 64.0726 36.2352 64.0818C36.1162 64.1093 35.9921 64.091 35.868 64.0496C35.5578 63.944 35.2786 63.6914 35.2786 63.6914C35.2786 63.6914 35.2734 63.6409 35.2734 63.5537C35.2734 63.5123 35.2734 63.4664 35.2734 63.4159C35.2734 63.3929 35.2734 63.3746 35.2734 63.3516C35.2786 63.2781 35.2889 63.1955 35.2993 63.1036C35.351 62.7868 35.4802 62.401 35.775 62.1025C36.0335 61.8407 36.4265 61.6479 37.0159 61.6387C37.0986 61.6387 37.1814 61.6387 37.2589 61.6433C38.5877 61.7397 39.4305 62.8465 39.5288 64.0496C39.5598 64.4584 39.5081 64.8763 39.3582 65.2666L39.3685 65.262Z" fill="#43ABC4"/>
<path d="M38.3806 65.6891C38.3864 65.4939 38.2685 65.3327 38.1172 65.3292C37.9659 65.3257 37.8386 65.4811 37.8328 65.6763C37.827 65.8715 37.9449 66.0327 38.0962 66.0362C38.2475 66.0397 38.3748 65.8843 38.3806 65.6891Z" fill="#1C5360"/>
<path d="M38.5764 66.4146C38.1782 66.7636 37.7439 66.9243 37.4492 66.8968C37.2165 66.8738 37.0769 66.736 37.1028 66.4743C37.2682 65.0415 36.9166 64.3388 36.5547 64.1368C36.7667 63.9806 36.9321 63.875 36.9321 63.875L37.3923 64.2516C37.3923 64.2516 37.5164 65.3629 37.4285 66.1849C37.3975 66.4697 37.6819 66.7177 38.0128 66.6717C38.1731 66.6488 38.3644 66.5753 38.5764 66.4237V66.4146Z" fill="#1C5360"/>
<path d="M34.5131 65.8999H34.4097C34.3063 65.8907 34.2236 65.8172 34.2287 65.73L34.2649 64.862C34.2649 64.7748 34.358 64.7105 34.4614 64.7151H34.5648C34.6683 64.7243 34.751 64.7977 34.7458 64.885L34.7096 65.7529C34.7096 65.8402 34.6165 65.9045 34.5131 65.8999Z" fill="#2F7C89"/>
<path d="M36.0991 66.0474H35.9956C35.8922 66.0382 35.8095 65.9647 35.8147 65.8774L35.8509 65.0095C35.8509 64.9222 35.944 64.8579 36.0474 64.8625H36.1507C36.2542 64.8717 36.3369 64.9452 36.3317 65.0325L36.2955 65.9004C36.2955 65.9877 36.2025 66.052 36.0991 66.0474Z" fill="#2F7C89"/>
<g style="mix-blend-mode:multiply" opacity="0.58">
<path d="M37.1738 64.7011C37.1738 64.7011 36.3051 65.7298 34.9194 65.7941C34.5057 65.8125 34.2472 65.7115 34.0869 65.5645C34.0766 65.367 34.0559 65.1879 34.0249 65.0364C33.9732 64.7608 34.0404 64.4807 34.2059 64.2511C35.2503 63.6036 37.1789 64.7103 37.1789 64.7103L37.1738 64.7011Z" fill="#F78161"/>
</g>
<path d="M37.2319 64.8717C36.9423 64.9865 36.5597 65.0738 36.1202 65.1013C35.5152 65.1381 34.8017 65.06 34.0571 64.7753C33.8555 64.6972 33.7055 64.6146 33.6021 64.5273C32.8834 63.9395 34.2795 63.2506 34.2795 63.2506C34.4501 63.1909 34.6207 63.1496 34.7758 63.122C35.2205 63.0486 35.6186 63.1037 35.9702 63.2231C36.6476 63.4573 37.1336 63.9441 37.4025 64.2839C37.5628 64.486 37.4852 64.7661 37.2267 64.8671L37.2319 64.8717Z" fill="#98EBF4"/>
<path d="M36.0576 65.0139C36.0886 65.046 36.1041 65.0782 36.1196 65.1011C35.5147 65.1379 34.8011 65.0598 34.0566 64.7751C33.8549 64.697 33.705 64.6144 33.6016 64.5271C33.798 64.4904 34.1393 64.4261 34.4185 64.3572C34.8373 64.2562 34.1548 63.9944 34.1703 63.6408C34.1859 63.2872 35.1372 63.6775 35.3027 63.526C35.3958 63.4387 35.0752 63.2642 34.7753 63.1264C35.22 63.053 35.6181 63.1081 35.9697 63.2275C35.9904 63.278 36.0317 63.3239 36.1196 63.3652C36.3937 63.4938 36.5333 63.3836 36.6574 63.7418C36.7815 64.1 35.675 64.0587 35.1217 64.0357C34.5685 64.0128 35.5198 64.4077 36.0524 65.0185L36.0576 65.0139Z" fill="#C5FCFF"/>
<path d="M28.7622 71.3968C28.7622 71.3968 29.5533 72.4943 28.8656 72.8433C28.3693 73.0959 27.9091 73.3072 27.7798 72.9444C27.6919 72.6872 28.1934 72.5908 28.333 72.4714C28.4727 72.352 27.6816 71.259 28.7622 71.3968Z" fill="#F4CAAE"/>
<path d="M27.3014 71.5118C28.744 72.2466 33.0045 74.5382 34.4885 75.3373C34.7677 75.4888 34.8401 75.8195 34.6488 76.0537L34.4885 76.2465C34.3178 76.4532 33.9973 76.5129 33.7491 76.3843L32.5702 75.7643C32.384 75.6679 32.1462 75.6725 31.9704 75.7827L31.138 76.2971C30.8226 76.4899 30.4399 76.5956 30.0573 76.5956H29.2042C28.4234 76.5864 27.7306 76.1593 27.4514 75.5118L27.3428 75.2592C27.1928 74.9148 27.1825 74.5336 27.3014 74.18L27.3841 73.9458C27.5237 73.5463 27.4151 73.11 27.1049 72.7931L26.5982 72.2788C26.4379 72.118 26.4121 71.8792 26.5413 71.6955C26.6965 71.4659 27.0325 71.3879 27.2962 71.521L27.3014 71.5118Z" fill="#43ABC4"/>
<path d="M26.2209 71.5812C26.2209 71.5812 25.5281 72.293 26.0606 72.7798C26.5932 73.2711 26.4691 72.665 26.4691 72.665L26.7586 71.8292L26.8983 71.5904C26.8983 71.5904 26.5001 71.223 26.2209 71.5812Z" fill="#F78161"/>
<path d="M26.3557 71.8238C26.3557 71.8238 25.6628 72.5357 26.1954 73.0224C26.728 73.5092 26.6039 72.9076 26.6039 72.9076L26.8934 72.0718L27.033 71.833C27.033 71.833 26.6349 71.4656 26.3557 71.8238Z" fill="#F78161"/>
<path d="M26.7541 72.0724C26.7541 72.0724 26.0613 72.7842 26.5938 73.271C27.1264 73.7578 27.0023 73.1562 27.0023 73.1562L27.2919 72.3204L27.4315 72.0816C27.4315 72.0816 27.0333 71.7142 26.7541 72.0724Z" fill="#F78161"/>
<path d="M26.5012 71.3465C26.5012 71.3465 27.8817 70.0469 28.678 71.0205C29.6707 72.242 28.1041 72.4533 27.83 72.5727C27.556 72.6921 27.2768 73.0457 27.406 73.2891C27.5353 73.5325 26.8528 73.7621 26.8683 73.1605C26.8838 72.5589 27.1579 72.3247 27.1579 72.3247C27.1579 72.3247 26.2116 72.3109 26.2168 71.9481C26.222 71.5853 26.5012 71.3511 26.5012 71.3511V71.3465Z" fill="#F4CAAE"/>
<path d="M42.5486 79.8424C41.8867 80.2741 40.6096 81.1145 40.2063 81.4589C39.6531 81.9319 37.6676 86.111 37.0936 87.6632C37.0936 87.6632 37.0936 87.6678 37.0885 87.6769C36.499 89.2246 33.5053 90.8503 33.5053 90.8503L33.0968 91.0569L32.3057 91.461C31.799 91.7182 31.2044 91.4886 31.0131 91.0569C30.9614 90.9421 30.9407 90.8135 30.9562 90.6757L31.0596 89.817C31.1113 89.4037 31.5147 89.0914 31.98 89.1052C32.1299 89.1052 32.2747 89.1006 32.4195 89.0822C33.4174 88.949 34.2757 88.274 34.9996 87.3693C36.6593 85.3027 37.6521 82.0192 38.1795 81.0548C38.7069 80.0858 40.3873 79.0939 41.561 78.4923C41.711 78.4142 41.8713 78.3821 42.0264 78.3867C42.4142 78.3913 42.7761 78.6255 42.8795 78.9837C42.895 79.0296 42.9053 79.0755 42.9053 79.1214C42.9312 79.4016 42.7916 79.6679 42.5434 79.8378L42.5486 79.8424Z" fill="#328C9B"/>
<path d="M33.9606 90.1331V90.1469C33.9296 90.4408 33.7434 90.7071 33.4539 90.8587C33.3401 90.9184 33.216 90.9873 33.0868 91.0561C31.7476 91.8093 29.669 93.1043 28.1851 93.2697C28.1334 93.2742 28.0765 93.2788 28.0248 93.2834C28.0041 93.2834 27.9731 93.2788 27.9266 93.2605C27.8904 93.2467 27.8438 93.2237 27.7869 93.1962C27.5646 93.086 27.1975 92.9712 26.7477 92.8609C24.9483 92.4155 21.7788 91.9471 20.7188 91.2812C20.6051 91.2077 19.8347 90.156 19.7623 90.0504C19.6795 89.931 19.6744 88.4018 19.6537 88.2548C19.5296 87.1021 20.4293 83.6303 23.1697 80.9255C23.4644 80.6361 23.9297 80.5397 24.3382 80.6867L29.3019 82.4685C29.4002 82.5052 29.4932 82.5557 29.5708 82.6108C29.819 82.7945 29.9689 83.0747 29.9482 83.3732C29.8603 84.9116 29.912 88.6635 32.4042 89.0814C32.5542 89.109 32.7093 89.1182 32.88 89.1182C33.2936 89.1182 33.6555 89.3202 33.8365 89.6187C33.9244 89.7703 33.9709 89.9448 33.9503 90.1285L33.9606 90.1331Z" fill="#43ABC4"/>
<path d="M27.9316 93.2657C27.1094 92.9534 22.4404 89.5826 21.0496 88.7055C20.9358 88.632 21.5356 89.7893 21.4632 89.6883C22.0164 89.3392 22.1147 89.353 22.4197 89.2244C22.9678 88.9948 24.4414 89.7388 24.4414 89.7388L25.7134 90.0602C26.4993 90.2577 27.1094 90.8134 27.3059 91.516C27.5127 92.2554 27.7816 93.1096 27.9264 93.2657H27.9316Z" fill="#1C5360"/>
<path d="M23.6133 90.6852C23.6133 90.6852 25.8108 89.3993 26.7156 91.4613C26.7156 91.4613 27.2689 90.428 26.7415 89.9182C26.2141 89.4085 24.1769 89.7346 23.6133 90.6852Z" fill="#43ABC4"/>
<path d="M28.4177 74.0469L28.2419 74.4373C28.185 74.5613 28.185 74.7036 28.2419 74.8276L28.5056 75.3879C28.6038 75.59 28.8313 75.714 29.0795 75.7002L30.0051 75.6451C30.186 75.6359 30.3566 75.5486 30.4549 75.4109L30.7237 75.0435C30.8788 74.8322 30.8375 74.5521 30.6255 74.3822L30.0619 73.9275C29.974 73.8541 29.8603 73.8081 29.7413 73.7989L29.0175 73.7209C28.7538 73.6933 28.5056 73.8265 28.4073 74.0423L28.4177 74.0469Z" fill="#98EBF4"/>
<path d="M45.9102 80.5818C45.8947 80.8206 45.7655 81.0686 45.4811 81.266C45.4604 81.2798 45.4397 81.2936 45.419 81.3028L42.87 82.6805L41.598 83.3693L41.4791 83.429C41.0086 83.6678 40.4398 83.7459 39.9072 83.6403C39.7159 83.6035 39.5091 83.5392 39.3385 83.4566C39.1989 83.3831 39.0954 83.2912 39.0282 83.1902C38.6714 82.6713 39.2454 81.9089 40.0313 82.1799C40.2381 82.258 40.476 82.2212 40.6518 82.0972C41.4222 81.6059 43.4904 80.2878 44.2867 79.7827C45.114 79.2959 45.9464 79.9159 45.9051 80.5726L45.9102 80.5818Z" fill="#5CCEE0"/>
<path d="M39.0269 66.4326C39.0269 66.4326 36.7932 67.3786 36.6847 69.6473C36.5761 71.9159 38.2823 73.2385 38.2823 73.2385C38.2823 73.2385 36.5812 68.4211 40.516 67.1903L39.0269 66.4326Z" fill="#1C5360"/>
<path d="M37.0944 87.6627C37.0944 87.6627 37.0944 87.6673 37.0892 87.6765C36.4998 89.2241 33.506 90.8498 33.506 90.8498L33.0975 91.0564C31.7584 91.8096 29.6798 93.1046 28.1959 93.2699C28.1442 93.2745 28.0873 93.2791 28.0356 93.2837C28.0149 93.2837 27.9839 93.2791 27.9374 93.2608C27.9012 93.247 27.8546 93.224 27.7977 93.1965C27.5754 93.0862 27.2083 92.9714 26.7585 92.8612C24.0698 90.9049 26.5878 84.9532 26.5878 84.9532L29.5868 82.6157C29.8349 82.7994 29.9849 83.0796 29.9642 83.3781C29.8763 84.9165 29.928 88.6684 32.4202 89.0863C33.4181 88.9531 34.2764 88.2781 35.0003 87.3734L37.0892 87.6627H37.0944Z" fill="#328C9B"/>
<path d="M41.1921 68.0948C41.43 68.4621 41.4507 68.9076 41.249 69.2888L40.3028 71.1027C39.8478 71.9753 39.1808 72.7514 38.3483 73.3805L36.7041 74.6205C36.0836 75.0889 35.153 75.0338 34.61 74.5011C34.0568 73.9592 34.124 73.128 34.7497 72.6504L35.8251 71.8375C36.6214 71.2313 37.2677 70.4874 37.7176 69.6562L38.5552 68.1131C39.1291 67.2084 40.6079 67.2038 41.1921 68.0994V68.0948Z" fill="#F23E30"/>
<path d="M32.4905 74.5885C32.4905 74.5885 31.7976 75.3003 32.3302 75.7871C32.8627 76.2739 32.7386 75.6723 32.7386 75.6723L33.0282 74.8365L33.1678 74.5977C33.1678 74.5977 32.7697 74.2303 32.4905 74.5885Z" fill="#F78161"/>
<path d="M32.6213 74.8321C32.6213 74.8321 31.9285 75.544 32.461 76.0307C32.9936 76.5175 32.8695 75.9159 32.8695 75.9159L33.159 75.0801L33.2987 74.8413C33.2987 74.8413 32.9005 74.4739 32.6213 74.8321Z" fill="#F78161"/>
<path d="M33.0237 75.0797C33.0237 75.0797 32.3308 75.7915 32.8634 76.2783C33.3959 76.7651 33.2719 76.1635 33.2719 76.1635L33.5614 75.3277L33.701 75.0889C33.701 75.0889 33.3029 74.7215 33.0237 75.0797Z" fill="#F78161"/>
<path d="M32.7629 74.3495C32.7629 74.3495 34.1435 73.0498 34.9397 74.0234C35.9325 75.245 34.3658 75.4562 34.0917 75.5756C33.8177 75.695 33.5385 76.0486 33.6678 76.292C33.797 76.5354 33.1145 76.765 33.13 76.1634C33.1455 75.5618 33.4196 75.3276 33.4196 75.3276C33.4196 75.3276 32.4734 75.3139 32.4785 74.9511C32.4837 74.5883 32.7629 74.3541 32.7629 74.3541V74.3495Z" fill="#F4CAAE"/>
<path d="M17.7356 93.1143C17.7356 93.1143 18.475 97.5229 22.87 97.3254C27.2701 97.128 20.8328 93.8904 20.8328 93.8904L17.7305 93.1143H17.7356Z" fill="#1C5360"/>
<path d="M23.2182 97.2974C23.2182 97.2974 20.6898 97.4536 20.209 96.356L21.6257 93.3618L23.2182 97.302V97.2974Z" fill="#1C5360"/>
<path d="M26.7768 92.2002L26.8026 93.1554C26.8285 94.0877 26.4355 95.1301 25.7427 95.9522C23.995 98.0371 21.4615 97.6743 21.3632 95.323L21.327 94.3816C21.2857 93.4172 21.7045 92.3334 22.4335 91.4884L22.4439 91.4746C24.2122 89.4311 26.7096 89.849 26.7768 92.2002Z" fill="#98EBF4"/>
<path d="M25.8087 93.0546L25.8191 93.4817C25.8294 93.895 25.6536 94.3589 25.3486 94.7262C24.573 95.6539 23.4406 95.4932 23.3993 94.4461L23.3837 94.0282C23.3682 93.5965 23.5492 93.1143 23.8749 92.7378H23.8801C24.666 91.8239 25.7777 92.0076 25.8087 93.0546Z" fill="#1C5360"/>
<path d="M26.6494 75.7736L31.003 77.9274C31.8769 78.3591 32.1974 79.3832 31.7062 80.1822L29.5243 83.7321C29.1003 84.4255 28.3919 84.9215 27.5646 85.119L25.9721 85.4956C24.7208 85.7895 23.4178 85.1833 22.9111 84.0673L22.5337 83.2361C22.1356 82.3682 22.1304 81.3854 22.513 80.5175L24.2451 76.5864C24.6329 75.7047 25.7446 75.3327 26.6494 75.7782V75.7736Z" fill="#1C5360"/>
<path d="M31.3078 79.6954L29.1258 83.2453C28.7018 83.9341 27.9934 84.4347 27.1662 84.6322L25.5737 85.0042C24.4672 85.2659 23.3245 84.8205 22.7195 83.9433C22.6368 83.8285 22.5695 83.7045 22.5127 83.5759L22.1352 82.7447C21.7371 81.8768 21.7319 80.894 22.1146 80.0261L23.8467 76.095C24.2345 75.2133 25.3462 74.8413 26.251 75.2914L28.2054 76.2558L30.6046 77.4452C31.4784 77.8769 31.799 78.9009 31.3078 79.7V79.6954Z" fill="#43ABC4"/>
<path d="M28.3852 76.5632C28.3852 76.5632 25.5672 75.19 24.7348 76.1407C23.9023 77.0913 22.346 80.0717 22.3149 81.5137C22.2891 82.7031 22.6097 83.6445 22.7234 83.9384C22.6407 83.8236 22.5735 83.6996 22.5166 83.5711L22.1391 82.7398C21.741 81.8719 21.7358 80.8891 22.1185 80.0212L23.8506 76.0901C24.2384 75.2084 25.3501 74.8364 26.2549 75.2865L28.2094 76.2509C28.3128 76.4346 28.3903 76.5632 28.3903 76.5632H28.3852Z" fill="#98EBF4"/>
<path d="M28.1324 82.0927C28.7994 81.909 29.3578 81.4911 29.668 80.9355L29.7094 80.8574C29.8335 80.6461 29.6112 80.4028 29.3526 80.467L26.5864 81.1605C26.059 81.2937 25.6195 81.6243 25.3868 82.0652L25.2058 82.4096C25.0921 82.6254 25.3196 82.8551 25.5781 82.7862L28.1324 82.0927Z" fill="#98EBF4"/>
<path d="M22.915 80.1087C22.6616 79.6081 22.6461 79.0386 22.8839 78.5289L22.915 78.46C23.0029 78.2625 23.3131 78.2488 23.4165 78.4416L24.5127 80.476C24.7247 80.8664 24.7298 81.3164 24.5385 81.7114L24.3886 82.0191C24.2955 82.212 23.9853 82.212 23.8922 82.0191L22.9201 80.1087H22.915Z" fill="#98EBF4"/>
<path d="M42.5477 79.8423C41.8858 80.2739 40.6087 81.1143 40.2054 81.4588C39.6522 81.9318 37.6667 86.1108 37.0927 87.663C36.5188 89.2152 33.5044 90.8501 33.5044 90.8501L33.0959 91.0567C31.7567 91.8099 29.6782 93.1049 28.1942 93.2703C28.065 93.2703 27.977 93.2657 27.9409 93.2611C27.8891 93.2611 27.8426 93.2335 27.8013 93.1968C27.5583 92.9763 27.5117 92.2829 27.5117 92.2829C27.5117 92.2829 29.3628 91.6951 31.0173 91.0613C31.8653 90.7353 32.6564 90.4 33.1218 90.1199C33.3596 89.9776 33.6078 89.8076 33.8611 89.6193C35.071 88.7192 36.343 87.4012 36.5808 86.8088C36.8652 86.0924 38.9903 81.794 39.6884 80.9628C40.3812 80.1316 42.7131 78.9697 42.7131 78.9697L42.8993 78.9881C42.9148 79.034 42.9251 79.0799 42.9251 79.1259C42.951 79.406 42.8114 79.6724 42.558 79.8377L42.5477 79.8423Z" fill="#5CCEE0"/>
<path d="M26.7104 91.4606C25.4643 88.5169 22.636 91.6626 22.636 91.6626C22.636 91.6534 22.636 91.6397 22.636 91.6305C22.0362 92.3331 21.607 93.1919 21.333 94.0736C21.0486 94.9829 20.1283 95.5385 19.1717 95.5385C18.7477 95.5385 18.3134 95.4283 17.9205 95.1895C17.2018 94.7487 16.8243 93.9726 16.9897 93.2102C17.9618 88.7143 22.2947 88.3745 22.2947 88.3745L24.9576 89.2333C25.1799 89.2608 25.4022 89.3159 25.6091 89.3848C25.909 89.4813 26.183 89.6007 26.395 89.7017C26.5656 89.7798 26.7 89.8441 26.7776 89.867C26.8345 89.8854 26.881 89.9175 26.912 89.9635C27.1757 90.3262 26.7 91.4606 26.7 91.4606H26.7104Z" fill="#43ABC4"/>
<path d="M26.7104 91.4607C25.4643 88.517 22.636 91.6628 22.636 91.6628C22.636 91.6536 22.636 91.6398 22.636 91.6306C22.0362 92.3332 21.607 93.192 21.333 94.0737C21.0486 94.983 20.1283 95.5387 19.1717 95.5387C18.7477 95.5387 18.3134 95.4285 17.9205 95.1897C17.2018 94.7488 16.8243 93.9727 16.9897 93.2104C17.4654 94.4595 18.4013 94.4228 19.2131 94.0783C20.0249 93.7339 20.6505 93.0864 20.9607 92.3286C22.1965 89.3115 25.5056 89.3896 25.5056 89.3896L25.6091 89.3804C25.909 89.4768 26.183 89.5962 26.395 89.6972C26.5656 89.7753 26.7 89.8396 26.7776 89.8626C26.8345 89.8809 26.881 89.9131 26.912 89.959C27.1757 90.3218 26.7 91.4561 26.7 91.4561L26.7104 91.4607Z" fill="#328C9B"/>
<path d="M39.3703 65.2614C39.1945 65.7253 38.9256 66.0926 38.636 66.3636C38.5999 66.3957 38.5791 66.4141 38.5791 66.4141C38.5791 66.4141 39.0652 64.8849 38.6981 63.6541C38.5068 63.002 38.0724 62.4326 37.1986 62.2213C37.1366 62.2075 37.0694 62.1938 37.0021 62.18C37.0021 62.18 36.4747 62.0422 35.7767 62.0973C35.1769 62.1432 34.4531 62.3361 33.8223 62.8872C34.7943 61.2937 36.9815 61.5922 37.2658 61.6381C38.5947 61.7345 39.4375 62.8413 39.5357 64.0445C39.5667 64.4532 39.515 64.8711 39.3651 65.2614H39.3703Z" fill="#98EBF4"/>
<path d="M45.9093 80.5815C45.8938 80.8204 45.7646 81.0683 45.4802 81.2658C45.4595 81.2796 45.4388 81.2934 45.4182 81.3025L42.8691 82.6802L41.5971 83.3691L41.4782 83.4288C41.0077 83.6676 40.4389 83.7457 39.9063 83.64C39.715 83.6033 39.5082 83.539 39.3376 83.4563C39.198 83.3829 39.0946 83.291 39.0273 83.19L39.1308 82.9604C39.1308 82.9604 40.4079 83.3369 41.261 82.9604C42.1142 82.5838 45.8732 80.3887 45.8732 80.3887L45.9093 80.5724V80.5815Z" fill="#328C9B"/>
<path d="M119.457 49.7621C119.463 47.893 117.937 47.1353 116.066 48.0859C114.194 49.0365 112.663 51.3557 112.658 53.2431C112.658 54.2626 113.036 55.002 113.796 55.452L115.833 56.3567L116.091 55.2316L115.91 54.9882C115.957 54.9652 115.998 54.9469 116.045 54.9239C117.917 53.9595 119.447 51.6358 119.452 49.7667L119.457 49.7621Z" fill="#1C5360"/>
<path d="M111.164 54.4687C111.17 52.5996 109.644 51.8418 107.773 52.7925C105.901 53.7431 104.37 56.0622 104.365 57.9497C104.365 58.9692 104.743 59.7085 105.503 60.1586L107.54 61.0633L107.798 59.9381L107.617 59.6947C107.664 59.6718 107.705 59.6534 107.752 59.6305C109.624 58.6661 111.154 56.3423 111.159 54.4733L111.164 54.4687Z" fill="#1C5360"/>
<path d="M122.39 26.4975V48.4535C122.39 49.1423 122.075 49.7899 121.527 50.2537C121.372 50.3869 121.196 50.5063 121.005 50.6073L119.717 51.2824L119.014 51.6498L117.416 52.4856L114.878 53.8173L113.146 54.7266L113.058 54.7725L110.896 55.9068L109.635 56.5727L106.677 58.1249L104.614 59.2087L92.148 65.7436C91.7912 65.9319 91.4034 66.0421 91.0104 66.0789C90.4417 66.134 89.8574 66.0284 89.3455 65.7758L75.173 58.7311C74.2837 58.2903 73.7305 57.4545 73.7305 56.5498V34.9658C73.7305 34.4515 73.9062 33.9601 74.2268 33.5468C74.4543 33.2483 74.7594 32.9911 75.1265 32.8028L104.718 17.446C105.591 16.9914 106.672 16.9914 107.546 17.4415L120.984 24.3437C121.299 24.5045 121.568 24.7157 121.786 24.9591C121.904 25.0923 122.008 25.2346 122.096 25.3908C122.287 25.7306 122.39 26.1164 122.39 26.5067V26.4975Z" fill="#43ABC4"/>
<path d="M109.939 54.0371C108.067 54.9877 106.536 57.3068 106.531 59.1943C106.526 61.0817 108.051 61.8395 109.923 60.8705C111.795 59.9061 113.325 57.5824 113.331 55.7133C113.336 53.8442 111.81 53.0865 109.939 54.0371Z" fill="#65CEE0"/>
<path d="M110.296 56.0852C109.417 56.5307 108.699 57.6191 108.693 58.5054C108.688 59.3917 109.407 59.7453 110.286 59.2953C111.165 58.8452 111.884 57.7522 111.889 56.8751C111.889 55.998 111.175 55.6444 110.296 56.0852Z" fill="#1C5360"/>
<path d="M118.232 49.3252C116.36 50.2758 114.829 52.5949 114.824 54.4824C114.819 56.3698 116.344 57.1276 118.216 56.1586C120.088 55.1942 121.618 52.8705 121.623 51.0014C121.629 49.1323 120.103 48.3746 118.232 49.3252Z" fill="#65CEE0"/>
<path d="M118.589 51.3777C117.71 51.8232 116.992 52.9116 116.986 53.7979C116.981 54.6842 117.7 55.0378 118.579 54.5878C119.458 54.1331 120.177 53.0447 120.182 52.1676C120.187 51.2905 119.468 50.9368 118.589 51.3777Z" fill="#1C5360"/>
<path d="M122.388 28.5269V30.0928L88.9762 47.3049L88.2109 46.1339L122.388 28.5269Z" fill="#7BDEEF"/>
<path d="M122.387 31.2866V32.7654L89.2649 49.8259L88.541 48.7237L122.387 31.2866Z" fill="#7BDEEF"/>
<path d="M122.389 34.0425V35.4386L89.5504 52.3521L88.873 51.3097L122.389 34.0425Z" fill="#7BDEEF"/>
<path d="M122.389 36.8022V38.1065L89.8404 54.8731L89.1992 53.8995L122.389 36.8022Z" fill="#7BDEEF"/>
<path d="M122.388 39.562V40.779L90.1239 57.3986L89.5293 56.4894L122.388 39.562Z" fill="#7BDEEF"/>
<path d="M122.387 42.3179V43.4522L90.4126 59.9249L89.8594 59.0753L122.387 42.3179Z" fill="#7BDEEF"/>
<path d="M122.388 45.0776V46.1201L90.6981 62.4458L90.1914 61.6651L122.388 45.0776Z" fill="#7BDEEF"/>
<path d="M121.641 25.6154L87.2005 43.6541C87.0453 43.7368 86.854 43.7368 86.6937 43.6587L74 37.4085C73.8397 37.3305 73.7363 37.1743 73.7363 37.0136V34.9516C73.7363 34.4373 73.9121 33.9459 74.2327 33.5326C74.4602 33.2341 74.7653 32.9769 75.1324 32.7887L104.723 17.4319C105.597 16.9772 106.678 16.9772 107.552 17.4273L120.99 24.3296C121.305 24.4903 121.574 24.7016 121.791 24.9449C121.978 25.1562 121.905 25.4731 121.641 25.6108V25.6154Z" fill="#7BDEEF"/>
<path d="M91.0104 41.8952V66.0692C90.4417 66.1243 89.8574 66.0187 89.3455 65.7661L75.173 58.7215C74.2837 58.2806 73.7305 57.4448 73.7305 56.5401V34.9561C73.7305 34.4418 73.9062 33.9504 74.2268 33.5371L89.118 39.328C90.2659 39.7735 91.0053 40.7792 91.0053 41.8952H91.0104Z" fill="#2E7C89"/>
<path d="M85.5336 65.7802C85.5388 63.9111 84.0135 63.1534 82.1417 64.104C80.27 65.0546 78.7395 67.3737 78.7344 69.2612C78.7344 70.2807 79.1118 71.02 79.8719 71.4701L81.9091 72.3748L82.1676 71.2497L81.9866 71.0063C82.0332 70.9833 82.0745 70.9649 82.1211 70.942C83.9928 69.9776 85.5233 67.6539 85.5285 65.7848L85.5336 65.7802Z" fill="#1C5360"/>
<path d="M89.2105 54.3361V63.9019C89.2105 64.4209 88.8951 64.8939 88.3884 65.151L75.1104 71.8099C74.8364 71.9477 74.5261 72.0074 74.2211 71.9936C73.9729 71.9799 73.7299 71.9201 73.5075 71.8053L64.123 66.9788C63.6266 66.7216 63.3164 66.2486 63.3164 65.7389V60.0719C63.3164 59.5714 63.6111 59.1075 64.0868 58.8504L66.5738 57.4956C66.791 57.3762 66.972 57.2201 67.1013 57.0272L70.6276 51.9619C70.6793 51.893 70.731 51.8241 70.793 51.7644C70.9016 51.6588 71.0257 51.5669 71.1653 51.4889L77.2976 48.2007C77.8043 47.9298 78.4351 47.9252 78.947 48.1916L88.1867 52.986L88.4091 53.1008C88.4091 53.1008 88.4246 53.1099 88.4349 53.1145C88.9158 53.3763 89.2105 53.8401 89.2105 54.3407V54.3361Z" fill="#8BE9F2"/>
<path d="M84.3019 65.3481C82.4302 66.2987 80.8997 68.6179 80.8945 70.5053C80.8894 72.3928 82.4147 73.1505 84.2864 72.1815C86.1582 71.2171 87.6886 68.8934 87.6938 67.0243C87.699 65.1552 86.1737 64.3975 84.3019 65.3481Z" fill="#65CEE0"/>
<path d="M84.6634 67.3963C83.7844 67.8417 83.0657 68.9301 83.0605 69.8164C83.0605 70.7027 83.7741 71.0564 84.6531 70.6063C85.532 70.1563 86.2508 69.0633 86.2559 68.1861C86.2611 67.309 85.5424 66.9554 84.6634 67.3963Z" fill="#1C5360"/>
<path d="M89.2105 54.3363L89.2312 58.1158L75.3224 64.9033C74.5003 65.3074 74.0039 66.0881 74.0349 66.9239L74.2211 71.9938C73.9729 71.98 73.7299 71.9203 73.5075 71.8055L64.123 66.979C63.6266 66.7218 63.3164 66.2488 63.3164 65.7391V60.0721C63.3164 59.5716 63.6111 59.1077 64.0868 58.8506L66.5738 57.4958C66.791 57.3764 66.972 57.2203 67.1013 57.0274L70.8085 51.6865L80.5912 56.311L88.1867 52.9816L88.4091 53.0964C88.4091 53.0964 88.4246 53.1056 88.4349 53.1101C88.9158 53.3719 89.2105 53.8357 89.2105 54.3363Z" fill="#43ABC4"/>
<path d="M78.6741 58.0879L75.9285 62.0786C75.639 62.5011 75.0237 62.6389 74.5376 62.3909L72.5211 61.3485L69.2843 59.6769L68.5449 59.2957C68.0537 59.0431 67.8883 58.4783 68.1778 58.0466L70.8407 54.0604C71.125 53.6333 71.7455 53.4864 72.2315 53.7344L72.8106 54.0283L75.9698 55.6356L78.3069 56.825C78.8085 57.0822 78.974 57.6516 78.6741 58.0879Z" fill="#1C5360"/>
<path opacity="0.4" d="M73.0985 61.1648C72.8452 61.2199 72.6538 61.2796 72.5194 61.3531L69.2826 59.6815C69.0086 58.7309 72.1058 59.0156 74.112 58.91C76.2732 58.7952 73.0933 56.4255 72.7159 54.6207C72.6538 54.3222 72.6952 54.1339 72.809 54.0283L75.9682 55.6356C75.7562 55.6632 75.508 55.7275 75.2546 55.8607C74.6186 56.2005 76.0147 57.1006 76.5266 58.6804C77.0385 60.2601 75.2546 60.7102 73.0985 61.1648Z" fill="#65CEE0"/>
<path d="M85.6269 55.81L85.3011 58.9328C85.2908 59.0109 85.2391 59.0844 85.1615 59.1257L83.3777 59.9937L80.7976 61.2474L78.2744 62.4781C78.0313 62.5975 77.7625 62.3495 77.9124 62.1383L78.3984 61.4311L79.0499 60.4896L79.4015 59.9845L80.6631 58.1567L80.839 57.9042C80.9062 57.8077 80.9786 57.7205 81.0613 57.6378C81.1647 57.5276 81.2784 57.4311 81.4025 57.3439C81.5266 57.2566 81.6611 57.1786 81.8058 57.1143L82.5297 56.7882L83.8896 56.1774L85.2391 55.5713C85.4304 55.484 85.6527 55.6218 85.632 55.81H85.6269Z" fill="#1C5360"/>
<path opacity="0.4" d="M83.3727 59.9937L80.7926 61.2474C80.7926 61.2474 80.7667 61.2382 80.7564 61.2336C79.1431 60.632 83.3882 58.9053 83.8949 58.0006C84.4016 57.0959 83.0469 57.3163 82.5195 56.7836L83.8794 56.1729C83.7398 56.329 83.6415 56.4668 83.6415 56.5311C83.6415 56.7561 84.9135 56.8709 85.2909 57.4357C85.6477 57.9593 84.019 58.9742 83.3675 59.9937H83.3727Z" fill="#65CEE0"/>
<path opacity="0.4" d="M82.6222 58.1153C82.3947 58.625 80.1248 59.369 79.3906 59.9843L80.6522 58.1566C81.3192 58.1107 81.3916 58.0234 81.0452 57.6377C81.1486 57.5274 81.2624 57.431 81.3865 57.3438C81.3865 57.3438 81.3916 57.3483 81.3968 57.3529C81.857 57.6652 82.8704 57.555 82.617 58.1199L82.6222 58.1153Z" fill="#65CEE0"/>
<path d="M88.1564 53.2338L81.5019 56.1867C80.8556 56.476 80.0903 56.4577 79.4595 56.1362L70.7988 51.7551C70.9074 51.6495 71.0315 51.5576 71.1711 51.4796L77.3034 48.1915C77.8101 47.9205 78.4409 47.9159 78.9528 48.1823L88.1667 52.9629L88.1564 53.2293V53.2338Z" fill="#B4F6F9"/>
<path d="M16.8457 18.0304L16.9454 17.979C16.8877 18.0164 16.8562 18.0445 16.8562 18.0445L16.8457 18.0304Z" fill="#1C5360"/>
<path d="M21.251 19.2551L20.9304 19.6408C20.8683 19.7143 20.8373 19.8016 20.8373 19.8934V31.659C20.8373 32.3983 20.3978 33.0872 19.6791 33.4638L3.49012 41.9688C3.34017 42.0468 3.25226 42.1892 3.25226 42.3361C3.25226 42.3867 3.26264 42.4418 3.28332 42.4923C3.43326 42.8275 3.07131 43.1674 2.68352 43.0571C1.98032 42.8505 1.46328 42.6163 1.08066 42.3821C0.610139 42.1846 0.232687 41.8218 0.0775709 41.3488C0.00518317 41.1835 0.0051756 41.0778 0.0051756 41.0778C0.0051756 41.0778 0.0103562 41.0687 0.0155268 41.0641C0.0051857 40.9998 0 40.9355 0 40.8666V28.0632C0 27.3238 0.439492 26.635 1.1582 26.2584L16.8457 18.0197L16.9439 17.9692C16.9439 17.9692 16.949 17.9646 16.9542 17.9646L17.2748 17.7993C17.5644 17.6753 18.0142 17.5605 18.6295 17.5972C18.7691 17.5835 18.9035 17.5835 19.0328 17.5972C19.1776 17.634 19.3275 17.6799 19.4878 17.7304C19.4878 17.7304 19.493 17.7304 19.4981 17.7304C19.8601 17.8406 20.2479 17.983 20.6202 18.1529C20.6874 18.1851 20.7494 18.2172 20.8166 18.2494C20.8735 18.2769 20.9304 18.3045 20.9821 18.3366C21.0855 18.4744 21.1889 18.6259 21.2923 18.7913C21.3854 18.9382 21.3699 19.1173 21.2561 19.2551H21.251Z" fill="#1C5360"/>
<path d="M20.8348 20.1507C18.3633 20.7339 13.291 20.8533 13.291 20.8533L17.3809 17.8867C17.7997 17.7443 18.2289 17.6341 18.6218 17.6065C18.7615 17.5927 18.8959 17.5927 19.0251 17.6065C19.1699 17.6433 19.3199 17.6892 19.4801 17.7397C19.4801 17.7397 19.4853 17.7397 19.4905 17.7397C19.8524 17.8499 20.2402 17.9923 20.6125 18.1622C20.6797 18.1943 20.7418 18.2265 20.809 18.2586C20.8659 18.2862 20.9227 18.3137 20.9744 18.3459C21.4295 18.5939 21.8276 18.8924 22.0861 19.2552C22.355 19.6363 21.7914 19.9302 20.8348 20.1553V20.1507Z" fill="#1C5360"/>
<path d="M31.7038 17.6246C21.4661 22.9058 13.0898 35.9113 13.0898 46.515C13.0898 57.1187 21.4661 61.4125 31.7038 56.0441C41.9415 50.6803 50.3178 37.6794 50.3178 27.1537C50.3178 16.6281 41.9415 12.3389 31.7038 17.6246Z" fill="#1C5360"/>
<path d="M33.7351 18.8644C23.4974 24.1456 15.1211 37.1511 15.1211 47.7548C15.1211 58.3585 23.4974 62.6523 33.7351 57.2839C43.9728 51.92 52.349 38.9191 52.349 28.3935C52.349 17.8679 43.9728 13.5786 33.7351 18.8644Z" fill="#FFDCDC"/>
<path d="M35.3913 19.0939C25.1536 24.3751 16.7773 37.3806 16.7773 47.9843C16.7773 58.588 25.1536 62.8818 35.3913 57.5133C45.629 52.1495 54.0053 39.1486 54.0053 28.623C54.0053 18.0973 45.629 13.8081 35.3913 19.0939Z" fill="#FBA7A6"/>
<path d="M35.6909 22.2122C27.175 26.607 20.2051 37.422 20.2051 46.2484C20.2051 55.0749 27.175 58.6432 35.6909 54.1794C44.2068 49.7157 51.1766 38.9007 51.1766 30.1431C51.1766 21.3856 44.2068 17.8173 35.6909 22.2122Z" fill="#FFCCCC"/>
<path d="M36.7748 40.4392C36.144 40.7652 35.627 41.5689 35.627 42.221C35.627 42.8731 36.144 43.1395 36.7748 42.8088C37.4056 42.4782 37.9227 41.6745 37.9227 41.027C37.9227 40.3795 37.4056 40.1131 36.7748 40.4392Z" fill="#1C5360"/>
<path d="M36.502 41.8445L37.3757 29.8906" stroke="#1C5360" stroke-width="10" stroke-miterlimit="10" stroke-linecap="round"/>
<path d="M36.7402 41.9136L42.2055 33.6152" stroke="#1C5360" stroke-width="10" stroke-miterlimit="10" stroke-linecap="round"/>
<path d="M37.5886 24.9578C37.897 24.5011 37.9068 24.0028 37.6104 23.845C37.3141 23.6872 36.8239 23.9295 36.5155 24.3863C36.2071 24.8431 36.1973 25.3413 36.4936 25.4992C36.7899 25.657 37.2802 25.4146 37.5886 24.9578Z" fill="#1C5360"/>
<path d="M23.1745 45.0965C23.4829 44.6397 23.4927 44.1415 23.1964 43.9837C22.9 43.8258 22.4098 44.0682 22.1014 44.525C21.793 44.9817 21.7832 45.48 22.0795 45.6378C22.3759 45.7957 22.8661 45.5533 23.1745 45.0965Z" fill="#1C5360"/>
<path d="M37.5593 50.9305C37.8677 50.4737 37.8775 49.9755 37.5811 49.8177C37.2848 49.6598 36.7946 49.9022 36.4862 50.3589C36.1778 50.8157 36.168 51.314 36.4643 51.4718C36.7606 51.6296 37.2509 51.3873 37.5593 50.9305Z" fill="#1C5360"/>
<path d="M1.76758 28.9035V40.7195C1.76758 42.4233 3.85133 43.4795 5.50073 42.6116L21.3846 34.2673C22.1395 33.8724 22.5997 33.1514 22.5997 32.3753V20.5592C22.5997 18.8554 20.516 17.7992 18.8666 18.6672L2.98268 27.0114C2.22778 27.4064 1.76758 28.1274 1.76758 28.9035Z" fill="#FFDCDC"/>
<path d="M2.29688 29.3722V41.1883C2.29688 42.892 4.38062 43.9483 6.03003 43.0803L21.9139 34.7361C22.6688 34.3411 23.129 33.6201 23.129 32.844V21.0279C23.129 19.3242 21.0453 18.268 19.3959 19.1359L3.51194 27.4802C2.75704 27.8751 2.29688 28.5961 2.29688 29.3722Z" fill="#FBA7A6"/>
<path d="M8.59388 40.6692C8.51115 40.7151 8.47496 40.6692 8.46979 40.5315L8.43359 36.9448C8.43359 36.8071 8.46978 36.7244 8.55251 36.6831L9.06956 36.4121C9.15229 36.3662 9.18851 36.4121 9.19368 36.5499L9.204 37.7531L9.76243 37.4592L9.75208 36.256C9.75208 36.1182 9.78829 36.0356 9.87102 35.9942L10.3881 35.7233C10.4708 35.6774 10.507 35.7233 10.5122 35.861L10.5484 39.4477C10.5484 39.5854 10.5121 39.6681 10.4294 39.7094L9.91236 39.9804C9.82963 40.0263 9.79345 39.9804 9.78827 39.8426L9.77796 38.6119L9.21953 38.9058L9.22988 40.1365C9.22988 40.2743 9.19366 40.3569 9.11093 40.3983L8.59388 40.6692Z" fill="#1C5360"/>
<path d="M12.0098 38.9564C11.1722 39.3973 10.9654 39.0482 10.9602 38.3732L10.9396 36.4857C10.9344 35.8106 11.1309 35.2458 11.9685 34.8049C12.8061 34.3641 13.0077 34.7223 13.0181 35.3973L13.0388 37.2848C13.044 37.9598 12.8475 38.5201 12.015 38.9564H12.0098ZM11.9995 37.8864C12.2425 37.7578 12.2787 37.6292 12.2787 37.4777L12.2632 35.9897C12.2632 35.8474 12.2218 35.7555 11.9788 35.8841C11.7358 36.0127 11.6996 36.1413 11.6996 36.2882L11.7151 37.7762C11.7151 37.9277 11.7565 38.015 11.9995 37.891V37.8864Z" fill="#1C5360"/>
<path d="M14.4883 37.6569C13.661 38.0932 13.449 37.7441 13.4438 37.0691L13.418 34.3275C13.418 34.1897 13.4542 34.107 13.5369 34.0657L14.0591 33.7901C14.1418 33.7442 14.178 33.7901 14.1832 33.9279L14.209 36.4537C14.209 36.6052 14.2504 36.6925 14.4883 36.5685C14.7261 36.4445 14.7623 36.3113 14.7623 36.1644L14.7365 33.6386C14.7365 33.5008 14.7675 33.4228 14.8554 33.3768L15.3621 33.1105C15.4448 33.0646 15.481 33.1105 15.4862 33.2483L15.512 35.9899C15.5172 36.665 15.3207 37.2252 14.4883 37.6615V37.6569Z" fill="#1C5360"/>
<path d="M16.0861 36.738C16.0033 36.784 15.9671 36.738 15.962 36.6003L15.9258 33.0136C15.9258 32.8759 15.962 32.7932 16.0447 32.7519L17.1564 32.1687C17.6579 31.9069 17.8182 32.2008 17.8234 32.7473V32.9999C17.8286 33.3076 17.782 33.5555 17.6424 33.7301C17.8854 33.6474 18.0509 33.854 18.056 34.3225L18.0664 35.4981C18.0664 35.6359 18.0302 35.7185 17.9475 35.7599L17.4304 36.0308C17.3477 36.0767 17.3115 36.0308 17.3063 35.893L17.296 35.0481C17.296 34.8827 17.2598 34.8276 17.1667 34.8781L16.7014 35.1215L16.7117 36.2053C16.7117 36.3431 16.6755 36.4258 16.5928 36.4671L16.0757 36.738H16.0861ZM16.6962 34.125L16.9444 33.9918C17.0633 33.9321 17.0892 33.8035 17.0892 33.6566V33.4683C17.0892 33.3167 17.053 33.2249 16.9392 33.2846L16.691 33.4178V34.125H16.6962Z" fill="#1C5360"/>
<path d="M18.5051 35.4663C18.4224 35.5122 18.3862 35.4663 18.381 35.3285V34.681C18.3707 34.5432 18.4069 34.4606 18.4948 34.4192L19.3945 33.9462C19.4513 33.9187 19.4824 33.8268 19.4824 33.7396C19.4824 33.611 19.4513 33.5789 19.3945 33.5972L18.8929 33.7442C18.5775 33.8314 18.3707 33.7166 18.3655 33.0967V32.5134C18.3552 31.8843 18.6086 31.4021 19.0429 31.1771L19.9787 30.6857C20.0615 30.6398 20.0977 30.6857 20.1028 30.8234V31.4802C20.1132 31.6179 20.0718 31.7006 19.9891 31.7419L19.2083 32.1506C19.1515 32.1828 19.1204 32.2654 19.1204 32.3619C19.1204 32.4629 19.1566 32.5088 19.2135 32.4905L19.7099 32.3389C20.0253 32.2517 20.2321 32.3665 20.2425 32.9818V33.5651C20.2528 34.1988 19.9994 34.6764 19.5651 34.9014L18.5103 35.4571L18.5051 35.4663Z" fill="#1C5360"/>
<path d="M8.55025 35.9943C8.34343 36.1045 8.25034 35.9988 8.24517 35.6544L8.21933 33.2802C8.19864 31.1402 8.73637 30.3595 9.49644 29.5696L10.6081 28.4031C10.7839 28.2286 10.8304 28.0908 10.8304 27.7878C10.8304 27.5122 10.7684 27.4617 10.6029 27.549L8.79325 28.4996C8.58643 28.6098 8.49338 28.5042 8.48821 28.1597L8.47268 26.5432C8.47268 26.1988 8.56058 25.9967 8.7674 25.8865L11.2234 24.5961C12.1748 24.0955 12.697 24.6282 12.7125 26.1161L12.728 27.4158C12.7435 28.8118 12.2575 29.7028 11.4509 30.5432L10.3237 31.7326C10.1583 31.9025 10.1066 31.9576 10.1117 32.2607V32.55L12.4902 31.3009C12.697 31.1907 12.7901 31.2963 12.7952 31.6407L12.8108 33.2572C12.8108 33.6016 12.7229 33.8037 12.5161 33.9139L8.55025 35.9988V35.9943Z" fill="#1C5360"/>
<path d="M15.2143 30.1759C14.1336 30.7454 13.689 30.254 13.6735 28.6788L13.627 23.8339C13.627 23.4895 13.7148 23.2874 13.9216 23.1772L15.2143 22.4976C15.4211 22.3873 15.5142 22.493 15.5194 22.8374L15.5556 26.6215C15.5556 26.9108 15.659 27.0394 15.8193 26.9567L16.5948 26.548L16.5535 22.2955C16.5535 21.9511 16.6414 21.749 16.8482 21.6388L18.1305 20.9637C18.3373 20.8535 18.4304 20.9591 18.4356 21.3035L18.5234 30.2494C18.5234 30.5938 18.4355 30.7959 18.2287 30.9015L16.9464 31.5766C16.7396 31.6868 16.6465 31.5812 16.6414 31.2368L16.6207 29.4274L15.2143 30.1667V30.1759Z" fill="#1C5360"/>
<path d="M19.4833 17.7351C19.1679 17.657 18.8784 17.6157 18.625 17.6065C18.7646 17.5927 18.899 17.5927 19.0283 17.6065C19.1731 17.6433 19.323 17.6892 19.4833 17.7397V17.7351Z" fill="#1C5360"/>
</svg>
