<svg xmlns="http://www.w3.org/2000/svg" width="42" height="30" fill="#000B49" viewBox="0 0 42 24"><path d="M36.045 4.635h-7.042V.5H4.697v3.425h1.701V2.171h20.904v6.767h1.701v-2.64h3.504v5.806h7.714v2.43h-1.404v1.672h1.404v2.447h-2.033c-.383-1.587-1.846-2.781-3.58-2.781-1.735 0-3.19 1.194-3.572 2.781h-2.033v-8.036h-1.7v8.036H17.104c-.382-1.587-1.845-2.781-3.58-2.781s-3.19 1.194-3.572 2.781H6.398V15.63h-1.7v4.695h5.247c.382 1.587 1.845 2.782 3.58 2.782s3.198-1.186 3.58-2.782h13.93c.383 1.587 1.846 2.782 3.581 2.782 1.735 0 3.198-1.186 3.58-2.782h3.725v-9.373l-5.876-6.316zm-1.837 5.806V6.306h1.08l3.852 4.135h-4.932zM13.525 21.435c-1.089 0-1.982-.868-1.982-1.946 0-1.07.885-1.947 1.982-1.947s1.982.87 1.982 1.947c0 1.07-.885 1.946-1.982 1.946zm21.091 0c-1.088 0-1.981-.868-1.981-1.946 0-1.07.884-1.947 1.981-1.947 1.089 0 1.982.87 1.982 1.947a1.977 1.977 0 0 1-1.982 1.946z"/><path d="M14.376 18.653h-1.701v1.671h1.7v-1.67zm21.091 0h-1.701v1.671h1.7v-1.67zM9.111 8.946h-5.63v1.67h5.63v-1.67zm-7.331 0H.08v1.67h1.7v-1.67zm11.949-3.342h-5.63v1.671h5.63v-1.67zm-7.331 0h-1.7v1.671h1.7v-1.67zm7.331 6.684h-5.63v1.67h5.63v-1.67zm-7.331 0h-1.7v1.67h1.7v-1.67z"/></svg>