<svg width="125" height="100" viewBox="0 0 125 100" fill="none" xmlns="http://www.w3.org/2000/svg">
<path fill-rule="evenodd" clip-rule="evenodd" d="M71.9456 100C86.9103 100 100.043 88.9092 92.6675 73.8452C85.2924 58.7811 112.696 59.2677 120.745 48.8564C130.562 36.1593 127.719 -17.7375 64.6986 15.1206C54.6034 20.3841 28.6768 9.70575 20.0768 15.0042C9.95376 21.2409 -4.28877 34.0118 9.95376 47.0938C16.9694 53.5377 -8.18319 70.2631 2.83313 85.2448C13.5823 99.8631 21.1173 85.9276 37.4827 88.9092C53.8482 91.8909 60.8315 100 71.9456 100Z" fill="white" fill-opacity="0.48"/>
<path d="M112.496 48.0587L110.876 49.4826C110.698 49.3607 110.509 49.2459 110.307 49.1419L88.3868 37.9728C86.9653 37.2483 85.2207 37.2447 83.7912 37.9585L33.1345 63.356C32.7104 63.5713 32.343 63.8295 32.032 64.12L32.6337 60.6875C32.6337 60.6875 27.4283 65.7986 31.7413 69.4714C32.0724 69.848 32.4843 70.1852 32.985 70.4613L54.8122 82.4051C56.27 83.2014 58.0994 83.2229 59.5815 82.4589L110.331 56.2902C110.941 55.9746 111.429 55.5657 111.797 55.103C114.006 52.4632 112.496 48.0623 112.496 48.0623V48.0587Z" fill="#1C5360"/>
<path d="M88.7303 34.8063L110.65 45.9754C113.752 47.5571 113.764 51.524 110.67 53.1201L61.4959 78.4782C59.0487 79.7408 56.0159 79.7049 53.605 78.3886L33.3246 67.2948C30.312 65.6485 30.3968 61.7354 33.478 60.1895L84.1347 34.792C85.5602 34.0782 87.3088 34.0818 88.7303 34.8063Z" fill="#7BDEEF"/>
<path d="M112.646 32.0566L107.19 50.1839L88.3715 59.8752L88.2624 59.9326L78.4655 53.5985L74.0435 50.7399L69.7871 47.9853L73.8012 27.3078L73.8739 26.9742L92.9549 22.0317L112.646 32.0566Z" fill="#E88282"/>
<path d="M112.645 32.0566L94.0162 38.5091L73.873 26.9742L92.9541 22.0317L112.645 32.0566Z" fill="#FFCCCC"/>
<path d="M112.645 32.0557L107.19 50.183L88.3711 59.8743L94.0167 38.5082L112.645 32.0557Z" fill="#D85B5B"/>
<path d="M74.3301 50.8698L79.2528 29.9126L98.56 24.7764L103.115 27.1185L84.022 32.7425L78.4169 53.6172L74.3301 50.8698Z" fill="#FFF3F3"/>
<path d="M84.0216 32.7425L78.4649 53.5993L74.043 50.7407C74.1278 50.5614 74.1762 50.4573 74.1762 50.4573L79.2524 29.9126L84.0216 32.7425Z" fill="#DBA7A7"/>
<path d="M78.627 57.5948L57.4541 69.8005L57.4258 69.8184L38.4982 61.9886L31.8309 34.3852L17.293 33.0115L38.9505 21.4766L52.0023 21.8281L52.4344 21.8388L73.9344 30.264L74.2736 32.2439L78.627 57.5948Z" fill="#E88282"/>
<path d="M51.4895 21.9121L31.8309 34.3867L17.293 33.013L39.2533 21.3418L51.4895 21.9121Z" fill="#E88282"/>
<path d="M52.1289 21.7483L70.3013 20.2383L89.9882 30.5393L73.9358 30.2632L52.1289 21.7483Z" fill="#FBA7A6"/>
<path d="M73.9343 32.1346L50.613 43.171L39.5641 38.7593L34.6172 36.783C34.6172 36.783 31.5279 36.0083 31.6813 35.0686C31.8348 34.1289 34.8635 33.8957 33.652 33.8957C32.9251 33.8957 33.0705 33.1318 33.6359 32.088C34.0074 31.3958 34.5647 30.5816 35.1664 29.7853C35.7237 29.0501 36.6767 28.842 37.549 28.7416C39.0351 28.5694 40.291 28.7165 38.9543 27.0881C37.755 25.6283 38.7322 24.6205 40.1901 23.7202C40.8483 23.3149 41.6035 22.9311 42.3062 22.5402C42.8029 22.264 43.2673 21.9842 43.6509 21.6865C45.771 20.0438 46.5302 21.8049 47.8911 19.8071C49.2561 17.8093 53.1935 20.1586 53.1935 20.1586C53.1935 20.1586 53.9527 19.8071 54.8613 20.1586C55.6689 20.4742 55.7578 22.0882 56.941 22.3572C57.0864 22.3895 57.252 22.4039 57.4337 22.3895C58.0394 22.3465 58.6089 22.3823 59.1136 22.5079C59.9375 22.7123 60.5957 23.1535 60.9915 23.8816C61.0197 23.9318 61.048 23.982 61.0722 24.0358C61.2943 24.5093 61.5568 24.8715 61.8678 25.1298C62.4049 25.5781 63.0873 25.7108 63.9515 25.5638C65.3165 25.3306 67.1337 26.5035 67.586 27.3248C67.7072 27.5436 67.9455 27.7194 68.2564 27.8593C69.1166 28.2538 70.5219 28.3793 71.5234 28.3793C72.8884 28.3793 73.9464 32.1382 73.9464 32.1382L73.9343 32.1346Z" fill="#7BDEEF"/>
<path d="M52.2767 29.8511C50.0031 30.8123 44.0991 32.186 43.7962 30.5361C43.4934 28.8898 41.2198 29.5749 40.614 29.5749C40.0689 29.5749 38.0497 29.7973 37.5449 28.7392C39.031 28.567 40.2869 28.7141 38.9502 27.0857C37.7509 25.6259 38.7282 24.618 40.186 23.7178C40.3839 24.7615 40.7998 25.8662 41.6761 25.8662C43.3439 25.8662 45.9164 25.0413 46.0698 26.5513C46.2233 28.0613 48.0405 29.0225 48.9491 28.8862L53.4922 28.2012C53.4922 28.2012 54.5543 28.8862 52.2808 29.8475L52.2767 29.8511Z" fill="#49C1CE"/>
<path d="M65.3002 29.4421C65.4537 30.4033 63.6324 30.9521 61.6657 30.9521C59.6991 30.9521 60.3008 32.7383 59.8485 33.6995C59.3922 34.6608 56.0605 35.0733 53.0318 34.3846C50.0031 33.6995 49.8496 32.3258 49.8496 32.3258C49.8496 32.3258 51.5174 33.0109 53.4841 33.1508C55.4508 33.2907 56.21 32.0532 56.6663 30.267C57.1226 28.4809 59.0893 28.8933 59.9979 28.757C60.9065 28.6207 61.2094 26.8346 61.2094 25.8733C61.2094 25.5541 61.476 25.3102 61.8515 25.1309C62.3886 25.5792 63.0711 25.7119 63.9353 25.5649C65.3002 25.3317 67.1175 26.5046 67.5698 27.3259C67.6909 27.5447 67.9292 27.7205 68.2401 27.8604C66.9883 28.2585 65.1952 28.7857 65.3002 29.4421Z" fill="#49C1CE"/>
<path d="M53.7913 38.6431C53.7913 38.6431 49.8539 39.7406 48.4889 40.0168C47.124 40.293 45.0039 39.3318 43.7924 38.7794C42.5809 38.2306 42.8636 38.2952 41.1311 38.6072C40.586 38.7041 40.061 38.7615 39.5602 38.7651L34.6133 36.7888C34.6133 36.7888 31.524 36.014 31.6774 35.0743C31.8309 34.1346 34.8596 33.9015 33.6481 33.9015C32.9212 33.9015 33.0666 33.1375 33.632 32.0938C33.6764 32.187 34.589 33.9804 35.7682 34.1131C36.9797 34.2494 37.8883 33.7006 38.9504 34.2494C40.0125 34.7981 39.1039 35.4868 40.1619 35.7594C41.22 36.032 44.2527 36.0356 45.0079 36.0356C45.7631 36.0356 46.3729 37.8217 47.128 38.3705C47.8832 38.9193 50.6131 38.5068 51.6711 38.0943C52.7332 37.6819 53.7913 38.6431 53.7913 38.6431Z" fill="#49C1CE"/>
<path d="M56.5159 22.7104C56.9723 23.3954 56.5159 23.6716 54.0929 24.6329C51.6699 25.5941 51.9728 23.3954 50.6079 23.8079C49.2429 24.2204 49.5458 25.4542 48.4877 25.7304C47.4297 26.0066 47.1228 24.7692 46.517 23.5317C45.9113 22.2943 44.5463 23.3954 43.032 23.1193C42.5151 23.026 42.3253 22.7965 42.293 22.5382C42.7897 22.262 43.2541 21.9823 43.6377 21.6846C45.7578 20.0419 46.517 21.8029 47.8779 19.8051C49.2429 17.8073 53.1803 20.1566 53.1803 20.1566C53.1803 20.1566 53.9395 19.8051 54.8481 20.1566C55.6558 20.4723 55.7446 22.0863 56.9278 22.3553C56.5846 22.4091 56.3665 22.488 56.5119 22.7068L56.5159 22.7104Z" fill="#B6F8FF"/>
<path d="M60.9843 23.8835C60.8954 24.4036 60.7137 24.9021 60.3381 24.9057C59.5466 24.9129 58.3351 25.3218 58.3351 26.283C58.3351 27.2442 58.0322 28.0692 56.9701 27.9293C55.9081 27.7894 54.85 27.2442 54.85 27.2442L53.9414 27.6567C53.9414 27.6567 54.0949 26.1467 54.5472 26.0104C54.9994 25.8741 56.9701 26.0104 57.1236 24.9129C57.2771 23.8153 58.4886 22.7142 58.7914 22.7142C58.856 22.7142 58.9651 22.6281 59.1064 22.5098C59.9303 22.7142 60.5885 23.1554 60.9843 23.8835Z" fill="#B6F8FF"/>
<path d="M78.6271 57.5946L57.4542 69.8002L50.6133 43.3123L74.2738 32.2437L78.6271 57.5946Z" fill="#D85B5B"/>
<path d="M50.6133 43.1764L63.334 56.4974L84.2323 43.4489L73.9346 30.2642L50.6133 43.1764Z" fill="#FFCCCC"/>
<path d="M31.8308 34.3848L21.8359 47.1571L40.3153 57.7307L50.613 43.1758L31.8308 34.3848Z" fill="#EFA3A3"/>
<path d="M18.4922 34.3489C18.4922 34.3489 19.203 33.7571 19.6876 34.4852C20.1722 35.2133 20.7739 35.9845 20.2408 36.3647C19.7077 36.7449 19.0778 36.6086 19.0778 36.6086L18.4316 35.0304L18.4922 34.3489Z" fill="#EABAA0"/>
<path d="M19.8613 54.9858C19.8613 54.9858 17.4585 49.2291 16.5701 44.6811C15.9441 41.4782 16.1016 40.0865 16.1016 40.0865C16.1016 40.0865 17.6685 37.3032 19.2354 38.1389C20.8022 38.9746 21.2747 39.9502 21.2747 39.9502C21.2747 39.9502 22.6841 48.8596 24.4084 51.5066C26.1328 54.1536 21.5857 57.7726 19.8613 54.9858Z" fill="#F4CAAE"/>
<path d="M19.5447 40.2273C20.3685 40.5394 21.4346 40.4031 21.895 38.9756C22.1211 38.2797 22.4402 37.5229 22.5209 37.1643C22.6784 36.4684 21.895 35.7726 21.7375 34.9369C21.58 34.1012 20.9541 33.6851 20.6391 34.2411C20.3241 34.797 20.7966 35.3566 20.6391 35.4929C20.4816 35.6291 20.0131 36.3286 19.3832 37.1643C18.7532 38 18.4422 39.2517 19.5407 39.6714C19.5528 39.675 19.5286 40.2237 19.5407 40.2273H19.5447Z" fill="#F4CAAE"/>
<path d="M20.1753 38.5564C20.1753 38.5564 20.1754 34.7975 19.3919 34.9374C18.6085 35.0773 17.3525 35.913 17.0416 36.3291C16.7306 36.7451 16.1007 36.885 15.7857 37.3046C15.4707 37.7207 15.4707 38.0005 15.4707 38.6963C15.4707 39.3921 15.6282 42.4552 17.195 42.1754C18.7619 41.8956 20.1753 39.5284 20.1753 38.5564Z" fill="#F4CAAE"/>
<path d="M18.2945 35.6335C18.2461 35.4434 17.9795 34.2419 18.6095 34.102C19.2395 33.9621 19.611 34.041 19.817 34.8373C20.0229 35.6335 20.0229 36.0496 19.7079 36.3294C19.3929 36.6091 18.767 37.4448 18.2986 35.6335H18.2945Z" fill="#F4CAAE"/>
<path d="M17.0387 36.0481C16.9902 35.858 16.7237 34.6564 17.3536 34.5165C17.9836 34.3767 18.3551 34.4556 18.5611 35.2518C18.767 36.0481 18.767 36.4641 18.4521 36.7439C18.1371 37.0237 17.5111 37.8594 17.0427 36.0481H17.0387Z" fill="#F4CAAE"/>
<path d="M16.0992 36.884C16.0508 36.6939 15.7842 35.4924 16.4142 35.3525C17.0442 35.2126 17.4157 35.2915 17.6217 36.0878C17.8276 36.884 17.8276 37.3001 17.5126 37.5798C17.1976 37.8596 16.5717 38.6953 16.1033 36.884H16.0992Z" fill="#F4CAAE"/>
<path d="M15.3141 37.8601C15.2656 37.67 14.9991 36.4684 15.629 36.3286C16.259 36.1887 16.6306 36.2676 16.8365 37.0638C17.0425 37.8601 17.0425 38.2762 16.7275 38.5559C16.4125 38.8357 15.7865 39.6714 15.3181 37.8601H15.3141Z" fill="#F4CAAE"/>
<path d="M21.7424 35.0769C21.7424 35.0769 21.7424 33.5454 21.1165 33.8252C20.4906 34.1049 20.0746 34.2556 20.5147 35.5719C20.9549 36.8882 20.644 37.4442 20.644 37.4442C20.644 37.4442 21.5849 36.4686 21.7424 35.0769Z" fill="#F4CAAE"/>
<path d="M21.7313 59.3491L19.0781 54.1484C19.0781 54.1484 19.3446 50.6441 22.6439 50.8199C25.9433 50.9956 25.1921 51.5014 25.1921 51.5014L27.9099 56.4259C27.9099 56.4259 28.1603 63.1833 21.7313 59.3455V59.3491Z" fill="#F23E30"/>
<path d="M27.6172 52.4076V54.9147C27.6172 55.234 27.7464 55.5424 27.9968 55.772C28.6025 56.3207 29.4788 56.5826 30.3592 56.4463L30.8236 56.3745C31.6151 56.2526 32.2128 55.6751 32.2814 54.965L32.4752 52.9671C32.4752 52.9671 30.4359 50.1839 27.6172 52.4112V52.4076Z" fill="#F4CAAE"/>
<path d="M35.4573 52.8268C35.1665 53.6374 34.6375 54.1216 33.9712 54.3726C33.6805 54.4838 33.3695 54.5484 33.0343 54.5771C32.8041 54.5986 32.5659 54.6022 32.3196 54.5878C31.5725 54.5484 30.7769 54.369 30.0217 54.118C29.1172 53.8203 28.2691 53.4222 27.619 53.0455C27.102 52.7479 26.7103 52.4681 26.5205 52.2672C25.7371 51.4315 25.4504 50.5456 25.6563 49.4014C25.7977 48.6339 26.2782 47.9524 26.9647 47.4718C28.0309 46.7293 29.8198 45.9008 31.2211 47.3929C31.4674 47.6583 31.7219 47.8914 31.9803 48.103C32.8485 48.824 33.733 49.2831 34.4195 49.7494C35.0696 50.1905 35.5461 50.6424 35.6592 51.3239C35.7279 51.7256 35.6714 52.2098 35.4533 52.8232L35.4573 52.8268Z" fill="#F4CAAE"/>
<path d="M31.9316 48.1643C31.9316 48.1643 33.341 46.7727 32.7151 46.2167C32.0891 45.6608 27.227 42.8739 26.1326 46.0769C25.0382 49.2798 25.6641 49.1399 25.6641 49.1399C25.6641 49.1399 24.4082 50.2554 24.4082 51.5072C24.4082 52.7589 26.6091 54.1362 28.1719 54.0143C29.7348 53.8923 31.4631 54.5702 31.6206 54.0143C31.7781 53.4583 31.9357 52.4827 30.9947 51.647C30.0538 50.8113 29.7388 49.5596 30.3688 49.5596C30.9987 49.5596 32.0931 49.6995 31.9356 48.1679L31.9316 48.1643Z" fill="#1C5360"/>
<path d="M30.8329 51.0884C30.8329 51.0884 29.1085 50.8087 29.266 51.7843C29.4235 52.7598 31.4669 53.7032 31.9313 53.036C32.3957 52.3689 30.8329 51.0884 30.8329 51.0884Z" fill="#F4CAAE"/>
<path d="M27.917 67.6155C27.917 67.6155 24.1371 69.1864 23.3537 71.5716C22.5702 73.9604 19.5375 77.687 19.5375 77.687C19.5375 77.687 13.8313 80.8935 13.1448 81.1517C12.4583 81.41 12.9711 84.9824 13.9484 85.7248C14.9257 86.4673 16.5128 88.6587 18.7863 86.8905C21.0559 85.1258 26.4107 82.3318 27.3193 80.8002C28.232 79.2687 32.3188 70.8937 32.3188 70.8937C32.3188 70.8937 32.6983 66.2202 27.917 67.6119V67.6155Z" fill="#1C5360"/>
<path d="M11.2469 82.4853C11.2469 82.4853 13.7345 79.5084 15.2126 81.5133C16.6906 83.5183 16.3393 87.8224 17.1227 87.8511C17.9061 87.8798 18.5765 90.412 17.4538 90.9285C16.3312 91.445 11.4529 91.8288 11.2187 90.0103C10.9885 88.1918 10.8875 86.9329 10.2979 86.0757C9.70835 85.2184 9.9789 82.7185 11.2429 82.4853H11.2469Z" fill="#1C5360"/>
<path d="M43.1055 91.2232C43.0934 90.9865 43.0369 90.4234 42.8996 89.7957C42.8188 89.1967 42.6452 88.7197 42.4029 88.3395C42.1202 87.7872 41.7285 87.3675 41.1954 87.3245C39.778 86.7398 37.9486 87.3532 37.5407 87.9701C37.1652 88.5368 35.9416 89.3617 34.8795 90.0073C33.6801 89.7204 31.9557 89.6307 31.5156 91.7863C31.5156 91.7863 31.5236 91.8401 31.5398 91.937C31.2167 92.0697 30.934 92.2921 30.9502 92.6759C30.9865 93.5438 30.4413 94.8673 31.0632 95.2798C31.3903 95.495 31.9315 96.0976 32.7957 96.3235C33.0218 96.4778 33.3086 96.5459 33.6761 96.4885C33.7932 96.4706 33.9749 96.4132 34.2051 96.3235C34.6533 96.2195 35.1541 96.0115 35.7113 95.66C38.5422 94.315 43.1257 91.7541 43.1015 91.2161L43.1055 91.2232Z" fill="#FC624E"/>
<path d="M36.0061 67.7959C36.0061 67.7959 29.5771 66.6805 29.8921 71.1388C30.2071 75.5935 30.833 82.975 30.6755 84.7827C30.518 86.594 30.0496 92.7201 31.1439 92.9963C32.2424 93.276 36.002 95.2236 38.3564 91.185C38.3564 91.185 37.8193 71.7055 37.3831 69.7507C36.947 67.7959 36.0061 67.7959 36.0061 67.7959Z" fill="#53D0E5"/>
<path d="M28.0137 70.8573C28.0137 70.8573 27.5453 75.868 28.6396 76.9835C29.734 78.0989 30.99 80.3263 31.305 80.1864C31.62 80.0465 34.7537 73.0847 34.7537 72.3889C34.7537 71.6931 31.9067 68.0776 31.9067 68.0776L28.0137 70.8573Z" fill="#53D0E5"/>
<path d="M45.5896 47.3038C45.5896 47.3038 45.3231 46.4789 45.7229 46.0054C46.1226 45.5355 46.1671 44.8361 45.5896 44.7106C45.0606 44.5922 44.5275 45.4172 43.9985 46.2421C43.4695 47.0671 43.4695 48.0104 43.5987 48.717C43.6795 49.1581 44.1762 49.7822 44.5397 50.1911C44.6002 50.2593 44.6689 50.3202 44.7416 50.374C45.0202 50.6968 45.2584 50.9515 45.2584 50.9515C45.2584 50.9515 45.3069 50.8188 45.3675 50.6143C45.6138 50.643 45.8723 50.6036 46.1025 50.4888C46.474 50.3023 46.8415 49.9257 47.0474 49.1904C47.5765 47.3038 45.5896 47.3038 45.5896 47.3038Z" fill="#F4CAAE"/>
<path d="M46.4522 49.2511L43.0237 42.0633C42.8662 41.7334 42.951 41.3567 43.2337 41.1057L45.7011 38.9285C46.1978 38.4874 47.0418 38.6416 47.3043 39.2191L50.6157 46.4499C50.7611 46.7727 50.6803 47.1421 50.4098 47.3896L48.0595 49.5273C47.5668 49.9721 46.7268 49.8322 46.4522 49.2583V49.2511Z" fill="#2E7C89"/>
<path d="M47.0987 49.2868L43.6702 42.099C43.5127 41.769 43.5975 41.3924 43.8802 41.1413L46.3476 38.9642C46.8443 38.523 47.6883 38.6772 47.9508 39.2547L51.2622 46.4855C51.4076 46.8083 51.3268 47.1778 51.0562 47.4253L48.7059 49.5629C48.2133 50.0077 47.3733 49.8678 47.0987 49.2939V49.2868Z" fill="#205D63"/>
<path d="M23.4966 57.3427C23.8157 55.8542 25.2452 54.7531 26.9494 54.6455C29.3886 54.4949 33.3259 54.7352 35.6156 57.418C39.0644 61.4567 38.0467 69.3224 37.5743 70.8539C37.2674 71.8582 30.4143 76.6213 25.6612 73.5009C24.4578 72.7118 23.3109 70.9292 23.3109 69.6021L23.5451 65.4953C23.5451 64.4767 22.8707 60.2444 23.4966 57.3427Z" fill="#FC624E"/>
<path d="M34.2051 59.7901L32.9492 56.311L35.9295 54.4997L39.9315 54.8476C41.3691 54.9732 41.886 55.3354 43.4529 53.248L45.9607 49.2093C48.1091 48.9726 49.3327 49.776 49.8577 51.6411L49.8779 51.7164L46.5785 58.9903C46.0293 60.2026 44.6281 60.9343 43.1702 60.7765L34.2011 59.7937L34.2051 59.7901Z" fill="#F4CAAE"/>
<path d="M46.591 51.7114C46.591 51.7114 45.1816 50.8757 45.6501 48.9281C46.1185 46.9805 47.0594 46.7008 47.6894 46.1448C48.3194 45.5889 49.2563 45.0294 49.2563 44.6133C49.2563 44.1972 49.5713 43.3615 50.0397 43.7776C50.5082 44.1937 50.3547 44.4734 50.3547 44.4734C50.3547 44.4734 50.9806 44.0574 51.1381 44.4734C51.2956 44.8895 50.9806 45.7252 50.9806 45.7252C50.9806 45.7252 51.4491 45.4454 51.6066 45.8651C51.7641 46.2811 51.4491 46.9805 51.4491 46.9805C51.4491 46.9805 52.39 46.4246 52.2325 47.3966C52.075 48.3722 51.1341 51.8513 49.0988 52.1311C47.0634 52.4108 46.591 51.715 46.591 51.715V51.7114Z" fill="#F4CAAE"/>
<path d="M31.1316 57.472C31.063 56.4749 31.5314 55.4885 32.4319 54.8931C32.86 54.6098 33.4012 54.3946 34.0715 54.3695C36.1634 54.2906 41.8937 54.7497 41.8937 54.7497L42.2774 60.8327L33.0296 59.997C33.0296 59.997 31.3053 59.997 31.1316 57.472Z" fill="#F23E30"/>
<path d="M30.0498 49.8325C30.0498 49.8325 31.1483 50.6682 31.4592 50.8081C31.7702 50.948 31.9277 51.5039 31.6167 51.5039C31.3058 51.5039 30.3608 50.6682 29.4239 51.0879C28.4829 51.5039 30.0498 49.8361 30.0498 49.8361V49.8325Z" fill="#1C5360"/>
<path d="M31.3296 48.684L31.3271 48.6868C31.2004 48.8301 31.2285 49.0375 31.3898 49.1501L32.6569 50.0341C32.8183 50.1467 33.0518 50.1218 33.1786 49.9785L33.1811 49.9757C33.3078 49.8324 33.2798 49.6249 33.1184 49.5123L31.8513 48.6283C31.69 48.5157 31.4564 48.5407 31.3296 48.684Z" fill="#1C5360"/>
<path d="M35.1532 51.4744C34.7413 51.7398 34.2527 51.7613 33.8973 51.7291C33.6631 51.7075 33.5379 51.4744 33.6672 51.3022C33.8691 51.0297 34.1598 50.6459 34.3779 50.3912C34.4869 50.2657 34.6929 50.2442 34.8261 50.3446C35.1856 50.6172 35.2017 50.7535 35.2744 51.209C35.2906 51.3094 35.2421 51.4134 35.1532 51.4708V51.4744Z" fill="#1C5360"/>
</svg>
