<svg width="17" height="24" viewBox="0 0 17 24" fill="none" xmlns="http://www.w3.org/2000/svg">
<path d="M8.5 0C3.81319 0 0 3.58889 0 8.00002C0 9.32423 0.35177 10.6372 1.0205 11.8018L8.03518 23.7422C8.12856 23.9014 8.30651 24 8.5 24C8.69349 24 8.87144 23.9014 8.96483 23.7422L15.9821 11.7978C16.6482 10.6372 17 9.32419 17 7.99997C17 3.58889 13.1868 0 8.5 0ZM8.5 12C6.15659 12 4.25003 10.2056 4.25003 8.00002C4.25003 5.79445 6.15659 4.00003 8.5 4.00003C10.8434 4.00003 12.75 5.79445 12.75 8.00002C12.75 10.2056 10.8434 12 8.5 12Z" fill="#2368F7"/>
</svg>
