<svg width="299" height="299" viewBox="0 0 299 299" fill="none" xmlns="http://www.w3.org/2000/svg">
<rect width="298.952" height="298.952" rx="15" fill="#000B49"/>
<path d="M220.546 95.0792H186.959V75H71.0273V91.6312H79.1401V83.1128H178.846V115.97H186.959V103.151H203.672V131.343H240.463V143.148H233.77V151.26H240.463V163.146H230.768C228.943 155.438 221.966 149.638 213.691 149.638C205.416 149.638 198.479 155.438 196.654 163.146H186.959V124.123H178.846V163.146H130.21C128.385 155.438 121.408 149.638 113.133 149.638C104.858 149.638 97.9213 155.438 96.0959 163.146H79.1401V148.461H71.0273V171.258H96.0553C97.8807 178.966 104.858 184.766 113.133 184.766C121.408 184.766 128.385 179.006 130.21 171.258H196.654C198.479 178.966 205.456 184.766 213.732 184.766C222.007 184.766 228.984 179.006 230.809 171.258H248.576V125.746L220.546 95.0792ZM211.784 123.271V103.192H216.936L235.312 123.271H211.784ZM113.133 176.653C107.941 176.653 103.681 172.435 103.681 167.202C103.681 162.01 107.9 157.751 113.133 157.751C118.366 157.751 122.584 161.969 122.584 167.202C122.584 172.394 118.366 176.653 113.133 176.653ZM213.732 176.653C208.539 176.653 204.28 172.435 204.28 167.202C204.28 162.01 208.499 157.751 213.732 157.751C218.924 157.751 223.183 161.969 223.183 167.202C223.142 172.394 218.924 176.653 213.732 176.653Z" fill="white"/>
<path d="M117.187 163.146H109.074V171.258H117.187V163.146Z" fill="white"/>
<path d="M217.787 163.146H209.674V171.258H217.787V163.146Z" fill="white"/>
<path d="M92.0799 116.01H65.2266V124.123H92.0799V116.01Z" fill="white"/>
<path d="M57.1128 116.01H49V124.123H57.1128V116.01Z" fill="white"/>
<path d="M114.105 99.7847H87.252V107.897H114.105V99.7847Z" fill="white"/>
<path d="M79.1401 99.7847H71.0273V107.897H79.1401V99.7847Z" fill="white"/>
<path d="M114.105 132.236H87.252V140.349H114.105V132.236Z" fill="white"/>
<path d="M79.1401 132.236H71.0273V140.349H79.1401V132.236Z" fill="white"/>
<path d="M91.7119 254V222.184H98.3037V235.367H112.103V222.184H118.738V254H112.103V240.816H98.3037V254H91.7119ZM129.417 254H122.298L133.328 222.184H141.81L152.796 254H145.721L143.348 246.661H131.834L129.417 254ZM133.504 241.52H141.678L137.679 229.347H137.459L133.504 241.52ZM176.087 222.184H182.723V242.838C182.723 249.825 177.449 254.439 169.539 254.439C161.629 254.439 156.399 249.825 156.399 242.838V222.184H162.991V242.311C162.991 245.958 165.584 248.639 169.539 248.639C173.538 248.639 176.087 245.958 176.087 242.311V222.184ZM188.084 254V222.184H194.676V248.551H208.387V254H188.084Z" fill="white"/>
</svg>
