<svg width="66" height="66" viewBox="0 0 66 66" fill="none" xmlns="http://www.w3.org/2000/svg">
<path d="M60.213 40.0301C60.0215 39.8383 59.794 39.6862 59.5436 39.5824C59.2932 39.4786 59.0249 39.4252 58.7538 39.4252C58.4828 39.4252 58.2144 39.4786 57.964 39.5824C57.7136 39.6862 57.4861 39.8383 57.2946 40.0301L53.2521 44.0726L51.963 42.7732C51.7708 42.5821 51.5428 42.4308 51.292 42.3279C51.0413 42.2249 50.7727 42.1725 50.5017 42.1735C50.2306 42.1744 49.9624 42.2288 49.7124 42.3335C49.4624 42.4381 49.2355 42.5911 49.0446 42.7835C48.8534 42.9743 48.7017 43.201 48.5982 43.4505C48.4947 43.7 48.4414 43.9674 48.4414 44.2376C48.4414 44.5077 48.4947 44.7752 48.5982 45.0247C48.7017 45.2742 48.8534 45.5008 49.0446 45.6916L50.808 47.4551C51.129 47.7759 51.51 48.0303 51.9294 48.2038C52.3488 48.3772 52.7982 48.4662 53.2521 48.4657C53.7059 48.4662 54.1554 48.3772 54.5747 48.2038C54.9941 48.0303 55.3752 47.7759 55.6962 47.4551L60.213 42.9485C60.4048 42.757 60.5569 42.5295 60.6607 42.2791C60.7645 42.0287 60.8179 41.7604 60.8179 41.4893C60.8179 41.2183 60.7645 40.9499 60.6607 40.6995C60.5569 40.4491 60.4048 40.2216 60.213 40.0301V40.0301Z" fill="#2754A5"/>
<path d="M51.2619 51.9101V51.8998C49.7001 51.2379 48.3677 50.1311 47.4307 48.7173C46.4936 47.3034 45.9933 45.6451 45.9922 43.9489C45.992 42.2291 46.5055 40.5485 47.4669 39.1226V39.1123C47.7245 38.7126 47.8375 38.2366 47.7868 37.7637C47.7361 37.2908 47.525 36.8496 47.1884 36.5136C46.6577 35.9893 46.0964 35.4968 45.5075 35.0389C44.1862 34.0023 42.7244 33.1586 41.1659 32.5329C42.6713 31.3385 43.8872 29.8194 44.7229 28.089C45.5586 26.3586 45.9925 24.4618 45.9922 22.5401C45.9867 19.1558 44.6399 15.9117 42.2468 13.5186C39.8538 11.1255 36.6096 9.77871 33.2253 9.77325C29.841 9.77871 26.5969 11.1255 24.2038 13.5186C21.8107 15.9117 20.4639 19.1558 20.4584 22.5401C20.4577 24.4629 20.8924 26.3608 21.7301 28.0915C22.5677 29.8222 23.7865 31.3406 25.295 32.5329C21.8908 33.9162 18.9759 36.2825 16.9224 39.3297C14.8689 42.3769 13.7699 45.9668 13.7656 49.6414V54.6532C13.7673 55.1998 13.9851 55.7234 14.3715 56.1099C14.758 56.4963 15.2816 56.7141 15.8281 56.7157H50.6122C51.0158 56.7184 51.411 56.5999 51.7465 56.3754C52.0317 56.1876 52.2658 55.932 52.4278 55.6314C52.5898 55.3308 52.6746 54.9947 52.6747 54.6532V53.8695C52.6751 53.4358 52.5388 53.0131 52.2851 52.6613C52.0315 52.3096 51.6734 52.0467 51.2619 51.9101V51.9101Z" fill="#80A9DA"/>
</svg>
